{
copyright = "Copyright (c) 2015, Cadson Demak (info@cadsondemak.com)";
customParameters = (
{
name = vendorID;
value = CDK;
},
{
name = description;
value = "Copyright (c) 2015, Cadson Demak (info@cadsondemak.com)";
},
{
name = license;

glyphs = (
{
glyphname = A;
lastChange = "2015-08-01 07:19:49 +0000";
layers = (
{
layerId = "9C7BFC1E-BC2B-47ED-B7E7-0F1FF6E98B93";
name = Bold;
paths = (
{
closed = 1;
nodes = (
"292 0 LINE",
"292 101 LINE",
"250 101 LINE",
"280 193 LINE",
"437 193 LINE",
"465 101 LINE",
"423 101 LINE",
"423 0 LINE",
"693 0 LINE",
"693 101 LINE",
"667 101 LINE SMOOTH",
"633 101 OFFCURVE",
"620 106 OFFCURVE",
"610 136 CURVE SMOOTH",
"435 647 LINE",
"282 647 LINE",
"104 136 LINE SMOOTH",
"93 106 OFFCURVE",
"81 101 OFFCURVE",
"48 101 CURVE SMOOTH",
"21 101 LINE",
"21 0 LINE"
);
},
{
closed = 1;
nodes = (
"360 446 LINE",
"413 274 LINE",
"304 274 LINE"
);
}
);
width = 715;
}
);
leftKerningGroup = A;
note = A;
rightKerningGroup = A;
unicode = 0041;
},
{
glyphname = Aacute;
lastChange = "2015-08-01 07:19:49 +0000";
layers = (
{
layerId = "9C7BFC1E-BC2B-47ED-B7E7-0F1FF6E98B93";
name = Bold;
paths = (
{
closed = 1;
nodes = (
"292 0 LINE",
"292 101 LINE",
"250 101 LINE",
"280 193 LINE",
"437 193 LINE",
"465 101 LINE",
"423 101 LINE",
"423 0 LINE",
"693 0 LINE",
"693 101 LINE",
"667 101 LINE SMOOTH",
"633 101 OFFCURVE",
"620 106 OFFCURVE",
"610 136 CURVE SMOOTH",
"435 647 LINE",
"282 647 LINE",
"104 136 LINE SMOOTH",
"93 106 OFFCURVE",
"81 101 OFFCURVE",
"48 101 CURVE SMOOTH",
"21 101 LINE",
"21 0 LINE"
);
},
{
closed = 1;
nodes = (
"360 446 LINE",
"413 274 LINE",
"304 274 LINE"
);
},
{
closed = 1;
nodes = (
"420 699 LINE",
"533 879 LINE",
"362 879 LINE",
"287 699 LINE"
);
}
);
width = 715;
}
);
leftKerningGroup = A;
note = Aacute;
rightKerningGroup = A;
unicode = 00C1;
},
{
glyphname = Abreve;
lastChange = "2015-08-01 07:19:47 +0000";
layers = (
{
layerId = "9C7BFC1E-BC2B-47ED-B7E7-0F1FF6E98B93";
name = Bold;
paths = (
{
closed = 1;
nodes = (
"292 0 LINE",
"292 101 LINE",
"250 101 LINE",
"280 193 LINE",
"437 193 LINE",
"465 101 LINE",
"423 101 LINE",
"423 0 LINE",
"693 0 LINE",
"693 101 LINE",
"667 101 LINE SMOOTH",
"633 101 OFFCURVE",
"620 106 OFFCURVE",
"610 136 CURVE SMOOTH",
"435 647 LINE",
"282 647 LINE",
"104 136 LINE SMOOTH",
"93 106 OFFCURVE",
"81 101 OFFCURVE",
"48 101 CURVE SMOOTH",
"21 101 LINE",
"21 0 LINE"
);
},
{
closed = 1;
nodes = (
"360 446 LINE",
"413 274 LINE",
"304 274 LINE"
);
},
{
closed = 1;
nodes = (
"474 698 OFFCURVE",
"538 760 OFFCURVE",
"538 854 CURVE",
"408 854 LINE",
"408 815 OFFCURVE",
"397 791 OFFCURVE",
"360 791 CURVE SMOOTH",
"327 791 OFFCURVE",
"312 815 OFFCURVE",
"312 854 CURVE",
"182 854 LINE",
"182 760 OFFCURVE",
"246 698 OFFCURVE",
"360 698 CURVE SMOOTH"
);
}
);
width = 715;
}
);
leftKerningGroup = A;
note = Abreve;
rightKerningGroup = A;
unicode = 0102;
},
{
glyphname = Abreveacute;
lastChange = "2015-08-01 07:19:48 +0000";
layers = (
{
layerId = "9C7BFC1E-BC2B-47ED-B7E7-0F1FF6E98B93";
name = Bold;
paths = (
{
closed = 1;
nodes = (
"292 0 LINE",
"292 101 LINE",
"250 101 LINE",
"280 193 LINE",
"437 193 LINE",
"465 101 LINE",
"423 101 LINE",
"423 0 LINE",
"693 0 LINE",
"693 101 LINE",
"667 101 LINE SMOOTH",
"633 101 OFFCURVE",
"620 106 OFFCURVE",
"610 136 CURVE SMOOTH",
"435 647 LINE",
"282 647 LINE",
"104 136 LINE SMOOTH",
"93 106 OFFCURVE",
"81 101 OFFCURVE",
"48 101 CURVE SMOOTH",
"21 101 LINE",
"21 0 LINE"
);
},
{
closed = 1;
nodes = (
"360 446 LINE",
"413 274 LINE",
"304 274 LINE"
);
},
{
closed = 1;
nodes = (
"462 698 OFFCURVE",
"547 758 OFFCURVE",
"547 866 CURVE",
"440 866 LINE",
"440 816 OFFCURVE",
"420 785 OFFCURVE",
"359 785 CURVE SMOOTH",
"303 785 OFFCURVE",
"280 816 OFFCURVE",
"280 866 CURVE",
"173 866 LINE",
"173 758 OFFCURVE",
"258 698 OFFCURVE",
"359 698 CURVE SMOOTH"
);
},
{
closed = 1;
nodes = (
"405 861 LINE",
"502 1001 LINE",
"363 1001 LINE",
"305 861 LINE"
);
}
);
width = 715;
}
);
leftKerningGroup = A;
note = Abreveacute;
rightKerningGroup = A;
unicode = 1EAE;
},
{
glyphname = Abrevedotbelow;
lastChange = "2015-08-01 07:19:47 +0000";
layers = (
{
layerId = "9C7BFC1E-BC2B-47ED-B7E7-0F1FF6E98B93";
name = Bold;
paths = (
{
closed = 1;
nodes = (
"292 0 LINE",
"292 101 LINE",
"250 101 LINE",
"280 193 LINE",
"437 193 LINE",
"465 101 LINE",
"423 101 LINE",
"423 0 LINE",
"693 0 LINE",
"693 101 LINE",
"667 101 LINE SMOOTH",
"633 101 OFFCURVE",
"620 106 OFFCURVE",
"610 136 CURVE SMOOTH",
"435 647 LINE",
"282 647 LINE",
"104 136 LINE SMOOTH",
"93 106 OFFCURVE",
"81 101 OFFCURVE",
"48 101 CURVE SMOOTH",
"21 101 LINE",
"21 0 LINE"
);
},
{
closed = 1;
nodes = (
"418 -183 LINE",
"418 -61 LINE",
"302 -61 LINE",
"302 -183 LINE"
);
},
{
closed = 1;
nodes = (
"360 446 LINE",
"413 274 LINE",
"304 274 LINE"
);
},
{
closed = 1;
nodes = (
"475 698 OFFCURVE",
"539 760 OFFCURVE",
"539 854 CURVE",
"409 854 LINE",
"409 815 OFFCURVE",
"398 791 OFFCURVE",
"361 791 CURVE SMOOTH",
"328 791 OFFCURVE",
"313 815 OFFCURVE",
"313 854 CURVE",
"183 854 LINE",
"183 760 OFFCURVE",
"247 698 OFFCURVE",
"361 698 CURVE SMOOTH"
);
}
);
width = 715;
}
);
leftKerningGroup = A;
note = Abrevedotbelow;
rightKerningGroup = A;
unicode = 1EB6;
},
{
glyphname = Abrevegrave;
lastChange = "2015-08-01 07:19:47 +0000";
layers = (
{
layerId = "9C7BFC1E-BC2B-47ED-B7E7-0F1FF6E98B93";
name = Bold;
paths = (
{
closed = 1;
nodes = (
"292 0 LINE",
"292 101 LINE",
"250 101 LINE",
"280 193 LINE",
"437 193 LINE",
"465 101 LINE",
"423 101 LINE",
"423 0 LINE",
"693 0 LINE",
"693 101 LINE",
"667 101 LINE SMOOTH",
"633 101 OFFCURVE",
"620 106 OFFCURVE",
"610 136 CURVE SMOOTH",
"435 647 LINE",
"282 647 LINE",
"104 136 LINE SMOOTH",
"93 106 OFFCURVE",
"81 101 OFFCURVE",
"48 101 CURVE SMOOTH",
"21 101 LINE",
"21 0 LINE"
);
},
{
closed = 1;
nodes = (
"360 446 LINE",
"413 274 LINE",
"304 274 LINE"
);
},
{
closed = 1;
nodes = (
"462 698 OFFCURVE",
"547 758 OFFCURVE",
"547 866 CURVE",
"440 866 LINE",
"440 816 OFFCURVE",
"416 785 OFFCURVE",
"360 785 CURVE SMOOTH",
"300 785 OFFCURVE",
"280 816 OFFCURVE",
"280 866 CURVE",
"173 866 LINE",
"173 758 OFFCURVE",
"258 698 OFFCURVE",
"360 698 CURVE SMOOTH"
);
},
{
closed = 1;
nodes = (
"415 861 LINE",
"357 1001 LINE",
"218 1001 LINE",
"315 861 LINE"
);
}
);
width = 715;
}
);
leftKerningGroup = A;
note = Abrevegrave;
rightKerningGroup = A;
unicode = 1EB0;
},
{
glyphname = Abrevehookabove;
lastChange = "2015-08-01 07:19:48 +0000";
layers = (
{
layerId = "9C7BFC1E-BC2B-47ED-B7E7-0F1FF6E98B93";
name = Bold;
paths = (
{
closed = 1;
nodes = (
"292 0 LINE",
"292 101 LINE",
"250 101 LINE",
"280 193 LINE",
"437 193 LINE",
"465 101 LINE",
"423 101 LINE",
"423 0 LINE",
"693 0 LINE",
"693 101 LINE",
"667 101 LINE SMOOTH",
"633 101 OFFCURVE",
"620 106 OFFCURVE",
"610 136 CURVE SMOOTH",
"435 647 LINE",
"282 647 LINE",
"104 136 LINE SMOOTH",
"93 106 OFFCURVE",
"81 101 OFFCURVE",
"48 101 CURVE SMOOTH",
"21 101 LINE",
"21 0 LINE"
);
},
{
closed = 1;
nodes = (
"360 446 LINE",
"413 274 LINE",
"304 274 LINE"
);
},
{
closed = 1;
nodes = (
"462 698 OFFCURVE",
"547 758 OFFCURVE",
"547 866 CURVE",
"440 866 LINE",
"440 816 OFFCURVE",
"420 785 OFFCURVE",
"359 785 CURVE SMOOTH",
"303 785 OFFCURVE",
"280 816 OFFCURVE",
"280 866 CURVE",
"173 866 LINE",
"173 758 OFFCURVE",
"258 698 OFFCURVE",
"359 698 CURVE SMOOTH"
);
},
{
closed = 1;
nodes = (
"407 852 LINE",
"407 875 LINE",
"439 885 OFFCURVE",
"454 905 OFFCURVE",
"454 936 CURVE SMOOTH",
"454 982 OFFCURVE",
"420 1004 OFFCURVE",
"358 1004 CURVE SMOOTH",
"328 1004 OFFCURVE",
"304 1000 OFFCURVE",
"289 995 CURVE",
"289 935 LINE",
"299 939 OFFCURVE",
"311 942 OFFCURVE",
"323 942 CURVE SMOOTH",
"342 942 OFFCURVE",
"352 934 OFFCURVE",
"352 920 CURVE SMOOTH",
"352 903 OFFCURVE",
"342 893 OFFCURVE",
"309 893 CURVE",
"309 852 LINE"
);
}
);
width = 715;
}
);
leftKerningGroup = A;
note = Abrevehookabove;
rightKerningGroup = A;
unicode = 1EB2;
},
{
glyphname = Abrevetilde;
lastChange = "2015-08-01 07:19:47 +0000";
layers = (
{
layerId = "9C7BFC1E-BC2B-47ED-B7E7-0F1FF6E98B93";
name = Bold;
paths = (
{
closed = 1;
nodes = (
"292 0 LINE",
"292 101 LINE",
"250 101 LINE",
"280 193 LINE",
"437 193 LINE",
"465 101 LINE",
"423 101 LINE",
"423 0 LINE",
"693 0 LINE",
"693 101 LINE",
"667 101 LINE SMOOTH",
"633 101 OFFCURVE",
"620 106 OFFCURVE",
"610 136 CURVE SMOOTH",
"435 647 LINE",
"282 647 LINE",
"104 136 LINE SMOOTH",
"93 106 OFFCURVE",
"81 101 OFFCURVE",
"48 101 CURVE SMOOTH",
"21 101 LINE",
"21 0 LINE"
);
},
{
closed = 1;
nodes = (
"360 446 LINE",
"413 274 LINE",
"304 274 LINE"
);
},
{
closed = 1;
nodes = (
"463 698 OFFCURVE",
"548 758 OFFCURVE",
"548 866 CURVE",
"441 866 LINE",
"441 816 OFFCURVE",
"420 785 OFFCURVE",
"360 785 CURVE SMOOTH",
"304 785 OFFCURVE",
"281 816 OFFCURVE",
"281 866 CURVE",
"174 866 LINE",
"174 758 OFFCURVE",
"259 698 OFFCURVE",
"360 698 CURVE SMOOTH"
);
},
{
closed = 1;
nodes = (
"493 890 OFFCURVE",
"514 925 OFFCURVE",
"514 991 CURVE",
"444 991 LINE",
"444 970 OFFCURVE",
"436 960 OFFCURVE",
"413 960 CURVE SMOOTH",
"382 960 OFFCURVE",
"350 995 OFFCURVE",
"296 995 CURVE SMOOTH",
"233 995 OFFCURVE",
"207 962 OFFCURVE",
"207 893 CURVE",
"277 893 LINE",
"277 916 OFFCURVE",
"287 925 OFFCURVE",
"308 925 CURVE SMOOTH",
"339 925 OFFCURVE",
"384 890 OFFCURVE",
"430 890 CURVE SMOOTH"
);
}
);
width = 715;
}
);
leftKerningGroup = A;
note = Abrevetilde;
rightKerningGroup = A;
unicode = 1EB4;
},
{
glyphname = Acaron;
lastChange = "2015-08-01 07:19:48 +0000";
layers = (
{
layerId = "9C7BFC1E-BC2B-47ED-B7E7-0F1FF6E98B93";
name = Bold;
paths = (
{
closed = 1;
nodes = (
"292 0 LINE",
"292 101 LINE",
"250 101 LINE",
"280 193 LINE",
"437 193 LINE",
"465 101 LINE",
"423 101 LINE",
"423 0 LINE",
"693 0 LINE",
"693 101 LINE",
"667 101 LINE SMOOTH",
"633 101 OFFCURVE",
"620 106 OFFCURVE",
"610 136 CURVE SMOOTH",
"435 647 LINE",
"282 647 LINE",
"104 136 LINE SMOOTH",
"93 106 OFFCURVE",
"81 101 OFFCURVE",
"48 101 CURVE SMOOTH",
"21 101 LINE",
"21 0 LINE"
);
},
{
closed = 1;
nodes = (
"360 446 LINE",
"413 274 LINE",
"304 274 LINE"
);
},
{
closed = 1;
nodes = (
"428 697 LINE",
"563 895 LINE",
"422 895 LINE",
"359 781 LINE",
"295 895 LINE",
"156 895 LINE",
"292 697 LINE"
);
}
);
width = 715;
}
);
leftKerningGroup = A;
note = Acaron;
rightKerningGroup = A;
unicode = 01CD;
},
{
glyphname = Acircumflex;
lastChange = "2015-08-01 07:19:48 +0000";
layers = (
{
layerId = "9C7BFC1E-BC2B-47ED-B7E7-0F1FF6E98B93";
name = Bold;
paths = (
{
closed = 1;
nodes = (
"292 0 LINE",
"292 101 LINE",
"250 101 LINE",
"280 193 LINE",
"437 193 LINE",
"465 101 LINE",
"423 101 LINE",
"423 0 LINE",
"693 0 LINE",
"693 101 LINE",
"667 101 LINE SMOOTH",
"633 101 OFFCURVE",
"620 106 OFFCURVE",
"610 136 CURVE SMOOTH",
"435 647 LINE",
"282 647 LINE",
"104 136 LINE SMOOTH",
"93 106 OFFCURVE",
"81 101 OFFCURVE",
"48 101 CURVE SMOOTH",
"21 101 LINE",
"21 0 LINE"
);
},
{
closed = 1;
nodes = (
"360 446 LINE",
"413 274 LINE",
"304 274 LINE"
);
},
{
closed = 1;
nodes = (
"296 698 LINE",
"360 812 LINE",
"423 698 LINE",
"564 698 LINE",
"429 896 LINE",
"293 896 LINE",
"157 698 LINE"
);
}
);
width = 715;
}
);
leftKerningGroup = A;
note = Acircumflex;
rightKerningGroup = A;
unicode = 00C2;
},
{
glyphname = Acircumflexacute;
lastChange = "2015-08-01 07:19:47 +0000";
layers = (
{
layerId = "9C7BFC1E-BC2B-47ED-B7E7-0F1FF6E98B93";
name = Bold;
paths = (
{
closed = 1;
nodes = (
"292 0 LINE",
"292 101 LINE",
"250 101 LINE",
"280 193 LINE",
"437 193 LINE",
"465 101 LINE",
"423 101 LINE",
"423 0 LINE",
"693 0 LINE",
"693 101 LINE",
"667 101 LINE SMOOTH",
"633 101 OFFCURVE",
"620 106 OFFCURVE",
"610 136 CURVE SMOOTH",
"435 647 LINE",
"282 647 LINE",
"104 136 LINE SMOOTH",
"93 106 OFFCURVE",
"81 101 OFFCURVE",
"48 101 CURVE SMOOTH",
"21 101 LINE",
"21 0 LINE"
);
},
{
closed = 1;
nodes = (
"360 446 LINE",
"413 274 LINE",
"304 274 LINE"
);
},
{
closed = 1;
nodes = (
"309 703 LINE",
"361 774 LINE",
"409 703 LINE",
"540 703 LINE",
"426 844 LINE",
"295 844 LINE",
"181 703 LINE"
);
},
{
closed = 1;
nodes = (
"577 816 LINE",
"679 955 LINE",
"531 955 LINE",
"468 816 LINE"
);
}
);
width = 715;
}
);
leftKerningGroup = A;
note = Acircumflexacute;
rightKerningGroup = A;
unicode = 1EA4;
},
{
glyphname = Acircumflexdotbelow;
lastChange = "2015-08-01 07:19:48 +0000";
layers = (
{
layerId = "9C7BFC1E-BC2B-47ED-B7E7-0F1FF6E98B93";
name = Bold;
paths = (
{
closed = 1;
nodes = (
"292 0 LINE",
"292 101 LINE",
"250 101 LINE",
"280 193 LINE",
"437 193 LINE",
"465 101 LINE",
"423 101 LINE",
"423 0 LINE",
"693 0 LINE",
"693 101 LINE",
"667 101 LINE SMOOTH",
"633 101 OFFCURVE",
"620 106 OFFCURVE",
"610 136 CURVE SMOOTH",
"435 647 LINE",
"282 647 LINE",
"104 136 LINE SMOOTH",
"93 106 OFFCURVE",
"81 101 OFFCURVE",
"48 101 CURVE SMOOTH",
"21 101 LINE",
"21 0 LINE"
);
},
{
closed = 1;
nodes = (
"418 -183 LINE",
"418 -61 LINE",
"302 -61 LINE",
"302 -183 LINE"
);
},
{
closed = 1;
nodes = (
"360 446 LINE",
"413 274 LINE",
"304 274 LINE"
);
},
{
closed = 1;
nodes = (
"296 698 LINE",
"360 812 LINE",
"423 698 LINE",
"564 698 LINE",
"429 896 LINE",
"293 896 LINE",
"157 698 LINE"
);
}
);
width = 715;
}
);
leftKerningGroup = A;
note = Acircumflexdotbelow;
rightKerningGroup = A;
unicode = 1EAC;
},
{
glyphname = Acircumflexgrave;
lastChange = "2015-08-01 07:19:47 +0000";
layers = (
{
layerId = "9C7BFC1E-BC2B-47ED-B7E7-0F1FF6E98B93";
name = Bold;
paths = (
{
closed = 1;
nodes = (
"304 0 LINE",
"304 101 LINE",
"262 101 LINE",
"292 193 LINE",
"449 193 LINE",
"477 101 LINE",
"435 101 LINE",
"435 0 LINE",
"705 0 LINE",
"705 101 LINE",
"679 101 LINE SMOOTH",
"645 101 OFFCURVE",
"632 106 OFFCURVE",
"622 136 CURVE SMOOTH",
"447 647 LINE",
"294 647 LINE",
"116 136 LINE SMOOTH",
"105 106 OFFCURVE",
"93 101 OFFCURVE",
"60 101 CURVE SMOOTH",
"33 101 LINE",
"33 0 LINE"
);
},
{
closed = 1;
nodes = (
"372 446 LINE",
"425 274 LINE",
"316 274 LINE"
);
},
{
closed = 1;
nodes = (
"260 816 LINE",
"197 955 LINE",
"49 955 LINE",
"151 816 LINE"
);
},
{
closed = 1;
nodes = (
"319 703 LINE",
"367 774 LINE",
"419 703 LINE",
"547 703 LINE",
"433 844 LINE",
"302 844 LINE",
"188 703 LINE"
);
}
);
width = 727;
}
);
leftKerningGroup = A;
note = Acircumflexgrave;
rightKerningGroup = A;
unicode = 1EA6;
},
{
glyphname = Acircumflexhookabove;
lastChange = "2015-08-01 07:19:47 +0000";
layers = (
{
layerId = "9C7BFC1E-BC2B-47ED-B7E7-0F1FF6E98B93";
name = Bold;
paths = (
{
closed = 1;
nodes = (
"292 0 LINE",
"292 101 LINE",
"250 101 LINE",
"280 193 LINE",
"437 193 LINE",
"465 101 LINE",
"423 101 LINE",
"423 0 LINE",
"693 0 LINE",
"693 101 LINE",
"667 101 LINE SMOOTH",
"633 101 OFFCURVE",
"620 106 OFFCURVE",
"610 136 CURVE SMOOTH",
"435 647 LINE",
"282 647 LINE",
"104 136 LINE SMOOTH",
"93 106 OFFCURVE",
"81 101 OFFCURVE",
"48 101 CURVE SMOOTH",
"21 101 LINE",
"21 0 LINE"
);
},
{
closed = 1;
nodes = (
"360 446 LINE",
"413 274 LINE",
"304 274 LINE"
);
},
{
closed = 1;
nodes = (
"311 699 LINE",
"359 770 LINE",
"411 699 LINE",
"539 699 LINE",
"425 840 LINE",
"294 840 LINE",
"181 699 LINE"
);
},
{
closed = 1;
nodes = (
"542 836 LINE",
"542 859 LINE",
"574 869 OFFCURVE",
"589 889 OFFCURVE",
"589 920 CURVE SMOOTH",
"589 966 OFFCURVE",
"556 988 OFFCURVE",
"492 988 CURVE SMOOTH",
"463 988 OFFCURVE",
"439 984 OFFCURVE",
"424 979 CURVE",
"424 919 LINE",
"434 923 OFFCURVE",
"446 926 OFFCURVE",
"459 926 CURVE SMOOTH",
"477 926 OFFCURVE",
"488 918 OFFCURVE",
"488 904 CURVE SMOOTH",
"488 887 OFFCURVE",
"478 877 OFFCURVE",
"444 877 CURVE",
"444 836 LINE"
);
}
);
width = 715;
}
);
leftKerningGroup = A;
note = Acircumflexhookabove;
rightKerningGroup = A;
unicode = 1EA8;
},
{
glyphname = Acircumflextilde;
lastChange = "2015-08-01 07:19:48 +0000";
layers = (
{
layerId = "9C7BFC1E-BC2B-47ED-B7E7-0F1FF6E98B93";
name = Bold;
paths = (
{
closed = 1;
nodes = (
"292 0 LINE",
"292 101 LINE",
"250 101 LINE",
"280 193 LINE",
"437 193 LINE",
"465 101 LINE",
"423 101 LINE",
"423 0 LINE",
"693 0 LINE",
"693 101 LINE",
"667 101 LINE SMOOTH",
"633 101 OFFCURVE",
"620 106 OFFCURVE",
"610 136 CURVE SMOOTH",
"435 647 LINE",
"282 647 LINE",
"104 136 LINE SMOOTH",
"93 106 OFFCURVE",
"81 101 OFFCURVE",
"48 101 CURVE SMOOTH",
"21 101 LINE",
"21 0 LINE"
);
},
{
closed = 1;
nodes = (
"360 446 LINE",
"413 274 LINE",
"304 274 LINE"
);
},
{
closed = 1;
nodes = (
"311 699 LINE",
"359 770 LINE",
"411 699 LINE",
"539 699 LINE",
"425 840 LINE",
"294 840 LINE",
"181 699 LINE"
);
},
{
closed = 1;
nodes = (
"493 855 OFFCURVE",
"514 890 OFFCURVE",
"514 956 CURVE",
"444 956 LINE",
"444 935 OFFCURVE",
"435 925 OFFCURVE",
"413 925 CURVE SMOOTH",
"381 925 OFFCURVE",
"349 960 OFFCURVE",
"295 960 CURVE SMOOTH",
"233 960 OFFCURVE",
"206 927 OFFCURVE",
"206 859 CURVE",
"276 859 LINE",
"276 881 OFFCURVE",
"286 890 OFFCURVE",
"307 890 CURVE SMOOTH",
"338 890 OFFCURVE",
"383 855 OFFCURVE",
"430 855 CURVE SMOOTH"
);
}
);
width = 715;
}
);
leftKerningGroup = A;
note = Acircumflextilde;
rightKerningGroup = A;
unicode = 1EAA;
},
{
glyphname = Adieresis;
lastChange = "2015-08-01 07:19:47 +0000";
layers = (
{
layerId = "9C7BFC1E-BC2B-47ED-B7E7-0F1FF6E98B93";
name = Bold;
paths = (
{
closed = 1;
nodes = (
"292 0 LINE",
"292 101 LINE",
"250 101 LINE",
"280 193 LINE",
"437 193 LINE",
"465 101 LINE",
"423 101 LINE",
"423 0 LINE",
"693 0 LINE",
"693 101 LINE",
"667 101 LINE SMOOTH",
"633 101 OFFCURVE",
"620 106 OFFCURVE",
"610 136 CURVE SMOOTH",
"435 647 LINE",
"282 647 LINE",
"104 136 LINE SMOOTH",
"93 106 OFFCURVE",
"81 101 OFFCURVE",
"48 101 CURVE SMOOTH",
"21 101 LINE",
"21 0 LINE"
);
},
{
closed = 1;
nodes = (
"360 446 LINE",
"413 274 LINE",
"304 274 LINE"
);
},
{
closed = 1;
nodes = (
"299 718 LINE",
"299 840 LINE",
"183 840 LINE",
"183 718 LINE"
);
},
{
closed = 1;
nodes = (
"537 718 LINE",
"537 840 LINE",
"420 840 LINE",
"420 718 LINE"
);
}
);
width = 715;
}
);
leftKerningGroup = A;
note = Adieresis;
rightKerningGroup = A;
unicode = 00C4;
},
{
glyphname = Adotbelow;
lastChange = "2015-08-01 07:21:55 +0000";
layers = (
{
layerId = "9C7BFC1E-BC2B-47ED-B7E7-0F1FF6E98B93";
name = Bold;
paths = (
{
closed = 1;
nodes = (
"292 0 LINE",
"292 101 LINE",
"250 101 LINE",
"280 193 LINE",
"437 193 LINE",
"465 101 LINE",
"423 101 LINE",
"423 0 LINE",
"693 0 LINE",
"693 101 LINE",
"667 101 LINE SMOOTH",
"633 101 OFFCURVE",
"620 106 OFFCURVE",
"610 136 CURVE SMOOTH",
"435 647 LINE",
"282 647 LINE",
"104 136 LINE SMOOTH",
"93 106 OFFCURVE",
"81 101 OFFCURVE",
"48 101 CURVE SMOOTH",
"21 101 LINE",
"21 0 LINE"
);
},
{
closed = 1;
nodes = (
"412 -183 LINE",
"412 -61 LINE",
"296 -61 LINE",
"296 -183 LINE"
);
},
{
closed = 1;
nodes = (
"360 446 LINE",
"413 274 LINE",
"304 274 LINE"
);
}
);
width = 715;
}
);
leftKerningGroup = A;
note = Adotbelow;
rightKerningGroup = A;
unicode = 1EA0;
},
{
glyphname = Agrave;
lastChange = "2015-08-01 07:19:49 +0000";
layers = (
{
layerId = "9C7BFC1E-BC2B-47ED-B7E7-0F1FF6E98B93";
name = Bold;
paths = (
{
closed = 1;
nodes = (
"292 0 LINE",
"292 101 LINE",
"250 101 LINE",
"280 193 LINE",
"437 193 LINE",
"465 101 LINE",
"423 101 LINE",
"423 0 LINE",
"693 0 LINE",
"693 101 LINE",
"667 101 LINE SMOOTH",
"633 101 OFFCURVE",
"620 106 OFFCURVE",
"610 136 CURVE SMOOTH",
"435 647 LINE",
"282 647 LINE",
"104 136 LINE SMOOTH",
"93 106 OFFCURVE",
"81 101 OFFCURVE",
"48 101 CURVE SMOOTH",
"21 101 LINE",
"21 0 LINE"
);
},
{
closed = 1;
nodes = (
"360 446 LINE",
"413 274 LINE",
"304 274 LINE"
);
},
{
closed = 1;
nodes = (
"428 699 LINE",
"353 879 LINE",
"181 879 LINE",
"294 699 LINE"
);
}
);
width = 715;
}
);
leftKerningGroup = A;
note = Agrave;
rightKerningGroup = A;
unicode = 00C0;
},
{
glyphname = Ahookabove;
lastChange = "2015-08-01 07:19:47 +0000";
layers = (
{
layerId = "9C7BFC1E-BC2B-47ED-B7E7-0F1FF6E98B93";
name = Bold;
paths = (
{
closed = 1;
nodes = (
"292 0 LINE",
"292 101 LINE",
"250 101 LINE",
"280 193 LINE",
"437 193 LINE",
"465 101 LINE",
"423 101 LINE",
"423 0 LINE",
"693 0 LINE",
"693 101 LINE",
"667 101 LINE SMOOTH",
"633 101 OFFCURVE",
"620 106 OFFCURVE",
"610 136 CURVE SMOOTH",
"435 647 LINE",
"282 647 LINE",
"104 136 LINE SMOOTH",
"93 106 OFFCURVE",
"81 101 OFFCURVE",
"48 101 CURVE SMOOTH",
"21 101 LINE",
"21 0 LINE"
);
},
{
closed = 1;
nodes = (
"360 446 LINE",
"413 274 LINE",
"304 274 LINE"
);
},
{
closed = 1;
nodes = (
"417 695 LINE",
"417 737 LINE",
"457 751 OFFCURVE",
"476 777 OFFCURVE",
"476 818 CURVE SMOOTH",
"476 879 OFFCURVE",
"428 905 OFFCURVE",
"346 905 CURVE SMOOTH",
"308 905 OFFCURVE",
"278 899 OFFCURVE",
"258 892 CURVE",
"258 816 LINE",
"271 822 OFFCURVE",
"287 825 OFFCURVE",
"303 825 CURVE SMOOTH",
"330 825 OFFCURVE",
"341 815 OFFCURVE",
"341 795 CURVE SMOOTH",
"341 776 OFFCURVE",
"330 759 OFFCURVE",
"289 759 CURVE",
"289 695 LINE"
);
}
);
width = 715;
}
);
leftKerningGroup = A;
note = Ahookabove;
rightKerningGroup = A;
unicode = 1EA2;
},
{
glyphname = Amacron;
lastChange = "2015-08-01 07:19:48 +0000";
layers = (
{
layerId = "9C7BFC1E-BC2B-47ED-B7E7-0F1FF6E98B93";
name = Bold;
paths = (
{
closed = 1;
nodes = (
"292 0 LINE",
"292 101 LINE",
"250 101 LINE",
"280 193 LINE",
"437 193 LINE",
"465 101 LINE",
"423 101 LINE",
"423 0 LINE",
"693 0 LINE",
"693 101 LINE",
"667 101 LINE SMOOTH",
"633 101 OFFCURVE",
"620 106 OFFCURVE",
"610 136 CURVE SMOOTH",
"435 647 LINE",
"282 647 LINE",
"104 136 LINE SMOOTH",
"93 106 OFFCURVE",
"81 101 OFFCURVE",
"48 101 CURVE SMOOTH",
"21 101 LINE",
"21 0 LINE"
);
},
{
closed = 1;
nodes = (
"360 446 LINE",
"413 274 LINE",
"304 274 LINE"
);
},
{
closed = 1;
nodes = (
"514 719 LINE",
"514 811 LINE",
"207 811 LINE",
"207 719 LINE"
);
}
);
width = 715;
}
);
leftKerningGroup = A;
note = Amacron;
rightKerningGroup = A;
unicode = 0100;
},
{
glyphname = Aogonek;
lastChange = "2015-08-01 07:19:48 +0000";
layers = (
{
layerId = "9C7BFC1E-BC2B-47ED-B7E7-0F1FF6E98B93";
name = Bold;
paths = (
{
closed = 1;
nodes = (
"292 0 LINE",
"292 101 LINE",
"250 101 LINE",
"280 193 LINE",
"437 193 LINE",
"465 101 LINE",
"423 101 LINE",
"423 0 LINE",
"693 0 LINE",
"693 101 LINE",
"667 101 LINE SMOOTH",
"633 101 OFFCURVE",
"620 106 OFFCURVE",
"610 136 CURVE SMOOTH",
"435 647 LINE",
"282 647 LINE",
"104 136 LINE SMOOTH",
"93 106 OFFCURVE",
"81 101 OFFCURVE",
"48 101 CURVE SMOOTH",
"21 101 LINE",
"21 0 LINE"
);
},
{
closed = 1;
nodes = (
"572 -217 OFFCURVE",
"600 -210 OFFCURVE",
"625 -191 CURVE",
"625 -105 LINE",
"614 -110 OFFCURVE",
"601 -113 OFFCURVE",
"590 -113 CURVE SMOOTH",
"569 -113 OFFCURVE",
"559 -98 OFFCURVE",
"559 -76 CURVE SMOOTH",
"559 -46 OFFCURVE",
"574 -25 OFFCURVE",
"607 0 CURVE",
"478 0 LINE",
"446 -25 OFFCURVE",
"425 -70 OFFCURVE",
"425 -115 CURVE SMOOTH",
"425 -188 OFFCURVE",
"475 -217 OFFCURVE",
"533 -217 CURVE SMOOTH"
);
},
{
closed = 1;
nodes = (
"360 446 LINE",
"413 274 LINE",
"304 274 LINE"
);
}
);
width = 715;
}
);
leftKerningGroup = A;
note = Aogonek;
rightKerningGroup = A;
unicode = 0104;
},
{
glyphname = Aring;
lastChange = "2015-08-01 07:19:47 +0000";
layers = (
{
layerId = "9C7BFC1E-BC2B-47ED-B7E7-0F1FF6E98B93";
name = Bold;
paths = (
{
closed = 1;
nodes = (
"292 0 LINE",
"292 101 LINE",
"250 101 LINE",
"280 193 LINE",
"437 193 LINE",
"465 101 LINE",
"423 101 LINE",
"423 0 LINE",
"693 0 LINE",
"693 101 LINE",
"667 101 LINE SMOOTH",
"633 101 OFFCURVE",
"620 106 OFFCURVE",
"610 136 CURVE SMOOTH",
"435 647 LINE",
"282 647 LINE",
"104 136 LINE SMOOTH",
"93 106 OFFCURVE",
"81 101 OFFCURVE",
"48 101 CURVE SMOOTH",
"21 101 LINE",
"21 0 LINE"
);
},
{
closed = 1;
nodes = (
"360 446 LINE",
"413 274 LINE",
"304 274 LINE"
);
},
{
closed = 1;
nodes = (
"426 599 OFFCURVE",
"479 651 OFFCURVE",
"479 717 CURVE SMOOTH",
"479 783 OFFCURVE",
"426 836 OFFCURVE",
"360 836 CURVE SMOOTH",
"294 836 OFFCURVE",
"241 783 OFFCURVE",
"241 717 CURVE SMOOTH",
"241 651 OFFCURVE",
"294 599 OFFCURVE",
"360 599 CURVE SMOOTH"
);
},
{
closed = 1;
nodes = (
"336 675 OFFCURVE",
"318 694 OFFCURVE",
"318 717 CURVE SMOOTH",
"318 741 OFFCURVE",
"336 760 OFFCURVE",
"360 760 CURVE SMOOTH",
"384 760 OFFCURVE",
"402 741 OFFCURVE",
"402 717 CURVE SMOOTH",
"402 694 OFFCURVE",
"384 675 OFFCURVE",
"360 675 CURVE SMOOTH"
);
}
);
width = 715;
}
);
leftKerningGroup = A;
note = Aring;
rightKerningGroup = A;
unicode = 00C5;
},
{
glyphname = Aringacute;
lastChange = "2015-08-01 07:19:47 +0000";
layers = (
{
layerId = "9C7BFC1E-BC2B-47ED-B7E7-0F1FF6E98B93";
name = Bold;
paths = (
{
closed = 1;
nodes = (
"292 0 LINE",
"292 101 LINE",
"250 101 LINE",
"280 193 LINE",
"437 193 LINE",
"465 101 LINE",
"423 101 LINE",
"423 0 LINE",
"693 0 LINE",
"693 101 LINE",
"667 101 LINE SMOOTH",
"633 101 OFFCURVE",
"620 106 OFFCURVE",
"610 136 CURVE SMOOTH",
"435 647 LINE",
"282 647 LINE",
"104 136 LINE SMOOTH",
"93 106 OFFCURVE",
"81 101 OFFCURVE",
"48 101 CURVE SMOOTH",
"21 101 LINE",
"21 0 LINE"
);
},
{
closed = 1;
nodes = (
"360 446 LINE",
"413 274 LINE",
"304 274 LINE"
);
},
{
closed = 1;
nodes = (
"425 603 OFFCURVE",
"478 655 OFFCURVE",
"478 721 CURVE SMOOTH",
"478 787 OFFCURVE",
"425 840 OFFCURVE",
"359 840 CURVE SMOOTH",
"293 840 OFFCURVE",
"240 787 OFFCURVE",
"240 721 CURVE SMOOTH",
"240 655 OFFCURVE",
"293 603 OFFCURVE",
"359 603 CURVE SMOOTH"
);
},
{
closed = 1;
nodes = (
"335 679 OFFCURVE",
"317 698 OFFCURVE",
"317 721 CURVE SMOOTH",
"317 745 OFFCURVE",
"335 764 OFFCURVE",
"359 764 CURVE SMOOTH",
"383 764 OFFCURVE",
"401 745 OFFCURVE",
"401 721 CURVE SMOOTH",
"401 698 OFFCURVE",
"383 679 OFFCURVE",
"359 679 CURVE SMOOTH"
);
},
{
closed = 1;
nodes = (
"412 867 LINE",
"525 1047 LINE",
"354 1047 LINE",
"279 867 LINE"
);
}
);
width = 715;
}
);
leftKerningGroup = A;
note = Aringacute;
rightKerningGroup = A;
unicode = 01FA;
},
{
glyphname = Atilde;
lastChange = "2015-08-01 07:19:48 +0000";
layers = (
{
layerId = "9C7BFC1E-BC2B-47ED-B7E7-0F1FF6E98B93";
name = Bold;
paths = (
{
closed = 1;
nodes = (
"292 0 LINE",
"292 101 LINE",
"250 101 LINE",
"280 193 LINE",
"437 193 LINE",
"465 101 LINE",
"423 101 LINE",
"423 0 LINE",
"693 0 LINE",
"693 101 LINE",
"667 101 LINE SMOOTH",
"633 101 OFFCURVE",
"620 106 OFFCURVE",
"610 136 CURVE SMOOTH",
"435 647 LINE",
"282 647 LINE",
"104 136 LINE SMOOTH",
"93 106 OFFCURVE",
"81 101 OFFCURVE",
"48 101 CURVE SMOOTH",
"21 101 LINE",
"21 0 LINE"
);
},
{
closed = 1;
nodes = (
"360 446 LINE",
"413 274 LINE",
"304 274 LINE"
);
},
{
closed = 1;
nodes = (
"255 699 LINE",
"255 732 OFFCURVE",
"271 747 OFFCURVE",
"299 747 CURVE SMOOTH",
"344 747 OFFCURVE",
"377 699 OFFCURVE",
"453 699 CURVE SMOOTH",
"541 699 OFFCURVE",
"575 751 OFFCURVE",
"575 867 CURVE",
"467 867 LINE",
"467 834 OFFCURVE",
"453 818 OFFCURVE",
"423 818 CURVE SMOOTH",
"378 818 OFFCURVE",
"346 867 OFFCURVE",
"272 867 CURVE SMOOTH",
"183 867 OFFCURVE",
"146 812 OFFCURVE",
"146 699 CURVE"
);
}
);
width = 715;
}
);
leftKerningGroup = A;
note = Atilde;
rightKerningGroup = A;
unicode = 00C3;
},
{
glyphname = AE;
lastChange = "2015-08-01 07:21:42 +0000";
layers = (
{
layerId = "9C7BFC1E-BC2B-47ED-B7E7-0F1FF6E98B93";
name = Bold;
paths = (
{
closed = 1;
nodes = (
"292 0 LINE",
"292 101 LINE",
"250 101 LINE",
"281 193 LINE",
"374 193 LINE",
"374 140 LINE SMOOTH",
"374 113 OFFCURVE",
"365 101 OFFCURVE",
"337 101 CURVE SMOOTH",
"323 101 LINE",
"323 0 LINE",
"805 0 LINE",
"805 155 LINE",
"662 155 LINE",
"662 140 LINE SMOOTH",
"662 113 OFFCURVE",
"649 101 OFFCURVE",
"622 101 CURVE SMOOTH",
"527 101 LINE",
"527 273 LINE",
"657 273 LINE",
"657 374 LINE",
"527 374 LINE",
"527 546 LINE",
"607 546 LINE SMOOTH",
"644 546 OFFCURVE",
"662 539 OFFCURVE",
"662 508 CURVE SMOOTH",
"662 493 LINE",
"805 493 LINE",
"805 647 LINE",
"286 647 LINE",
"104 136 LINE SMOOTH",
"93 106 OFFCURVE",
"81 101 OFFCURVE",
"48 101 CURVE SMOOTH",
"21 101 LINE",
"21 0 LINE"
);
},
{
closed = 1;
nodes = (
"373 500 LINE",
"373 500 OFFCURVE",
"374 500 OFFCURVE",
"374 500 CURVE",
"374 278 LINE",
"306 278 LINE"
);
}
);
width = 826;
}
);
leftKerningGroup = A;
note = AE;
unicode = 00C6;
},
{
glyphname = AEacute;
lastChange = "2015-08-01 07:21:42 +0000";
layers = (
{
layerId = "9C7BFC1E-BC2B-47ED-B7E7-0F1FF6E98B93";
name = Bold;
paths = (
{
closed = 1;
nodes = (
"292 0 LINE",
"292 101 LINE",
"250 101 LINE",
"281 193 LINE",
"374 193 LINE",
"374 140 LINE SMOOTH",
"374 113 OFFCURVE",
"365 101 OFFCURVE",
"337 101 CURVE SMOOTH",
"323 101 LINE",
"323 0 LINE",
"805 0 LINE",
"805 155 LINE",
"662 155 LINE",
"662 140 LINE SMOOTH",
"662 113 OFFCURVE",
"649 101 OFFCURVE",
"622 101 CURVE SMOOTH",
"527 101 LINE",
"527 273 LINE",
"657 273 LINE",
"657 374 LINE",
"527 374 LINE",
"527 546 LINE",
"607 546 LINE SMOOTH",
"644 546 OFFCURVE",
"662 539 OFFCURVE",
"662 508 CURVE SMOOTH",
"662 493 LINE",
"805 493 LINE",
"805 647 LINE",
"286 647 LINE",
"104 136 LINE SMOOTH",
"93 106 OFFCURVE",
"81 101 OFFCURVE",
"48 101 CURVE SMOOTH",
"21 101 LINE",
"21 0 LINE"
);
},
{
closed = 1;
nodes = (
"373 500 LINE",
"373 500 OFFCURVE",
"374 500 OFFCURVE",
"374 500 CURVE",
"374 278 LINE",
"306 278 LINE"
);
},
{
closed = 1;
nodes = (
"506 699 LINE",
"619 879 LINE",
"448 879 LINE",
"373 699 LINE"
);
}
);
width = 826;
}
);
leftKerningGroup = A;
note = AEacute;
unicode = 01FC;
},
{
glyphname = B;
lastChange = "2015-07-31 16:52:59 +0000";
layers = (
{
layerId = "9C7BFC1E-BC2B-47ED-B7E7-0F1FF6E98B93";
name = Bold;
paths = (
{
closed = 1;
nodes = (
"401 0 LINE SMOOTH",
"512 0 OFFCURVE",
"585 72 OFFCURVE",
"585 182 CURVE SMOOTH",
"585 259 OFFCURVE",
"548 303 OFFCURVE",
"485 329 CURVE",
"542 358 OFFCURVE",
"575 412 OFFCURVE",
"575 471 CURVE SMOOTH",
"575 587 OFFCURVE",
"504 647 OFFCURVE",
"392 647 CURVE SMOOTH",
"21 647 LINE",
"21 546 LINE",
"46 546 LINE SMOOTH",
"74 546 OFFCURVE",
"85 533 OFFCURVE",
"85 509 CURVE SMOOTH",
"85 140 LINE SMOOTH",
"85 113 OFFCURVE",
"74 101 OFFCURVE",
"46 101 CURVE SMOOTH",
"21 101 LINE",
"21 0 LINE"
);
},
{
closed = 1;
nodes = (
"242 272 LINE",
"340 272 LINE SMOOTH",
"389 272 OFFCURVE",
"430 254 OFFCURVE",
"430 188 CURVE SMOOTH",
"430 127 OFFCURVE",
"394 101 OFFCURVE",
"348 101 CURVE SMOOTH",
"242 101 LINE"
);
},
{
closed = 1;
nodes = (
"242 546 LINE",
"338 546 LINE SMOOTH",
"391 546 OFFCURVE",
"419 515 OFFCURVE",
"419 462 CURVE SMOOTH",
"419 402 OFFCURVE",
"381 376 OFFCURVE",
"336 376 CURVE SMOOTH",
"242 376 LINE"
);
}
);
width = 606;
}
);
note = B;
unicode = 0042;
},
{
glyphname = C;
lastChange = "2015-08-01 07:19:49 +0000";
layers = (
{
layerId = "9C7BFC1E-BC2B-47ED-B7E7-0F1FF6E98B93";
name = Bold;
paths = (
{
closed = 1;
nodes = (
"462 -15 OFFCURVE",
"517 -2 OFFCURVE",
"587 46 CURVE",
"533 132 LINE",
"481 99 OFFCURVE",
"435 87 OFFCURVE",
"374 87 CURVE SMOOTH",
"241 87 OFFCURVE",
"176 172 OFFCURVE",
"176 319 CURVE SMOOTH",
"176 469 OFFCURVE",
"236 560 OFFCURVE",
"352 560 CURVE SMOOTH",
"382 560 OFFCURVE",
"404 557 OFFCURVE",
"425 549 CURVE",
"425 475 LINE",
"582 475 LINE",
"582 601 LINE",
"520 643 OFFCURVE",
"454 662 OFFCURVE",
"349 662 CURVE SMOOTH",
"121 662 OFFCURVE",
"21 514 OFFCURVE",
"21 319 CURVE SMOOTH",
"21 124 OFFCURVE",
"136 -15 OFFCURVE",
"366 -15 CURVE SMOOTH"
);
}
);
width = 608;
}
);
leftKerningGroup = C;
note = C;
unicode = 0043;
},
{
glyphname = Cacute;
lastChange = "2015-08-01 07:19:48 +0000";
layers = (
{
layerId = "9C7BFC1E-BC2B-47ED-B7E7-0F1FF6E98B93";
name = Bold;
paths = (
{
closed = 1;
nodes = (
"462 -15 OFFCURVE",
"517 -2 OFFCURVE",
"587 46 CURVE",
"533 132 LINE",
"481 99 OFFCURVE",
"435 87 OFFCURVE",
"374 87 CURVE SMOOTH",
"241 87 OFFCURVE",
"176 172 OFFCURVE",
"176 319 CURVE SMOOTH",
"176 469 OFFCURVE",
"236 560 OFFCURVE",
"352 560 CURVE SMOOTH",
"382 560 OFFCURVE",
"404 557 OFFCURVE",
"425 549 CURVE",
"425 475 LINE",
"582 475 LINE",
"582 601 LINE",
"520 643 OFFCURVE",
"454 662 OFFCURVE",
"349 662 CURVE SMOOTH",
"121 662 OFFCURVE",
"21 514 OFFCURVE",
"21 319 CURVE SMOOTH",
"21 124 OFFCURVE",
"136 -15 OFFCURVE",
"366 -15 CURVE SMOOTH"
);
},
{
closed = 1;
nodes = (
"406 699 LINE",
"519 879 LINE",
"348 879 LINE",
"273 699 LINE"
);
}
);
width = 608;
}
);
leftKerningGroup = C;
note = Cacute;
unicode = 0106;
},
{
glyphname = Ccaron;
lastChange = "2015-08-01 07:19:48 +0000";
layers = (
{
layerId = "9C7BFC1E-BC2B-47ED-B7E7-0F1FF6E98B93";
name = Bold;
paths = (
{
closed = 1;
nodes = (
"462 -15 OFFCURVE",
"517 -2 OFFCURVE",
"587 46 CURVE",
"533 132 LINE",
"481 99 OFFCURVE",
"435 87 OFFCURVE",
"374 87 CURVE SMOOTH",
"241 87 OFFCURVE",
"176 172 OFFCURVE",
"176 319 CURVE SMOOTH",
"176 469 OFFCURVE",
"236 560 OFFCURVE",
"352 560 CURVE SMOOTH",
"382 560 OFFCURVE",
"404 557 OFFCURVE",
"425 549 CURVE",
"425 475 LINE",
"582 475 LINE",
"582 601 LINE",
"520 643 OFFCURVE",
"454 662 OFFCURVE",
"349 662 CURVE SMOOTH",
"121 662 OFFCURVE",
"21 514 OFFCURVE",
"21 319 CURVE SMOOTH",
"21 124 OFFCURVE",
"136 -15 OFFCURVE",
"366 -15 CURVE SMOOTH"
);
},
{
closed = 1;
nodes = (
"416 698 LINE",
"551 896 LINE",
"410 896 LINE",
"347 782 LINE",
"283 896 LINE",
"144 896 LINE",
"280 698 LINE"
);
}
);
width = 608;
}
);
leftKerningGroup = C;
note = Ccaron;
unicode = 010C;
},
{
glyphname = Ccedilla;
lastChange = "2015-08-01 07:19:49 +0000";
layers = (
{
layerId = "9C7BFC1E-BC2B-47ED-B7E7-0F1FF6E98B93";
name = Bold;
paths = (
{
closed = 1;
nodes = (
"451 -228 OFFCURVE",
"497 -187 OFFCURVE",
"497 -123 CURVE SMOOTH",
"497 -75 OFFCURVE",
"473 -47 OFFCURVE",
"423 -36 CURVE",
"427 -13 LINE",
"488 -7 OFFCURVE",
"533 9 OFFCURVE",
"587 46 CURVE",
"533 132 LINE",
"481 99 OFFCURVE",
"435 87 OFFCURVE",
"374 87 CURVE SMOOTH",
"241 87 OFFCURVE",
"176 172 OFFCURVE",
"176 319 CURVE SMOOTH",
"176 469 OFFCURVE",
"236 560 OFFCURVE",
"352 560 CURVE SMOOTH",
"382 560 OFFCURVE",
"404 557 OFFCURVE",
"425 549 CURVE",
"425 475 LINE",
"582 475 LINE",
"582 601 LINE",
"520 643 OFFCURVE",
"454 662 OFFCURVE",
"349 662 CURVE SMOOTH",
"121 662 OFFCURVE",
"21 514 OFFCURVE",
"21 319 CURVE SMOOTH",
"21 157 OFFCURVE",
"100 34 OFFCURVE",
"258 -3 CURVE",
"248 -77 LINE",
"322 -77 OFFCURVE",
"339 -90 OFFCURVE",
"339 -114 CURVE SMOOTH",
"339 -125 OFFCURVE",
"332 -133 OFFCURVE",
"308 -133 CURVE SMOOTH",
"288 -133 OFFCURVE",
"254 -129 OFFCURVE",
"224 -113 CURVE",
"224 -208 LINE",
"259 -224 OFFCURVE",
"289 -228 OFFCURVE",
"331 -228 CURVE SMOOTH"
);
}
);
width = 608;
}
);
leftKerningGroup = C;
note = Ccedilla;
unicode = 00C7;
},
{
glyphname = Ccircumflex;
lastChange = "2015-08-01 07:19:49 +0000";
layers = (
{
layerId = "9C7BFC1E-BC2B-47ED-B7E7-0F1FF6E98B93";
name = Bold;
paths = (
{
closed = 1;
nodes = (
"462 -15 OFFCURVE",
"517 -2 OFFCURVE",
"587 46 CURVE",
"533 132 LINE",
"481 99 OFFCURVE",
"435 87 OFFCURVE",
"374 87 CURVE SMOOTH",
"241 87 OFFCURVE",
"176 172 OFFCURVE",
"176 319 CURVE SMOOTH",
"176 469 OFFCURVE",
"236 560 OFFCURVE",
"352 560 CURVE SMOOTH",
"382 560 OFFCURVE",
"404 557 OFFCURVE",
"425 549 CURVE",
"425 475 LINE",
"582 475 LINE",
"582 601 LINE",
"520 643 OFFCURVE",
"454 662 OFFCURVE",
"349 662 CURVE SMOOTH",
"121 662 OFFCURVE",
"21 514 OFFCURVE",
"21 319 CURVE SMOOTH",
"21 124 OFFCURVE",
"136 -15 OFFCURVE",
"366 -15 CURVE SMOOTH"
);
},
{
closed = 1;
nodes = (
"286 698 LINE",
"350 812 LINE",
"413 698 LINE",
"554 698 LINE",
"419 896 LINE",
"283 896 LINE",
"147 698 LINE"
);
}
);
width = 608;
}
);
leftKerningGroup = C;
note = Ccircumflex;
unicode = 0108;
},
{
glyphname = Cdotaccent;
lastChange = "2015-08-01 07:19:48 +0000";
layers = (
{
layerId = "9C7BFC1E-BC2B-47ED-B7E7-0F1FF6E98B93";
name = Bold;
paths = (
{
closed = 1;
nodes = (
"462 -15 OFFCURVE",
"517 -2 OFFCURVE",
"587 46 CURVE",
"533 132 LINE",
"481 99 OFFCURVE",
"435 87 OFFCURVE",
"374 87 CURVE SMOOTH",
"241 87 OFFCURVE",
"176 172 OFFCURVE",
"176 319 CURVE SMOOTH",
"176 469 OFFCURVE",
"236 560 OFFCURVE",
"352 560 CURVE SMOOTH",
"382 560 OFFCURVE",
"404 557 OFFCURVE",
"425 549 CURVE",
"425 475 LINE",
"582 475 LINE",
"582 601 LINE",
"520 643 OFFCURVE",
"454 662 OFFCURVE",
"349 662 CURVE SMOOTH",
"121 662 OFFCURVE",
"21 514 OFFCURVE",
"21 319 CURVE SMOOTH",
"21 124 OFFCURVE",
"136 -15 OFFCURVE",
"366 -15 CURVE SMOOTH"
);
},
{
closed = 1;
nodes = (
"406 718 LINE",
"406 840 LINE",
"290 840 LINE",
"290 718 LINE"
);
}
);
width = 608;
}
);
leftKerningGroup = C;
note = Cdotaccent;
unicode = 010A;
},
{
glyphname = D;
lastChange = "2015-08-01 07:19:47 +0000";
layers = (
{
layerId = "9C7BFC1E-BC2B-47ED-B7E7-0F1FF6E98B93";
name = Bold;
paths = (
{
closed = 1;
nodes = (
"333 0 LINE SMOOTH",
"523 0 OFFCURVE",
"614 140 OFFCURVE",
"614 321 CURVE SMOOTH",
"614 528 OFFCURVE",
"525 647 OFFCURVE",
"333 647 CURVE SMOOTH",
"21 647 LINE",
"21 546 LINE",
"45 546 LINE SMOOTH",
"73 546 OFFCURVE",
"85 533 OFFCURVE",
"85 509 CURVE SMOOTH",
"85 140 LINE SMOOTH",
"85 113 OFFCURVE",
"73 101 OFFCURVE",
"45 101 CURVE SMOOTH",
"21 101 LINE",
"21 0 LINE"
);
},
{
closed = 1;
nodes = (
"240 546 LINE",
"309 546 LINE SMOOTH",
"424 546 OFFCURVE",
"459 466 OFFCURVE",
"459 321 CURVE SMOOTH",
"459 180 OFFCURVE",
"423 101 OFFCURVE",
"309 101 CURVE SMOOTH",
"240 101 LINE"
);
}
);
width = 635;
}
);
note = D;
rightKerningGroup = D;
unicode = 0044;
},
{
glyphname = Eth;
lastChange = "2015-08-01 07:19:47 +0000";
layers = (
{
layerId = "9C7BFC1E-BC2B-47ED-B7E7-0F1FF6E98B93";
name = Bold;
paths = (
{
closed = 1;
nodes = (
"333 0 LINE SMOOTH",
"523 0 OFFCURVE",
"614 140 OFFCURVE",
"614 321 CURVE SMOOTH",
"614 528 OFFCURVE",
"525 647 OFFCURVE",
"333 647 CURVE SMOOTH",
"21 647 LINE",
"21 546 LINE",
"45 546 LINE SMOOTH",
"73 546 OFFCURVE",
"85 533 OFFCURVE",
"85 509 CURVE SMOOTH",
"85 373 LINE",
"21 373 LINE",
"21 271 LINE",
"85 271 LINE",
"85 140 LINE SMOOTH",
"85 113 OFFCURVE",
"73 101 OFFCURVE",
"45 101 CURVE SMOOTH",
"21 101 LINE",
"21 0 LINE"
);
},
{
closed = 1;
nodes = (
"240 271 LINE",
"355 271 LINE",
"355 373 LINE",
"240 373 LINE",
"240 546 LINE",
"309 546 LINE SMOOTH",
"424 546 OFFCURVE",
"459 466 OFFCURVE",
"459 321 CURVE SMOOTH",
"459 180 OFFCURVE",
"423 101 OFFCURVE",
"309 101 CURVE SMOOTH",
"240 101 LINE"
);
}
);
width = 635;
}
);
note = Eth;
rightKerningGroup = D;
unicode = 00D0;
},
{
glyphname = Dcaron;
lastChange = "2015-08-01 07:19:49 +0000";
layers = (
{
layerId = "9C7BFC1E-BC2B-47ED-B7E7-0F1FF6E98B93";
name = Bold;
paths = (
{
closed = 1;
nodes = (
"333 0 LINE SMOOTH",
"523 0 OFFCURVE",
"614 140 OFFCURVE",
"614 321 CURVE SMOOTH",
"614 528 OFFCURVE",
"525 647 OFFCURVE",
"333 647 CURVE SMOOTH",
"21 647 LINE",
"21 546 LINE",
"45 546 LINE SMOOTH",
"73 546 OFFCURVE",
"85 533 OFFCURVE",
"85 509 CURVE SMOOTH",
"85 140 LINE SMOOTH",
"85 113 OFFCURVE",
"73 101 OFFCURVE",
"45 101 CURVE SMOOTH",
"21 101 LINE",
"21 0 LINE"
);
},
{
closed = 1;
nodes = (
"240 546 LINE",
"309 546 LINE SMOOTH",
"424 546 OFFCURVE",
"459 466 OFFCURVE",
"459 321 CURVE SMOOTH",
"459 180 OFFCURVE",
"423 101 OFFCURVE",
"309 101 CURVE SMOOTH",
"240 101 LINE"
);
},
{
closed = 1;
nodes = (
"358 698 LINE",
"493 896 LINE",
"352 896 LINE",
"289 782 LINE",
"225 896 LINE",
"86 896 LINE",
"222 698 LINE"
);
}
);
width = 635;
}
);
note = Dcaron;
rightKerningGroup = D;
unicode = 010E;
},
{
glyphname = Dcroat;
lastChange = "2015-08-01 07:19:47 +0000";
layers = (
{
layerId = "9C7BFC1E-BC2B-47ED-B7E7-0F1FF6E98B93";
name = Bold;
paths = (
{
closed = 1;
nodes = (
"333 0 LINE SMOOTH",
"523 0 OFFCURVE",
"614 140 OFFCURVE",
"614 321 CURVE SMOOTH",
"614 528 OFFCURVE",
"525 647 OFFCURVE",
"333 647 CURVE SMOOTH",
"21 647 LINE",
"21 546 LINE",
"45 546 LINE SMOOTH",
"73 546 OFFCURVE",
"85 533 OFFCURVE",
"85 509 CURVE SMOOTH",
"85 373 LINE",
"21 373 LINE",
"21 271 LINE",
"85 271 LINE",
"85 140 LINE SMOOTH",
"85 113 OFFCURVE",
"73 101 OFFCURVE",
"45 101 CURVE SMOOTH",
"21 101 LINE",
"21 0 LINE"
);
},
{
closed = 1;
nodes = (
"240 271 LINE",
"355 271 LINE",
"355 373 LINE",
"240 373 LINE",
"240 546 LINE",
"309 546 LINE SMOOTH",
"424 546 OFFCURVE",
"459 466 OFFCURVE",
"459 321 CURVE SMOOTH",
"459 180 OFFCURVE",
"423 101 OFFCURVE",
"309 101 CURVE SMOOTH",
"240 101 LINE"
);
}
);
width = 635;
}
);
note = Dcroat;
rightKerningGroup = D;
unicode = 0110;
},
{
glyphname = Ddotbelow;
lastChange = "2015-08-01 07:19:48 +0000";
layers = (
{
layerId = "9C7BFC1E-BC2B-47ED-B7E7-0F1FF6E98B93";
name = Bold;
paths = (
{
closed = 1;
nodes = (
"333 0 LINE SMOOTH",
"523 0 OFFCURVE",
"614 140 OFFCURVE",
"614 321 CURVE SMOOTH",
"614 528 OFFCURVE",
"525 647 OFFCURVE",
"333 647 CURVE SMOOTH",
"21 647 LINE",
"21 546 LINE",
"45 546 LINE SMOOTH",
"73 546 OFFCURVE",
"85 533 OFFCURVE",
"85 509 CURVE SMOOTH",
"85 140 LINE SMOOTH",
"85 113 OFFCURVE",
"73 101 OFFCURVE",
"45 101 CURVE SMOOTH",
"21 101 LINE",
"21 0 LINE"
);
},
{
closed = 1;
nodes = (
"329 -183 LINE",
"329 -61 LINE",
"213 -61 LINE",
"213 -183 LINE"
);
},
{
closed = 1;
nodes = (
"240 546 LINE",
"309 546 LINE SMOOTH",
"424 546 OFFCURVE",
"459 466 OFFCURVE",
"459 321 CURVE SMOOTH",
"459 180 OFFCURVE",
"423 101 OFFCURVE",
"309 101 CURVE SMOOTH",
"240 101 LINE"
);
}
);
width = 635;
}
);
note = Ddotbelow;
rightKerningGroup = D;
unicode = 1E0C;
},
{
glyphname = Dlinebelow;
lastChange = "2015-08-01 07:19:48 +0000";
layers = (
{
layerId = "9C7BFC1E-BC2B-47ED-B7E7-0F1FF6E98B93";
name = Bold;
paths = (
{
closed = 1;
nodes = (
"333 0 LINE SMOOTH",
"523 0 OFFCURVE",
"614 140 OFFCURVE",
"614 321 CURVE SMOOTH",
"614 528 OFFCURVE",
"525 647 OFFCURVE",
"333 647 CURVE SMOOTH",
"21 647 LINE",
"21 546 LINE",
"45 546 LINE SMOOTH",
"73 546 OFFCURVE",
"85 533 OFFCURVE",
"85 509 CURVE SMOOTH",
"85 140 LINE SMOOTH",
"85 113 OFFCURVE",
"73 101 OFFCURVE",
"45 101 CURVE SMOOTH",
"21 101 LINE",
"21 0 LINE"
);
},
{
closed = 1;
nodes = (
"425 -143 LINE",
"425 -51 LINE",
"118 -51 LINE",
"118 -143 LINE"
);
},
{
closed = 1;
nodes = (
"240 546 LINE",
"309 546 LINE SMOOTH",
"424 546 OFFCURVE",
"459 466 OFFCURVE",
"459 321 CURVE SMOOTH",
"459 180 OFFCURVE",
"423 101 OFFCURVE",
"309 101 CURVE SMOOTH",
"240 101 LINE"
);
}
);
width = 635;
}
);
note = Dlinebelow;
rightKerningGroup = D;
unicode = 1E0E;
},
{
glyphname = E;
lastChange = "2015-07-31 16:52:57 +0000";
layers = (
{
layerId = "9C7BFC1E-BC2B-47ED-B7E7-0F1FF6E98B93";
name = Bold;
paths = (
{
closed = 1;
nodes = (
"526 0 LINE",
"526 155 LINE",
"383 155 LINE",
"383 140 LINE SMOOTH",
"383 113 OFFCURVE",
"370 101 OFFCURVE",
"343 101 CURVE SMOOTH",
"242 101 LINE",
"242 273 LINE",
"378 273 LINE",
"378 374 LINE",
"242 374 LINE",
"242 546 LINE",
"343 546 LINE SMOOTH",
"370 546 OFFCURVE",
"383 534 OFFCURVE",
"383 508 CURVE SMOOTH",
"383 493 LINE",
"526 493 LINE",
"526 647 LINE",
"21 647 LINE",
"21 546 LINE",
"45 546 LINE SMOOTH",
"73 546 OFFCURVE",
"85 533 OFFCURVE",
"85 509 CURVE SMOOTH",
"85 140 LINE SMOOTH",
"85 113 OFFCURVE",
"73 101 OFFCURVE",
"45 101 CURVE SMOOTH",
"21 101 LINE",
"21 0 LINE"
);
}
);
width = 547;
}
);
note = E;
unicode = 0045;
},
{
glyphname = Eacute;
lastChange = "2015-07-31 16:52:58 +0000";
layers = (
{
layerId = "9C7BFC1E-BC2B-47ED-B7E7-0F1FF6E98B93";
name = Bold;
paths = (
{
closed = 1;
nodes = (
"526 0 LINE",
"526 155 LINE",
"383 155 LINE",
"383 140 LINE SMOOTH",
"383 113 OFFCURVE",
"370 101 OFFCURVE",
"343 101 CURVE SMOOTH",
"242 101 LINE",
"242 273 LINE",
"378 273 LINE",
"378 374 LINE",
"242 374 LINE",
"242 546 LINE",
"343 546 LINE SMOOTH",
"370 546 OFFCURVE",
"383 534 OFFCURVE",
"383 508 CURVE SMOOTH",
"383 493 LINE",
"526 493 LINE",
"526 647 LINE",
"21 647 LINE",
"21 546 LINE",
"45 546 LINE SMOOTH",
"73 546 OFFCURVE",
"85 533 OFFCURVE",
"85 509 CURVE SMOOTH",
"85 140 LINE SMOOTH",
"85 113 OFFCURVE",
"73 101 OFFCURVE",
"45 101 CURVE SMOOTH",
"21 101 LINE",
"21 0 LINE"
);
},
{
closed = 1;
nodes = (
"316 699 LINE",
"429 879 LINE",
"258 879 LINE",
"183 699 LINE"
);
}
);
width = 547;
}
);
note = Eacute;
unicode = 00C9;
},
{
glyphname = Ebreve;
lastChange = "2015-07-31 16:52:59 +0000";
layers = (
{
layerId = "9C7BFC1E-BC2B-47ED-B7E7-0F1FF6E98B93";
name = Bold;
paths = (
{
closed = 1;
nodes = (
"526 0 LINE",
"526 155 LINE",
"383 155 LINE",
"383 140 LINE SMOOTH",
"383 113 OFFCURVE",
"370 101 OFFCURVE",
"343 101 CURVE SMOOTH",
"242 101 LINE",
"242 273 LINE",
"378 273 LINE",
"378 374 LINE",
"242 374 LINE",
"242 546 LINE",
"343 546 LINE SMOOTH",
"370 546 OFFCURVE",
"383 534 OFFCURVE",
"383 508 CURVE SMOOTH",
"383 493 LINE",
"526 493 LINE",
"526 647 LINE",
"21 647 LINE",
"21 546 LINE",
"45 546 LINE SMOOTH",
"73 546 OFFCURVE",
"85 533 OFFCURVE",
"85 509 CURVE SMOOTH",
"85 140 LINE SMOOTH",
"85 113 OFFCURVE",
"73 101 OFFCURVE",
"45 101 CURVE SMOOTH",
"21 101 LINE",
"21 0 LINE"
);
},
{
closed = 1;
nodes = (
"390 698 OFFCURVE",
"454 760 OFFCURVE",
"454 854 CURVE",
"324 854 LINE",
"324 815 OFFCURVE",
"313 791 OFFCURVE",
"276 791 CURVE SMOOTH",
"243 791 OFFCURVE",
"228 815 OFFCURVE",
"228 854 CURVE",
"98 854 LINE",
"98 760 OFFCURVE",
"162 698 OFFCURVE",
"276 698 CURVE SMOOTH"
);
}
);
width = 547;
}
);
note = Ebreve;
unicode = 0114;
},
{
glyphname = Ecaron;
lastChange = "2015-07-31 16:52:59 +0000";
layers = (
{
layerId = "9C7BFC1E-BC2B-47ED-B7E7-0F1FF6E98B93";
name = Bold;
paths = (
{
closed = 1;
nodes = (
"526 0 LINE",
"526 155 LINE",
"383 155 LINE",
"383 140 LINE SMOOTH",
"383 113 OFFCURVE",
"370 101 OFFCURVE",
"343 101 CURVE SMOOTH",
"242 101 LINE",
"242 273 LINE",
"378 273 LINE",
"378 374 LINE",
"242 374 LINE",
"242 546 LINE",
"343 546 LINE SMOOTH",
"370 546 OFFCURVE",
"383 534 OFFCURVE",
"383 508 CURVE SMOOTH",
"383 493 LINE",
"526 493 LINE",
"526 647 LINE",
"21 647 LINE",
"21 546 LINE",
"45 546 LINE SMOOTH",
"73 546 OFFCURVE",
"85 533 OFFCURVE",
"85 509 CURVE SMOOTH",
"85 140 LINE SMOOTH",
"85 113 OFFCURVE",
"73 101 OFFCURVE",
"45 101 CURVE SMOOTH",
"21 101 LINE",
"21 0 LINE"
);
},
{
closed = 1;
nodes = (
"343 698 LINE",
"478 896 LINE",
"337 896 LINE",
"274 782 LINE",
"210 896 LINE",
"71 896 LINE",
"207 698 LINE"
);
}
);
width = 547;
}
);
note = Ecaron;
unicode = 011A;
},
{
glyphname = Ecircumflex;
lastChange = "2015-07-31 16:52:58 +0000";
layers = (
{
layerId = "9C7BFC1E-BC2B-47ED-B7E7-0F1FF6E98B93";
name = Bold;
paths = (
{
closed = 1;
nodes = (
"526 0 LINE",
"526 155 LINE",
"383 155 LINE",
"383 140 LINE SMOOTH",
"383 113 OFFCURVE",
"370 101 OFFCURVE",
"343 101 CURVE SMOOTH",
"242 101 LINE",
"242 273 LINE",
"378 273 LINE",
"378 374 LINE",
"242 374 LINE",
"242 546 LINE",
"343 546 LINE SMOOTH",
"370 546 OFFCURVE",
"383 534 OFFCURVE",
"383 508 CURVE SMOOTH",
"383 493 LINE",
"526 493 LINE",
"526 647 LINE",
"21 647 LINE",
"21 546 LINE",
"45 546 LINE SMOOTH",
"73 546 OFFCURVE",
"85 533 OFFCURVE",
"85 509 CURVE SMOOTH",
"85 140 LINE SMOOTH",
"85 113 OFFCURVE",
"73 101 OFFCURVE",
"45 101 CURVE SMOOTH",
"21 101 LINE",
"21 0 LINE"
);
},
{
closed = 1;
nodes = (
"196 698 LINE",
"260 812 LINE",
"323 698 LINE",
"464 698 LINE",
"329 896 LINE",
"193 896 LINE",
"57 698 LINE"
);
}
);
width = 547;
}
);
note = Ecircumflex;
unicode = 00CA;
},
{
glyphname = Ecircumflexacute;
lastChange = "2015-07-31 16:52:59 +0000";
layers = (
{
layerId = "9C7BFC1E-BC2B-47ED-B7E7-0F1FF6E98B93";
name = Bold;
paths = (
{
closed = 1;
nodes = (
"526 0 LINE",
"526 155 LINE",
"383 155 LINE",
"383 140 LINE SMOOTH",
"383 113 OFFCURVE",
"370 101 OFFCURVE",
"343 101 CURVE SMOOTH",
"242 101 LINE",
"242 273 LINE",
"378 273 LINE",
"378 374 LINE",
"242 374 LINE",
"242 546 LINE",
"343 546 LINE SMOOTH",
"370 546 OFFCURVE",
"383 534 OFFCURVE",
"383 508 CURVE SMOOTH",
"383 493 LINE",
"526 493 LINE",
"526 647 LINE",
"21 647 LINE",
"21 546 LINE",
"45 546 LINE SMOOTH",
"73 546 OFFCURVE",
"85 533 OFFCURVE",
"85 509 CURVE SMOOTH",
"85 140 LINE SMOOTH",
"85 113 OFFCURVE",
"73 101 OFFCURVE",
"45 101 CURVE SMOOTH",
"21 101 LINE",
"21 0 LINE"
);
},
{
closed = 1;
nodes = (
"212 699 LINE",
"264 770 LINE",
"312 699 LINE",
"443 699 LINE",
"329 840 LINE",
"198 840 LINE",
"84 699 LINE"
);
},
{
closed = 1;
nodes = (
"480 812 LINE",
"582 951 LINE",
"434 951 LINE",
"371 812 LINE"
);
}
);
width = 598;
}
);
note = Ecircumflexacute;
unicode = 1EBE;
},
{
glyphname = Ecircumflexdotbelow;
lastChange = "2015-07-31 16:52:58 +0000";
layers = (
{
layerId = "9C7BFC1E-BC2B-47ED-B7E7-0F1FF6E98B93";
name = Bold;
paths = (
{
closed = 1;
nodes = (
"526 0 LINE",
"526 155 LINE",
"383 155 LINE",
"383 140 LINE SMOOTH",
"383 113 OFFCURVE",
"370 101 OFFCURVE",
"343 101 CURVE SMOOTH",
"242 101 LINE",
"242 273 LINE",
"378 273 LINE",
"378 374 LINE",
"242 374 LINE",
"242 546 LINE",
"343 546 LINE SMOOTH",
"370 546 OFFCURVE",
"383 534 OFFCURVE",
"383 508 CURVE SMOOTH",
"383 493 LINE",
"526 493 LINE",
"526 647 LINE",
"21 647 LINE",
"21 546 LINE",
"45 546 LINE SMOOTH",
"73 546 OFFCURVE",
"85 533 OFFCURVE",
"85 509 CURVE SMOOTH",
"85 140 LINE SMOOTH",
"85 113 OFFCURVE",
"73 101 OFFCURVE",
"45 101 CURVE SMOOTH",
"21 101 LINE",
"21 0 LINE"
);
},
{
closed = 1;
nodes = (
"337 -183 LINE",
"337 -61 LINE",
"221 -61 LINE",
"221 -183 LINE"
);
},
{
closed = 1;
nodes = (
"212 698 LINE",
"276 812 LINE",
"339 698 LINE",
"480 698 LINE",
"345 896 LINE",
"209 896 LINE",
"73 698 LINE"
);
}
);
width = 547;
}
);
note = Ecircumflexdotbelow;
unicode = 1EC6;
},
{
glyphname = Ecircumflexgrave;
lastChange = "2015-07-31 16:52:58 +0000";
layers = (
{
layerId = "9C7BFC1E-BC2B-47ED-B7E7-0F1FF6E98B93";
name = Bold;
paths = (
{
closed = 1;
nodes = (
"597 0 LINE",
"597 155 LINE",
"454 155 LINE",
"454 140 LINE SMOOTH",
"454 113 OFFCURVE",
"441 101 OFFCURVE",
"414 101 CURVE SMOOTH",
"313 101 LINE",
"313 273 LINE",
"449 273 LINE",
"449 374 LINE",
"313 374 LINE",
"313 546 LINE",
"414 546 LINE SMOOTH",
"441 546 OFFCURVE",
"454 534 OFFCURVE",
"454 508 CURVE SMOOTH",
"454 493 LINE",
"597 493 LINE",
"597 647 LINE",
"92 647 LINE",
"92 546 LINE",
"116 546 LINE SMOOTH",
"144 546 OFFCURVE",
"156 533 OFFCURVE",
"156 509 CURVE SMOOTH",
"156 140 LINE SMOOTH",
"156 113 OFFCURVE",
"144 101 OFFCURVE",
"116 101 CURVE SMOOTH",
"92 101 LINE",
"92 0 LINE"
);
},
{
closed = 1;
nodes = (
"237 812 LINE",
"174 951 LINE",
"26 951 LINE",
"128 812 LINE"
);
},
{
closed = 1;
nodes = (
"296 699 LINE",
"344 770 LINE",
"396 699 LINE",
"524 699 LINE",
"410 840 LINE",
"279 840 LINE",
"165 699 LINE"
);
}
);
width = 618;
}
);
note = Ecircumflexgrave;
unicode = 1EC0;
},
{
glyphname = Ecircumflexhookabove;
lastChange = "2015-07-31 16:52:58 +0000";
layers = (
{
layerId = "9C7BFC1E-BC2B-47ED-B7E7-0F1FF6E98B93";
name = Bold;
paths = (
{
closed = 1;
nodes = (
"526 0 LINE",
"526 155 LINE",
"383 155 LINE",
"383 140 LINE SMOOTH",
"383 113 OFFCURVE",
"370 101 OFFCURVE",
"343 101 CURVE SMOOTH",
"242 101 LINE",
"242 273 LINE",
"378 273 LINE",
"378 374 LINE",
"242 374 LINE",
"242 546 LINE",
"343 546 LINE SMOOTH",
"370 546 OFFCURVE",
"383 534 OFFCURVE",
"383 508 CURVE SMOOTH",
"383 493 LINE",
"526 493 LINE",
"526 647 LINE",
"21 647 LINE",
"21 546 LINE",
"45 546 LINE SMOOTH",
"73 546 OFFCURVE",
"85 533 OFFCURVE",
"85 509 CURVE SMOOTH",
"85 140 LINE SMOOTH",
"85 113 OFFCURVE",
"73 101 OFFCURVE",
"45 101 CURVE SMOOTH",
"21 101 LINE",
"21 0 LINE"
);
},
{
closed = 1;
nodes = (
"212 699 LINE",
"260 770 LINE",
"312 699 LINE",
"440 699 LINE",
"326 840 LINE",
"195 840 LINE",
"82 699 LINE"
);
},
{
closed = 1;
nodes = (
"443 836 LINE",
"443 859 LINE",
"475 869 OFFCURVE",
"490 889 OFFCURVE",
"490 920 CURVE SMOOTH",
"490 966 OFFCURVE",
"457 988 OFFCURVE",
"393 988 CURVE SMOOTH",
"364 988 OFFCURVE",
"340 984 OFFCURVE",
"325 979 CURVE",
"325 919 LINE",
"335 923 OFFCURVE",
"347 926 OFFCURVE",
"360 926 CURVE SMOOTH",
"378 926 OFFCURVE",
"389 918 OFFCURVE",
"389 904 CURVE SMOOTH",
"389 887 OFFCURVE",
"379 877 OFFCURVE",
"345 877 CURVE",
"345 836 LINE"
);
}
);
width = 547;
}
);
note = Ecircumflexhookabove;
unicode = 1EC2;
},
{
glyphname = Ecircumflextilde;
lastChange = "2015-07-31 16:52:59 +0000";
layers = (
{
layerId = "9C7BFC1E-BC2B-47ED-B7E7-0F1FF6E98B93";
name = Bold;
paths = (
{
closed = 1;
nodes = (
"526 0 LINE",
"526 155 LINE",
"383 155 LINE",
"383 140 LINE SMOOTH",
"383 113 OFFCURVE",
"370 101 OFFCURVE",
"343 101 CURVE SMOOTH",
"242 101 LINE",
"242 273 LINE",
"378 273 LINE",
"378 374 LINE",
"242 374 LINE",
"242 546 LINE",
"343 546 LINE SMOOTH",
"370 546 OFFCURVE",
"383 534 OFFCURVE",
"383 508 CURVE SMOOTH",
"383 493 LINE",
"526 493 LINE",
"526 647 LINE",
"21 647 LINE",
"21 546 LINE",
"45 546 LINE SMOOTH",
"73 546 OFFCURVE",
"85 533 OFFCURVE",
"85 509 CURVE SMOOTH",
"85 140 LINE SMOOTH",
"85 113 OFFCURVE",
"73 101 OFFCURVE",
"45 101 CURVE SMOOTH",
"21 101 LINE",
"21 0 LINE"
);
},
{
closed = 1;
nodes = (
"221 699 LINE",
"269 770 LINE",
"321 699 LINE",
"449 699 LINE",
"335 840 LINE",
"204 840 LINE",
"91 699 LINE"
);
},
{
closed = 1;
nodes = (
"403 855 OFFCURVE",
"424 890 OFFCURVE",
"424 956 CURVE",
"354 956 LINE",
"354 935 OFFCURVE",
"345 925 OFFCURVE",
"323 925 CURVE SMOOTH",
"291 925 OFFCURVE",
"259 960 OFFCURVE",
"205 960 CURVE SMOOTH",
"143 960 OFFCURVE",
"116 927 OFFCURVE",
"116 859 CURVE",
"186 859 LINE",
"186 881 OFFCURVE",
"196 890 OFFCURVE",
"217 890 CURVE SMOOTH",
"248 890 OFFCURVE",
"293 855 OFFCURVE",
"340 855 CURVE SMOOTH"
);
}
);
width = 547;
}
);
note = Ecircumflextilde;
unicode = 1EC4;
},
{
glyphname = Edieresis;
lastChange = "2015-07-31 16:52:59 +0000";
layers = (
{
layerId = "9C7BFC1E-BC2B-47ED-B7E7-0F1FF6E98B93";
name = Bold;
paths = (
{
closed = 1;
nodes = (
"526 0 LINE",
"526 155 LINE",
"383 155 LINE",
"383 140 LINE SMOOTH",
"383 113 OFFCURVE",
"370 101 OFFCURVE",
"343 101 CURVE SMOOTH",
"242 101 LINE",
"242 273 LINE",
"378 273 LINE",
"378 374 LINE",
"242 374 LINE",
"242 546 LINE",
"343 546 LINE SMOOTH",
"370 546 OFFCURVE",
"383 534 OFFCURVE",
"383 508 CURVE SMOOTH",
"383 493 LINE",
"526 493 LINE",
"526 647 LINE",
"21 647 LINE",
"21 546 LINE",
"45 546 LINE SMOOTH",
"73 546 OFFCURVE",
"85 533 OFFCURVE",
"85 509 CURVE SMOOTH",
"85 140 LINE SMOOTH",
"85 113 OFFCURVE",
"73 101 OFFCURVE",
"45 101 CURVE SMOOTH",
"21 101 LINE",
"21 0 LINE"
);
},
{
closed = 1;
nodes = (
"205 718 LINE",
"205 840 LINE",
"89 840 LINE",
"89 718 LINE"
);
},
{
closed = 1;
nodes = (
"443 718 LINE",
"443 840 LINE",
"326 840 LINE",
"326 718 LINE"
);
}
);
width = 547;
}
);
note = Edieresis;
unicode = 00CB;
},
{
glyphname = Edotaccent;
lastChange = "2015-07-31 16:52:58 +0000";
layers = (
{
layerId = "9C7BFC1E-BC2B-47ED-B7E7-0F1FF6E98B93";
name = Bold;
paths = (
{
closed = 1;
nodes = (
"526 0 LINE",
"526 155 LINE",
"383 155 LINE",
"383 140 LINE SMOOTH",
"383 113 OFFCURVE",
"370 101 OFFCURVE",
"343 101 CURVE SMOOTH",
"242 101 LINE",
"242 273 LINE",
"378 273 LINE",
"378 374 LINE",
"242 374 LINE",
"242 546 LINE",
"343 546 LINE SMOOTH",
"370 546 OFFCURVE",
"383 534 OFFCURVE",
"383 508 CURVE SMOOTH",
"383 493 LINE",
"526 493 LINE",
"526 647 LINE",
"21 647 LINE",
"21 546 LINE",
"45 546 LINE SMOOTH",
"73 546 OFFCURVE",
"85 533 OFFCURVE",
"85 509 CURVE SMOOTH",
"85 140 LINE SMOOTH",
"85 113 OFFCURVE",
"73 101 OFFCURVE",
"45 101 CURVE SMOOTH",
"21 101 LINE",
"21 0 LINE"
);
},
{
closed = 1;
nodes = (
"324 718 LINE",
"324 840 LINE",
"208 840 LINE",
"208 718 LINE"
);
}
);
width = 547;
}
);
note = Edotaccent;
unicode = 0116;
},
{
glyphname = Edotbelow;
lastChange = "2015-07-31 16:52:59 +0000";
layers = (
{
layerId = "9C7BFC1E-BC2B-47ED-B7E7-0F1FF6E98B93";
name = Bold;
paths = (
{
closed = 1;
nodes = (
"526 0 LINE",
"526 155 LINE",
"383 155 LINE",
"383 140 LINE SMOOTH",
"383 113 OFFCURVE",
"370 101 OFFCURVE",
"343 101 CURVE SMOOTH",
"242 101 LINE",
"242 273 LINE",
"378 273 LINE",
"378 374 LINE",
"242 374 LINE",
"242 546 LINE",
"343 546 LINE SMOOTH",
"370 546 OFFCURVE",
"383 534 OFFCURVE",
"383 508 CURVE SMOOTH",
"383 493 LINE",
"526 493 LINE",
"526 647 LINE",
"21 647 LINE",
"21 546 LINE",
"45 546 LINE SMOOTH",
"73 546 OFFCURVE",
"85 533 OFFCURVE",
"85 509 CURVE SMOOTH",
"85 140 LINE SMOOTH",
"85 113 OFFCURVE",
"73 101 OFFCURVE",
"45 101 CURVE SMOOTH",
"21 101 LINE",
"21 0 LINE"
);
},
{
closed = 1;
nodes = (
"310 -183 LINE",
"310 -61 LINE",
"194 -61 LINE",
"194 -183 LINE"
);
}
);
width = 547;
}
);
note = Edotbelow;
unicode = 1EB8;
},
{
glyphname = Egrave;
lastChange = "2015-07-31 16:52:58 +0000";
layers = (
{
layerId = "9C7BFC1E-BC2B-47ED-B7E7-0F1FF6E98B93";
name = Bold;
paths = (
{
closed = 1;
nodes = (
"526 0 LINE",
"526 155 LINE",
"383 155 LINE",
"383 140 LINE SMOOTH",
"383 113 OFFCURVE",
"370 101 OFFCURVE",
"343 101 CURVE SMOOTH",
"242 101 LINE",
"242 273 LINE",
"378 273 LINE",
"378 374 LINE",
"242 374 LINE",
"242 546 LINE",
"343 546 LINE SMOOTH",
"370 546 OFFCURVE",
"383 534 OFFCURVE",
"383 508 CURVE SMOOTH",
"383 493 LINE",
"526 493 LINE",
"526 647 LINE",
"21 647 LINE",
"21 546 LINE",
"45 546 LINE SMOOTH",
"73 546 OFFCURVE",
"85 533 OFFCURVE",
"85 509 CURVE SMOOTH",
"85 140 LINE SMOOTH",
"85 113 OFFCURVE",
"73 101 OFFCURVE",
"45 101 CURVE SMOOTH",
"21 101 LINE",
"21 0 LINE"
);
},
{
closed = 1;
nodes = (
"355 699 LINE",
"280 879 LINE",
"108 879 LINE",
"221 699 LINE"
);
}
);
width = 547;
}
);
note = Egrave;
unicode = 00C8;
},
{
glyphname = Ehookabove;
lastChange = "2015-07-31 16:52:59 +0000";
layers = (
{
layerId = "9C7BFC1E-BC2B-47ED-B7E7-0F1FF6E98B93";
name = Bold;
paths = (
{
closed = 1;
nodes = (
"526 0 LINE",
"526 155 LINE",
"383 155 LINE",
"383 140 LINE SMOOTH",
"383 113 OFFCURVE",
"370 101 OFFCURVE",
"343 101 CURVE SMOOTH",
"242 101 LINE",
"242 273 LINE",
"378 273 LINE",
"378 374 LINE",
"242 374 LINE",
"242 546 LINE",
"343 546 LINE SMOOTH",
"370 546 OFFCURVE",
"383 534 OFFCURVE",
"383 508 CURVE SMOOTH",
"383 493 LINE",
"526 493 LINE",
"526 647 LINE",
"21 647 LINE",
"21 546 LINE",
"45 546 LINE SMOOTH",
"73 546 OFFCURVE",
"85 533 OFFCURVE",
"85 509 CURVE SMOOTH",
"85 140 LINE SMOOTH",
"85 113 OFFCURVE",
"73 101 OFFCURVE",
"45 101 CURVE SMOOTH",
"21 101 LINE",
"21 0 LINE"
);
},
{
closed = 1;
nodes = (
"338 699 LINE",
"338 741 LINE",
"378 755 OFFCURVE",
"397 781 OFFCURVE",
"397 822 CURVE SMOOTH",
"397 883 OFFCURVE",
"349 909 OFFCURVE",
"267 909 CURVE SMOOTH",
"229 909 OFFCURVE",
"199 903 OFFCURVE",
"179 896 CURVE",
"179 820 LINE",
"192 826 OFFCURVE",
"208 829 OFFCURVE",
"224 829 CURVE SMOOTH",
"251 829 OFFCURVE",
"262 819 OFFCURVE",
"262 799 CURVE SMOOTH",
"262 780 OFFCURVE",
"251 763 OFFCURVE",
"210 763 CURVE",
"210 699 LINE"
);
}
);
width = 547;
}
);
note = Ehookabove;
unicode = 1EBA;
},
{
glyphname = Emacron;
lastChange = "2015-07-31 16:52:59 +0000";
layers = (
{
layerId = "9C7BFC1E-BC2B-47ED-B7E7-0F1FF6E98B93";
name = Bold;
paths = (
{
closed = 1;
nodes = (
"526 0 LINE",
"526 155 LINE",
"383 155 LINE",
"383 140 LINE SMOOTH",
"383 113 OFFCURVE",
"370 101 OFFCURVE",
"343 101 CURVE SMOOTH",
"242 101 LINE",
"242 273 LINE",
"378 273 LINE",
"378 374 LINE",
"242 374 LINE",
"242 546 LINE",
"343 546 LINE SMOOTH",
"370 546 OFFCURVE",
"383 534 OFFCURVE",
"383 508 CURVE SMOOTH",
"383 493 LINE",
"526 493 LINE",
"526 647 LINE",
"21 647 LINE",
"21 546 LINE",
"45 546 LINE SMOOTH",
"73 546 OFFCURVE",
"85 533 OFFCURVE",
"85 509 CURVE SMOOTH",
"85 140 LINE SMOOTH",
"85 113 OFFCURVE",
"73 101 OFFCURVE",
"45 101 CURVE SMOOTH",
"21 101 LINE",
"21 0 LINE"
);
},
{
closed = 1;
nodes = (
"437 719 LINE",
"437 811 LINE",
"130 811 LINE",
"130 719 LINE"
);
}
);
width = 547;
}
);
note = Emacron;
unicode = 0112;
},
{
glyphname = Eogonek;
lastChange = "2015-07-31 16:52:59 +0000";
layers = (
{
layerId = "9C7BFC1E-BC2B-47ED-B7E7-0F1FF6E98B93";
name = Bold;
paths = (
{
closed = 1;
nodes = (
"526 0 LINE",
"526 155 LINE",
"383 155 LINE",
"383 140 LINE SMOOTH",
"383 113 OFFCURVE",
"370 101 OFFCURVE",
"343 101 CURVE SMOOTH",
"242 101 LINE",
"242 273 LINE",
"378 273 LINE",
"378 374 LINE",
"242 374 LINE",
"242 546 LINE",
"343 546 LINE SMOOTH",
"370 546 OFFCURVE",
"383 534 OFFCURVE",
"383 508 CURVE SMOOTH",
"383 493 LINE",
"526 493 LINE",
"526 647 LINE",
"21 647 LINE",
"21 546 LINE",
"45 546 LINE SMOOTH",
"73 546 OFFCURVE",
"85 533 OFFCURVE",
"85 509 CURVE SMOOTH",
"85 140 LINE SMOOTH",
"85 113 OFFCURVE",
"73 101 OFFCURVE",
"45 101 CURVE SMOOTH",
"21 101 LINE",
"21 0 LINE"
);
},
{
closed = 1;
nodes = (
"470 -217 OFFCURVE",
"498 -210 OFFCURVE",
"523 -191 CURVE",
"523 -105 LINE",
"512 -110 OFFCURVE",
"499 -113 OFFCURVE",
"488 -113 CURVE SMOOTH",
"467 -113 OFFCURVE",
"457 -98 OFFCURVE",
"457 -76 CURVE SMOOTH",
"457 -46 OFFCURVE",
"472 -25 OFFCURVE",
"505 0 CURVE",
"376 0 LINE",
"344 -25 OFFCURVE",
"323 -70 OFFCURVE",
"323 -115 CURVE SMOOTH",
"323 -188 OFFCURVE",
"373 -217 OFFCURVE",
"431 -217 CURVE SMOOTH"
);
}
);
width = 547;
}
);
note = Eogonek;
unicode = 0118;
},
{
glyphname = Etilde;
lastChange = "2015-07-31 16:52:58 +0000";
layers = (
{
layerId = "9C7BFC1E-BC2B-47ED-B7E7-0F1FF6E98B93";
name = Bold;
paths = (
{
closed = 1;
nodes = (
"526 0 LINE",
"526 155 LINE",
"383 155 LINE",
"383 140 LINE SMOOTH",
"383 113 OFFCURVE",
"370 101 OFFCURVE",
"343 101 CURVE SMOOTH",
"242 101 LINE",
"242 273 LINE",
"378 273 LINE",
"378 374 LINE",
"242 374 LINE",
"242 546 LINE",
"343 546 LINE SMOOTH",
"370 546 OFFCURVE",
"383 534 OFFCURVE",
"383 508 CURVE SMOOTH",
"383 493 LINE",
"526 493 LINE",
"526 647 LINE",
"21 647 LINE",
"21 546 LINE",
"45 546 LINE SMOOTH",
"73 546 OFFCURVE",
"85 533 OFFCURVE",
"85 509 CURVE SMOOTH",
"85 140 LINE SMOOTH",
"85 113 OFFCURVE",
"73 101 OFFCURVE",
"45 101 CURVE SMOOTH",
"21 101 LINE",
"21 0 LINE"
);
},
{
closed = 1;
nodes = (
"178 699 LINE",
"178 732 OFFCURVE",
"194 747 OFFCURVE",
"222 747 CURVE SMOOTH",
"267 747 OFFCURVE",
"300 699 OFFCURVE",
"376 699 CURVE SMOOTH",
"464 699 OFFCURVE",
"498 751 OFFCURVE",
"498 867 CURVE",
"390 867 LINE",
"390 834 OFFCURVE",
"376 818 OFFCURVE",
"346 818 CURVE SMOOTH",
"301 818 OFFCURVE",
"269 867 OFFCURVE",
"195 867 CURVE SMOOTH",
"106 867 OFFCURVE",
"69 812 OFFCURVE",
"69 699 CURVE"
);
}
);
width = 547;
}
);
note = Etilde;
unicode = 1EBC;
},
{
glyphname = F;
lastChange = "2015-07-31 16:52:57 +0000";
layers = (
{
layerId = "9C7BFC1E-BC2B-47ED-B7E7-0F1FF6E98B93";
name = Bold;
paths = (
{
closed = 1;
nodes = (
"305 0 LINE",
"305 101 LINE",
"281 101 LINE SMOOTH",
"254 101 OFFCURVE",
"242 114 OFFCURVE",
"242 138 CURVE SMOOTH",
"242 273 LINE",
"378 273 LINE",
"378 374 LINE",
"242 374 LINE",
"242 546 LINE",
"343 546 LINE SMOOTH",
"370 546 OFFCURVE",
"383 534 OFFCURVE",
"383 508 CURVE SMOOTH",
"383 493 LINE",
"526 493 LINE",
"526 647 LINE",
"21 647 LINE",
"21 546 LINE",
"45 546 LINE SMOOTH",
"73 546 OFFCURVE",
"85 533 OFFCURVE",
"85 509 CURVE SMOOTH",
"85 140 LINE SMOOTH",
"85 113 OFFCURVE",
"73 101 OFFCURVE",
"45 101 CURVE SMOOTH",
"21 101 LINE",
"21 0 LINE"
);
}
);
width = 547;
}
);
note = F;
unicode = 0046;
},
{
glyphname = G;
lastChange = "2015-08-01 07:19:48 +0000";
layers = (
{
layerId = "9C7BFC1E-BC2B-47ED-B7E7-0F1FF6E98B93";
name = Bold;
paths = (
{
closed = 1;
nodes = (
"458 -15 OFFCURVE",
"541 6 OFFCURVE",
"611 56 CURVE",
"611 356 LINE",
"330 356 LINE",
"330 255 LINE",
"454 255 LINE",
"454 99 LINE",
"424 90 OFFCURVE",
"396 87 OFFCURVE",
"365 87 CURVE SMOOTH",
"243 87 OFFCURVE",
"177 172 OFFCURVE",
"177 319 CURVE SMOOTH",
"177 469 OFFCURVE",
"240 560 OFFCURVE",
"356 560 CURVE SMOOTH",
"388 560 OFFCURVE",
"407 556 OFFCURVE",
"429 546 CURVE",
"429 475 LINE",
"586 475 LINE",
"586 601 LINE",
"523 643 OFFCURVE",
"458 662 OFFCURVE",
"352 662 CURVE SMOOTH",
"125 662 OFFCURVE",
"21 514 OFFCURVE",
"21 319 CURVE SMOOTH",
"21 124 OFFCURVE",
"139 -15 OFFCURVE",
"357 -15 CURVE SMOOTH"
);
}
);
width = 632;
}
);
leftKerningGroup = C;
note = G;
unicode = 0047;
},
{
glyphname = Gbreve;
lastChange = "2015-08-01 07:19:49 +0000";
layers = (
{
layerId = "9C7BFC1E-BC2B-47ED-B7E7-0F1FF6E98B93";
name = Bold;
paths = (
{
closed = 1;
nodes = (
"458 -15 OFFCURVE",
"541 6 OFFCURVE",
"611 56 CURVE",
"611 356 LINE",
"330 356 LINE",
"330 255 LINE",
"454 255 LINE",
"454 99 LINE",
"424 90 OFFCURVE",
"396 87 OFFCURVE",
"365 87 CURVE SMOOTH",
"243 87 OFFCURVE",
"177 172 OFFCURVE",
"177 319 CURVE SMOOTH",
"177 469 OFFCURVE",
"240 560 OFFCURVE",
"356 560 CURVE SMOOTH",
"388 560 OFFCURVE",
"407 556 OFFCURVE",
"429 546 CURVE",
"429 475 LINE",
"586 475 LINE",
"586 601 LINE",
"523 643 OFFCURVE",
"458 662 OFFCURVE",
"352 662 CURVE SMOOTH",
"125 662 OFFCURVE",
"21 514 OFFCURVE",
"21 319 CURVE SMOOTH",
"21 124 OFFCURVE",
"139 -15 OFFCURVE",
"357 -15 CURVE SMOOTH"
);
},
{
closed = 1;
nodes = (
"458 698 OFFCURVE",
"522 760 OFFCURVE",
"522 854 CURVE",
"392 854 LINE",
"392 815 OFFCURVE",
"381 791 OFFCURVE",
"344 791 CURVE SMOOTH",
"311 791 OFFCURVE",
"296 815 OFFCURVE",
"296 854 CURVE",
"166 854 LINE",
"166 760 OFFCURVE",
"230 698 OFFCURVE",
"344 698 CURVE SMOOTH"
);
}
);
width = 632;
}
);
leftKerningGroup = C;
note = Gbreve;
unicode = 011E;
},
{
glyphname = Gcaron;
lastChange = "2015-08-01 07:19:48 +0000";
layers = (
{
layerId = "9C7BFC1E-BC2B-47ED-B7E7-0F1FF6E98B93";
name = Bold;
paths = (
{
closed = 1;
nodes = (
"458 -15 OFFCURVE",
"541 6 OFFCURVE",
"611 56 CURVE",
"611 356 LINE",
"330 356 LINE",
"330 255 LINE",
"454 255 LINE",
"454 99 LINE",
"424 90 OFFCURVE",
"396 87 OFFCURVE",
"365 87 CURVE SMOOTH",
"243 87 OFFCURVE",
"177 172 OFFCURVE",
"177 319 CURVE SMOOTH",
"177 469 OFFCURVE",
"240 560 OFFCURVE",
"356 560 CURVE SMOOTH",
"388 560 OFFCURVE",
"407 556 OFFCURVE",
"429 546 CURVE",
"429 475 LINE",
"586 475 LINE",
"586 601 LINE",
"523 643 OFFCURVE",
"458 662 OFFCURVE",
"352 662 CURVE SMOOTH",
"125 662 OFFCURVE",
"21 514 OFFCURVE",
"21 319 CURVE SMOOTH",
"21 124 OFFCURVE",
"139 -15 OFFCURVE",
"357 -15 CURVE SMOOTH"
);
},
{
closed = 1;
nodes = (
"417 698 LINE",
"552 896 LINE",
"411 896 LINE",
"348 782 LINE",
"284 896 LINE",
"145 896 LINE",
"281 698 LINE"
);
}
);
width = 632;
}
);
leftKerningGroup = C;
note = Gcaron;
unicode = 01E6;
},
{
glyphname = Gcircumflex;
lastChange = "2015-08-01 07:19:48 +0000";
layers = (
{
layerId = "9C7BFC1E-BC2B-47ED-B7E7-0F1FF6E98B93";
name = Bold;
paths = (
{
closed = 1;
nodes = (
"458 -15 OFFCURVE",
"541 6 OFFCURVE",
"611 56 CURVE",
"611 356 LINE",
"330 356 LINE",
"330 255 LINE",
"454 255 LINE",
"454 99 LINE",
"424 90 OFFCURVE",
"396 87 OFFCURVE",
"365 87 CURVE SMOOTH",
"243 87 OFFCURVE",
"177 172 OFFCURVE",
"177 319 CURVE SMOOTH",
"177 469 OFFCURVE",
"240 560 OFFCURVE",
"356 560 CURVE SMOOTH",
"388 560 OFFCURVE",
"407 556 OFFCURVE",
"429 546 CURVE",
"429 475 LINE",
"586 475 LINE",
"586 601 LINE",
"523 643 OFFCURVE",
"458 662 OFFCURVE",
"352 662 CURVE SMOOTH",
"125 662 OFFCURVE",
"21 514 OFFCURVE",
"21 319 CURVE SMOOTH",
"21 124 OFFCURVE",
"139 -15 OFFCURVE",
"357 -15 CURVE SMOOTH"
);
},
{
closed = 1;
nodes = (
"274 698 LINE",
"338 812 LINE",
"401 698 LINE",
"542 698 LINE",
"407 896 LINE",
"271 896 LINE",
"135 698 LINE"
);
}
);
width = 632;
}
);
leftKerningGroup = C;
note = Gcircumflex;
unicode = 011C;
},
{
glyphname = Gcommaaccent;
lastChange = "2015-08-01 07:19:47 +0000";
layers = (
{
layerId = "9C7BFC1E-BC2B-47ED-B7E7-0F1FF6E98B93";
name = Bold;
paths = (
{
closed = 1;
nodes = (
"458 -15 OFFCURVE",
"541 6 OFFCURVE",
"611 56 CURVE",
"611 356 LINE",
"330 356 LINE",
"330 255 LINE",
"454 255 LINE",
"454 99 LINE",
"424 90 OFFCURVE",
"396 87 OFFCURVE",
"365 87 CURVE SMOOTH",
"243 87 OFFCURVE",
"177 172 OFFCURVE",
"177 319 CURVE SMOOTH",
"177 469 OFFCURVE",
"240 560 OFFCURVE",
"356 560 CURVE SMOOTH",
"388 560 OFFCURVE",
"407 556 OFFCURVE",
"429 546 CURVE",
"429 475 LINE",
"586 475 LINE",
"586 601 LINE",
"523 643 OFFCURVE",
"458 662 OFFCURVE",
"352 662 CURVE SMOOTH",
"125 662 OFFCURVE",
"21 514 OFFCURVE",
"21 319 CURVE SMOOTH",
"21 124 OFFCURVE",
"139 -15 OFFCURVE",
"357 -15 CURVE SMOOTH"
);
},
{
closed = 1;
nodes = (
"393 -272 LINE",
"461 -49 LINE",
"297 -49 LINE",
"263 -272 LINE"
);
}
);
width = 632;
}
);
leftKerningGroup = C;
note = Gcommaaccent;
unicode = 0122;
},
{
glyphname = Gdotaccent;
lastChange = "2015-08-01 07:19:47 +0000";
layers = (
{
layerId = "9C7BFC1E-BC2B-47ED-B7E7-0F1FF6E98B93";
name = Bold;
paths = (
{
closed = 1;
nodes = (
"458 -15 OFFCURVE",
"541 6 OFFCURVE",
"611 56 CURVE",
"611 356 LINE",
"330 356 LINE",
"330 255 LINE",
"454 255 LINE",
"454 99 LINE",
"424 90 OFFCURVE",
"396 87 OFFCURVE",
"365 87 CURVE SMOOTH",
"243 87 OFFCURVE",
"177 172 OFFCURVE",
"177 319 CURVE SMOOTH",
"177 469 OFFCURVE",
"240 560 OFFCURVE",
"356 560 CURVE SMOOTH",
"388 560 OFFCURVE",
"407 556 OFFCURVE",
"429 546 CURVE",
"429 475 LINE",
"586 475 LINE",
"586 601 LINE",
"523 643 OFFCURVE",
"458 662 OFFCURVE",
"352 662 CURVE SMOOTH",
"125 662 OFFCURVE",
"21 514 OFFCURVE",
"21 319 CURVE SMOOTH",
"21 124 OFFCURVE",
"139 -15 OFFCURVE",
"357 -15 CURVE SMOOTH"
);
},
{
closed = 1;
nodes = (
"406 714 LINE",
"406 836 LINE",
"290 836 LINE",
"290 714 LINE"
);
}
);
width = 632;
}
);
leftKerningGroup = C;
note = Gdotaccent;
unicode = 0120;
},
{
glyphname = Gmacron;
lastChange = "2015-08-01 07:19:49 +0000";
layers = (
{
layerId = "9C7BFC1E-BC2B-47ED-B7E7-0F1FF6E98B93";
name = Bold;
paths = (
{
closed = 1;
nodes = (
"458 -15 OFFCURVE",
"541 6 OFFCURVE",
"611 56 CURVE",
"611 356 LINE",
"330 356 LINE",
"330 255 LINE",
"454 255 LINE",
"454 99 LINE",
"424 90 OFFCURVE",
"396 87 OFFCURVE",
"365 87 CURVE SMOOTH",
"243 87 OFFCURVE",
"177 172 OFFCURVE",
"177 319 CURVE SMOOTH",
"177 469 OFFCURVE",
"240 560 OFFCURVE",
"356 560 CURVE SMOOTH",
"388 560 OFFCURVE",
"407 556 OFFCURVE",
"429 546 CURVE",
"429 475 LINE",
"586 475 LINE",
"586 601 LINE",
"523 643 OFFCURVE",
"458 662 OFFCURVE",
"352 662 CURVE SMOOTH",
"125 662 OFFCURVE",
"21 514 OFFCURVE",
"21 319 CURVE SMOOTH",
"21 124 OFFCURVE",
"139 -15 OFFCURVE",
"357 -15 CURVE SMOOTH"
);
},
{
closed = 1;
nodes = (
"506 719 LINE",
"506 811 LINE",
"199 811 LINE",
"199 719 LINE"
);
}
);
width = 632;
}
);
leftKerningGroup = C;
note = Gmacron;
unicode = 1E20;
},
{
glyphname = H;
lastChange = "2015-07-31 16:52:57 +0000";
layers = (
{
layerId = "9C7BFC1E-BC2B-47ED-B7E7-0F1FF6E98B93";
name = Bold;
paths = (
{
closed = 1;
nodes = (
"296 0 LINE",
"296 101 LINE",
"281 101 LINE SMOOTH",
"254 101 OFFCURVE",
"242 113 OFFCURVE",
"242 140 CURVE SMOOTH",
"242 274 LINE",
"446 274 LINE",
"446 140 LINE SMOOTH",
"446 113 OFFCURVE",
"434 101 OFFCURVE",
"407 101 CURVE SMOOTH",
"391 101 LINE",
"391 0 LINE",
"667 0 LINE",
"667 101 LINE",
"643 101 LINE SMOOTH",
"615 101 OFFCURVE",
"603 113 OFFCURVE",
"603 140 CURVE SMOOTH",
"603 509 LINE SMOOTH",
"603 533 OFFCURVE",
"615 546 OFFCURVE",
"643 546 CURVE SMOOTH",
"667 546 LINE",
"667 647 LINE",
"391 647 LINE",
"391 546 LINE",
"407 546 LINE SMOOTH",
"434 546 OFFCURVE",
"446 534 OFFCURVE",
"446 507 CURVE SMOOTH",
"446 375 LINE",
"242 375 LINE",
"242 509 LINE SMOOTH",
"242 533 OFFCURVE",
"253 546 OFFCURVE",
"280 546 CURVE SMOOTH",
"296 546 LINE",
"296 647 LINE",
"21 647 LINE",
"21 546 LINE",
"45 546 LINE SMOOTH",
"73 546 OFFCURVE",
"84 533 OFFCURVE",
"84 509 CURVE SMOOTH",
"84 140 LINE SMOOTH",
"84 113 OFFCURVE",
"73 101 OFFCURVE",
"45 101 CURVE SMOOTH",
"21 101 LINE",
"21 0 LINE"
);
}
);
width = 688;
}
);
note = H;
unicode = 0048;
},
{
glyphname = Hbar;
lastChange = "2015-07-31 16:52:59 +0000";
layers = (
{
layerId = "9C7BFC1E-BC2B-47ED-B7E7-0F1FF6E98B93";
name = Bold;
paths = (
{
closed = 1;
nodes = (
"296 0 LINE",
"296 101 LINE",
"281 101 LINE SMOOTH",
"254 101 OFFCURVE",
"242 113 OFFCURVE",
"242 140 CURVE SMOOTH",
"242 274 LINE",
"446 274 LINE",
"446 140 LINE SMOOTH",
"446 113 OFFCURVE",
"434 101 OFFCURVE",
"407 101 CURVE SMOOTH",
"391 101 LINE",
"391 0 LINE",
"667 0 LINE",
"667 101 LINE",
"643 101 LINE SMOOTH",
"615 101 OFFCURVE",
"603 113 OFFCURVE",
"603 140 CURVE SMOOTH",
"603 407 LINE",
"667 407 LINE",
"667 500 LINE",
"603 500 LINE",
"603 509 LINE SMOOTH",
"603 533 OFFCURVE",
"615 546 OFFCURVE",
"643 546 CURVE SMOOTH",
"667 546 LINE",
"667 647 LINE",
"391 647 LINE",
"391 546 LINE",
"407 546 LINE SMOOTH",
"434 546 OFFCURVE",
"446 534 OFFCURVE",
"446 507 CURVE SMOOTH",
"446 500 LINE",
"242 500 LINE",
"242 509 LINE SMOOTH",
"242 533 OFFCURVE",
"253 546 OFFCURVE",
"280 546 CURVE SMOOTH",
"296 546 LINE",
"296 647 LINE",
"21 647 LINE",
"21 546 LINE",
"45 546 LINE SMOOTH",
"73 546 OFFCURVE",
"84 533 OFFCURVE",
"84 509 CURVE SMOOTH",
"84 500 LINE",
"21 500 LINE",
"21 407 LINE",
"84 407 LINE",
"84 140 LINE SMOOTH",
"84 113 OFFCURVE",
"73 101 OFFCURVE",
"45 101 CURVE SMOOTH",
"21 101 LINE",
"21 0 LINE"
);
},
{
closed = 1;
nodes = (
"242 407 LINE",
"446 407 LINE",
"446 375 LINE",
"242 375 LINE"
);
}
);
width = 696;
}
);
note = Hbar;
unicode = 0126;
},
{
glyphname = Hbrevebelow;
lastChange = "2015-07-31 16:52:59 +0000";
layers = (
{
layerId = "9C7BFC1E-BC2B-47ED-B7E7-0F1FF6E98B93";
name = Bold;
paths = (
{
closed = 1;
nodes = (
"296 0 LINE",
"296 101 LINE",
"281 101 LINE SMOOTH",
"254 101 OFFCURVE",
"242 113 OFFCURVE",
"242 140 CURVE SMOOTH",
"242 274 LINE",
"446 274 LINE",
"446 140 LINE SMOOTH",
"446 113 OFFCURVE",
"434 101 OFFCURVE",
"407 101 CURVE SMOOTH",
"391 101 LINE",
"391 0 LINE",
"667 0 LINE",
"667 101 LINE",
"643 101 LINE SMOOTH",
"615 101 OFFCURVE",
"603 113 OFFCURVE",
"603 140 CURVE SMOOTH",
"603 509 LINE SMOOTH",
"603 533 OFFCURVE",
"615 546 OFFCURVE",
"643 546 CURVE SMOOTH",
"667 546 LINE",
"667 647 LINE",
"391 647 LINE",
"391 546 LINE",
"407 546 LINE SMOOTH",
"434 546 OFFCURVE",
"446 534 OFFCURVE",
"446 507 CURVE SMOOTH",
"446 375 LINE",
"242 375 LINE",
"242 509 LINE SMOOTH",
"242 533 OFFCURVE",
"253 546 OFFCURVE",
"280 546 CURVE SMOOTH",
"296 546 LINE",
"296 647 LINE",
"21 647 LINE",
"21 546 LINE",
"45 546 LINE SMOOTH",
"73 546 OFFCURVE",
"84 533 OFFCURVE",
"84 509 CURVE SMOOTH",
"84 140 LINE SMOOTH",
"84 113 OFFCURVE",
"73 101 OFFCURVE",
"45 101 CURVE SMOOTH",
"21 101 LINE",
"21 0 LINE"
);
},
{
closed = 1;
nodes = (
"458 -203 OFFCURVE",
"522 -140 OFFCURVE",
"522 -47 CURVE",
"392 -47 LINE",
"392 -86 OFFCURVE",
"381 -109 OFFCURVE",
"344 -109 CURVE SMOOTH",
"311 -109 OFFCURVE",
"296 -86 OFFCURVE",
"296 -47 CURVE",
"166 -47 LINE",
"166 -140 OFFCURVE",
"230 -203 OFFCURVE",
"344 -203 CURVE SMOOTH"
);
}
);
width = 688;
}
);
note = Hbrevebelow;
unicode = 1E2A;
},
{
glyphname = Hcircumflex;
lastChange = "2015-07-31 16:52:59 +0000";
layers = (
{
layerId = "9C7BFC1E-BC2B-47ED-B7E7-0F1FF6E98B93";
name = Bold;
paths = (
{
closed = 1;
nodes = (
"296 0 LINE",
"296 101 LINE",
"281 101 LINE SMOOTH",
"254 101 OFFCURVE",
"242 113 OFFCURVE",
"242 140 CURVE SMOOTH",
"242 274 LINE",
"446 274 LINE",
"446 140 LINE SMOOTH",
"446 113 OFFCURVE",
"434 101 OFFCURVE",
"407 101 CURVE SMOOTH",
"391 101 LINE",
"391 0 LINE",
"667 0 LINE",
"667 101 LINE",
"643 101 LINE SMOOTH",
"615 101 OFFCURVE",
"603 113 OFFCURVE",
"603 140 CURVE SMOOTH",
"603 509 LINE SMOOTH",
"603 533 OFFCURVE",
"615 546 OFFCURVE",
"643 546 CURVE SMOOTH",
"667 546 LINE",
"667 647 LINE",
"391 647 LINE",
"391 546 LINE",
"407 546 LINE SMOOTH",
"434 546 OFFCURVE",
"446 534 OFFCURVE",
"446 507 CURVE SMOOTH",
"446 375 LINE",
"242 375 LINE",
"242 509 LINE SMOOTH",
"242 533 OFFCURVE",
"253 546 OFFCURVE",
"280 546 CURVE SMOOTH",
"296 546 LINE",
"296 647 LINE",
"21 647 LINE",
"21 546 LINE",
"45 546 LINE SMOOTH",
"73 546 OFFCURVE",
"84 533 OFFCURVE",
"84 509 CURVE SMOOTH",
"84 140 LINE SMOOTH",
"84 113 OFFCURVE",
"73 101 OFFCURVE",
"45 101 CURVE SMOOTH",
"21 101 LINE",
"21 0 LINE"
);
},
{
closed = 1;
nodes = (
"279 698 LINE",
"343 812 LINE",
"406 698 LINE",
"547 698 LINE",
"412 896 LINE",
"276 896 LINE",
"140 698 LINE"
);
}
);
width = 688;
}
);
note = Hcircumflex;
unicode = 0124;
},
{
glyphname = Hdotbelow;
lastChange = "2015-07-31 16:52:59 +0000";
layers = (
{
layerId = "9C7BFC1E-BC2B-47ED-B7E7-0F1FF6E98B93";
name = Bold;
paths = (
{
closed = 1;
nodes = (
"296 0 LINE",
"296 101 LINE",
"281 101 LINE SMOOTH",
"254 101 OFFCURVE",
"242 113 OFFCURVE",
"242 140 CURVE SMOOTH",
"242 274 LINE",
"446 274 LINE",
"446 140 LINE SMOOTH",
"446 113 OFFCURVE",
"434 101 OFFCURVE",
"407 101 CURVE SMOOTH",
"391 101 LINE",
"391 0 LINE",
"667 0 LINE",
"667 101 LINE",
"643 101 LINE SMOOTH",
"615 101 OFFCURVE",
"603 113 OFFCURVE",
"603 140 CURVE SMOOTH",
"603 509 LINE SMOOTH",
"603 533 OFFCURVE",
"615 546 OFFCURVE",
"643 546 CURVE SMOOTH",
"667 546 LINE",
"667 647 LINE",
"391 647 LINE",
"391 546 LINE",
"407 546 LINE SMOOTH",
"434 546 OFFCURVE",
"446 534 OFFCURVE",
"446 507 CURVE SMOOTH",
"446 375 LINE",
"242 375 LINE",
"242 509 LINE SMOOTH",
"242 533 OFFCURVE",
"253 546 OFFCURVE",
"280 546 CURVE SMOOTH",
"296 546 LINE",
"296 647 LINE",
"21 647 LINE",
"21 546 LINE",
"45 546 LINE SMOOTH",
"73 546 OFFCURVE",
"84 533 OFFCURVE",
"84 509 CURVE SMOOTH",
"84 140 LINE SMOOTH",
"84 113 OFFCURVE",
"73 101 OFFCURVE",
"45 101 CURVE SMOOTH",
"21 101 LINE",
"21 0 LINE"
);
},
{
closed = 1;
nodes = (
"402 -183 LINE",
"402 -61 LINE",
"286 -61 LINE",
"286 -183 LINE"
);
}
);
width = 688;
}
);
note = Hdotbelow;
unicode = 1E24;
},
{
glyphname = I;
lastChange = "2015-07-31 16:52:57 +0000";
layers = (
{
layerId = "9C7BFC1E-BC2B-47ED-B7E7-0F1FF6E98B93";
name = Bold;
paths = (
{
closed = 1;
nodes = (
"304 0 LINE",
"304 101 LINE",
"280 101 LINE SMOOTH",
"252 101 OFFCURVE",
"241 114 OFFCURVE",
"241 138 CURVE SMOOTH",
"241 509 LINE SMOOTH",
"241 533 OFFCURVE",
"252 546 OFFCURVE",
"280 546 CURVE SMOOTH",
"304 546 LINE",
"304 647 LINE",
"21 647 LINE",
"21 546 LINE",
"44 546 LINE SMOOTH",
"73 546 OFFCURVE",
"84 533 OFFCURVE",
"84 509 CURVE SMOOTH",
"84 140 LINE SMOOTH",
"84 113 OFFCURVE",
"73 101 OFFCURVE",
"44 101 CURVE SMOOTH",
"21 101 LINE",
"21 0 LINE"
);
}
);
width = 325;
}
);
note = I;
unicode = 0049;
},
{
glyphname = IJ;
lastChange = "2015-08-01 07:19:49 +0000";
layers = (
{
layerId = "9C7BFC1E-BC2B-47ED-B7E7-0F1FF6E98B93";
name = Bold;
paths = (
{
closed = 1;
nodes = (
"652 -15 OFFCURVE",
"727 61 OFFCURVE",
"727 187 CURVE SMOOTH",
"727 509 LINE SMOOTH",
"727 533 OFFCURVE",
"739 546 OFFCURVE",
"766 546 CURVE SMOOTH",
"790 546 LINE",
"790 647 LINE",
"506 647 LINE",
"506 546 LINE",
"530 546 LINE SMOOTH",
"558 546 OFFCURVE",
"569 533 OFFCURVE",
"569 509 CURVE SMOOTH",
"569 162 LINE SMOOTH",
"569 109 OFFCURVE",
"549 87 OFFCURVE",
"499 87 CURVE SMOOTH",
"473 87 OFFCURVE",
"449 96 OFFCURVE",
"433 112 CURVE",
"433 164 LINE",
"293 164 LINE",
"293 69 LINE",
"339 14 OFFCURVE",
"415 -15 OFFCURVE",
"509 -15 CURVE SMOOTH"
);
},
{
closed = 1;
nodes = (
"304 0 LINE",
"304 101 LINE",
"280 101 LINE SMOOTH",
"252 101 OFFCURVE",
"241 114 OFFCURVE",
"241 138 CURVE SMOOTH",
"241 509 LINE SMOOTH",
"241 533 OFFCURVE",
"252 546 OFFCURVE",
"280 546 CURVE SMOOTH",
"304 546 LINE",
"304 647 LINE",
"21 647 LINE",
"21 546 LINE",
"44 546 LINE SMOOTH",
"73 546 OFFCURVE",
"84 533 OFFCURVE",
"84 509 CURVE SMOOTH",
"84 140 LINE SMOOTH",
"84 113 OFFCURVE",
"73 101 OFFCURVE",
"44 101 CURVE SMOOTH",
"21 101 LINE",
"21 0 LINE"
);
}
);
width = 801;
}
);
note = IJ;
rightKerningGroup = J;
unicode = 0132;
},
{
glyphname = Iacute;
lastChange = "2015-07-31 16:52:59 +0000";
layers = (
{
layerId = "9C7BFC1E-BC2B-47ED-B7E7-0F1FF6E98B93";
name = Bold;
paths = (
{
closed = 1;
nodes = (
"304 0 LINE",
"304 101 LINE",
"280 101 LINE SMOOTH",
"252 101 OFFCURVE",
"241 114 OFFCURVE",
"241 138 CURVE SMOOTH",
"241 509 LINE SMOOTH",
"241 533 OFFCURVE",
"252 546 OFFCURVE",
"280 546 CURVE SMOOTH",
"304 546 LINE",
"304 647 LINE",
"21 647 LINE",
"21 546 LINE",
"44 546 LINE SMOOTH",
"73 546 OFFCURVE",
"84 533 OFFCURVE",
"84 509 CURVE SMOOTH",
"84 140 LINE SMOOTH",
"84 113 OFFCURVE",
"73 101 OFFCURVE",
"44 101 CURVE SMOOTH",
"21 101 LINE",
"21 0 LINE"
);
},
{
closed = 1;
nodes = (
"219 699 LINE",
"332 879 LINE",
"161 879 LINE",
"86 699 LINE"
);
}
);
width = 325;
}
);
note = Iacute;
unicode = 00CD;
},
{
glyphname = Ibreve;
lastChange = "2015-07-31 16:52:59 +0000";
layers = (
{
layerId = "9C7BFC1E-BC2B-47ED-B7E7-0F1FF6E98B93";
name = Bold;
paths = (
{
closed = 1;
nodes = (
"304 0 LINE",
"304 101 LINE",
"280 101 LINE SMOOTH",
"252 101 OFFCURVE",
"241 114 OFFCURVE",
"241 138 CURVE SMOOTH",
"241 509 LINE SMOOTH",
"241 533 OFFCURVE",
"252 546 OFFCURVE",
"280 546 CURVE SMOOTH",
"304 546 LINE",
"304 647 LINE",
"21 647 LINE",
"21 546 LINE",
"44 546 LINE SMOOTH",
"73 546 OFFCURVE",
"84 533 OFFCURVE",
"84 509 CURVE SMOOTH",
"84 140 LINE SMOOTH",
"84 113 OFFCURVE",
"73 101 OFFCURVE",
"44 101 CURVE SMOOTH",
"21 101 LINE",
"21 0 LINE"
);
},
{
closed = 1;
nodes = (
"276 699 OFFCURVE",
"340 761 OFFCURVE",
"340 855 CURVE",
"210 855 LINE",
"210 816 OFFCURVE",
"199 792 OFFCURVE",
"162 792 CURVE SMOOTH",
"129 792 OFFCURVE",
"114 816 OFFCURVE",
"114 855 CURVE",
"-16 855 LINE",
"-16 761 OFFCURVE",
"48 699 OFFCURVE",
"162 699 CURVE SMOOTH"
);
}
);
width = 325;
}
);
note = Ibreve;
unicode = 012C;
},
{
glyphname = Icaron;
lastChange = "2015-07-31 16:52:59 +0000";
layers = (
{
layerId = "9C7BFC1E-BC2B-47ED-B7E7-0F1FF6E98B93";
name = Bold;
paths = (
{
closed = 1;
nodes = (
"318 0 LINE",
"318 101 LINE",
"294 101 LINE SMOOTH",
"266 101 OFFCURVE",
"255 114 OFFCURVE",
"255 138 CURVE SMOOTH",
"255 509 LINE SMOOTH",
"255 533 OFFCURVE",
"266 546 OFFCURVE",
"294 546 CURVE SMOOTH",
"318 546 LINE",
"318 647 LINE",
"35 647 LINE",
"35 546 LINE",
"58 546 LINE SMOOTH",
"87 546 OFFCURVE",
"98 533 OFFCURVE",
"98 509 CURVE SMOOTH",
"98 140 LINE SMOOTH",
"98 113 OFFCURVE",
"87 101 OFFCURVE",
"58 101 CURVE SMOOTH",
"35 101 LINE",
"35 0 LINE"
);
},
{
closed = 1;
nodes = (
"245 698 LINE",
"380 896 LINE",
"239 896 LINE",
"176 782 LINE",
"112 896 LINE",
"-27 896 LINE",
"109 698 LINE"
);
}
);
width = 362;
}
);
note = Icaron;
unicode = 01CF;
},
{
glyphname = Icircumflex;
lastChange = "2015-07-31 16:52:59 +0000";
layers = (
{
layerId = "9C7BFC1E-BC2B-47ED-B7E7-0F1FF6E98B93";
name = Bold;
paths = (
{
closed = 1;
nodes = (
"304 0 LINE",
"304 101 LINE",
"280 101 LINE SMOOTH",
"252 101 OFFCURVE",
"241 114 OFFCURVE",
"241 138 CURVE SMOOTH",
"241 509 LINE SMOOTH",
"241 533 OFFCURVE",
"252 546 OFFCURVE",
"280 546 CURVE SMOOTH",
"304 546 LINE",
"304 647 LINE",
"21 647 LINE",
"21 546 LINE",
"44 546 LINE SMOOTH",
"73 546 OFFCURVE",
"84 533 OFFCURVE",
"84 509 CURVE SMOOTH",
"84 140 LINE SMOOTH",
"84 113 OFFCURVE",
"73 101 OFFCURVE",
"44 101 CURVE SMOOTH",
"21 101 LINE",
"21 0 LINE"
);
},
{
closed = 1;
nodes = (
"98 699 LINE",
"162 813 LINE",
"225 699 LINE",
"366 699 LINE",
"231 897 LINE",
"95 897 LINE",
"-41 699 LINE"
);
}
);
width = 325;
}
);
note = Icircumflex;
unicode = 00CE;
},
{
glyphname = Idieresis;
lastChange = "2015-07-31 16:52:59 +0000";
layers = (
{
layerId = "9C7BFC1E-BC2B-47ED-B7E7-0F1FF6E98B93";
name = Bold;
paths = (
{
closed = 1;
nodes = (
"304 0 LINE",
"304 101 LINE",
"280 101 LINE SMOOTH",
"252 101 OFFCURVE",
"241 114 OFFCURVE",
"241 138 CURVE SMOOTH",
"241 509 LINE SMOOTH",
"241 533 OFFCURVE",
"252 546 OFFCURVE",
"280 546 CURVE SMOOTH",
"304 546 LINE",
"304 647 LINE",
"21 647 LINE",
"21 546 LINE",
"44 546 LINE SMOOTH",
"73 546 OFFCURVE",
"84 533 OFFCURVE",
"84 509 CURVE SMOOTH",
"84 140 LINE SMOOTH",
"84 113 OFFCURVE",
"73 101 OFFCURVE",
"44 101 CURVE SMOOTH",
"21 101 LINE",
"21 0 LINE"
);
},
{
closed = 1;
nodes = (
"101 719 LINE",
"101 841 LINE",
"-15 841 LINE",
"-15 719 LINE"
);
},
{
closed = 1;
nodes = (
"339 719 LINE",
"339 841 LINE",
"222 841 LINE",
"222 719 LINE"
);
}
);
width = 325;
}
);
note = Idieresis;
unicode = 00CF;
},
{
glyphname = Idotaccent;
lastChange = "2015-07-31 16:52:59 +0000";
layers = (
{
layerId = "9C7BFC1E-BC2B-47ED-B7E7-0F1FF6E98B93";
name = Bold;
paths = (
{
closed = 1;
nodes = (
"304 0 LINE",
"304 101 LINE",
"280 101 LINE SMOOTH",
"252 101 OFFCURVE",
"241 114 OFFCURVE",
"241 138 CURVE SMOOTH",
"241 509 LINE SMOOTH",
"241 533 OFFCURVE",
"252 546 OFFCURVE",
"280 546 CURVE SMOOTH",
"304 546 LINE",
"304 647 LINE",
"21 647 LINE",
"21 546 LINE",
"44 546 LINE SMOOTH",
"73 546 OFFCURVE",
"84 533 OFFCURVE",
"84 509 CURVE SMOOTH",
"84 140 LINE SMOOTH",
"84 113 OFFCURVE",
"73 101 OFFCURVE",
"44 101 CURVE SMOOTH",
"21 101 LINE",
"21 0 LINE"
);
},
{
closed = 1;
nodes = (
"220 718 LINE",
"220 840 LINE",
"104 840 LINE",
"104 718 LINE"
);
}
);
width = 325;
}
);
note = Idotaccent;
unicode = 0130;
},
{
glyphname = Idotbelow;
lastChange = "2015-07-31 16:52:58 +0000";
layers = (
{
layerId = "9C7BFC1E-BC2B-47ED-B7E7-0F1FF6E98B93";
name = Bold;
paths = (
{
closed = 1;
nodes = (
"304 0 LINE",
"304 101 LINE",
"280 101 LINE SMOOTH",
"252 101 OFFCURVE",
"241 114 OFFCURVE",
"241 138 CURVE SMOOTH",
"241 509 LINE SMOOTH",
"241 533 OFFCURVE",
"252 546 OFFCURVE",
"280 546 CURVE SMOOTH",
"304 546 LINE",
"304 647 LINE",
"21 647 LINE",
"21 546 LINE",
"44 546 LINE SMOOTH",
"73 546 OFFCURVE",
"84 533 OFFCURVE",
"84 509 CURVE SMOOTH",
"84 140 LINE SMOOTH",
"84 113 OFFCURVE",
"73 101 OFFCURVE",
"44 101 CURVE SMOOTH",
"21 101 LINE",
"21 0 LINE"
);
},
{
closed = 1;
nodes = (
"221 -183 LINE",
"221 -61 LINE",
"105 -61 LINE",
"105 -183 LINE"
);
}
);
width = 325;
}
);
note = Idotbelow;
unicode = 1ECA;
},
{
glyphname = Igrave;
lastChange = "2015-07-31 16:52:58 +0000";
layers = (
{
layerId = "9C7BFC1E-BC2B-47ED-B7E7-0F1FF6E98B93";
name = Bold;
paths = (
{
closed = 1;
nodes = (
"304 0 LINE",
"304 101 LINE",
"280 101 LINE SMOOTH",
"252 101 OFFCURVE",
"241 114 OFFCURVE",
"241 138 CURVE SMOOTH",
"241 509 LINE SMOOTH",
"241 533 OFFCURVE",
"252 546 OFFCURVE",
"280 546 CURVE SMOOTH",
"304 546 LINE",
"304 647 LINE",
"21 647 LINE",
"21 546 LINE",
"44 546 LINE SMOOTH",
"73 546 OFFCURVE",
"84 533 OFFCURVE",
"84 509 CURVE SMOOTH",
"84 140 LINE SMOOTH",
"84 113 OFFCURVE",
"73 101 OFFCURVE",
"44 101 CURVE SMOOTH",
"21 101 LINE",
"21 0 LINE"
);
},
{
closed = 1;
nodes = (
"239 699 LINE",
"164 879 LINE",
"-8 879 LINE",
"105 699 LINE"
);
}
);
width = 325;
}
);
note = Igrave;
unicode = 00CC;
},
{
glyphname = Ihookabove;
lastChange = "2015-07-31 16:52:59 +0000";
layers = (
{
layerId = "9C7BFC1E-BC2B-47ED-B7E7-0F1FF6E98B93";
name = Bold;
paths = (
{
closed = 1;
nodes = (
"304 0 LINE",
"304 101 LINE",
"280 101 LINE SMOOTH",
"252 101 OFFCURVE",
"241 114 OFFCURVE",
"241 138 CURVE SMOOTH",
"241 509 LINE SMOOTH",
"241 533 OFFCURVE",
"252 546 OFFCURVE",
"280 546 CURVE SMOOTH",
"304 546 LINE",
"304 647 LINE",
"21 647 LINE",
"21 546 LINE",
"44 546 LINE SMOOTH",
"73 546 OFFCURVE",
"84 533 OFFCURVE",
"84 509 CURVE SMOOTH",
"84 140 LINE SMOOTH",
"84 113 OFFCURVE",
"73 101 OFFCURVE",
"44 101 CURVE SMOOTH",
"21 101 LINE",
"21 0 LINE"
);
},
{
closed = 1;
nodes = (
"220 698 LINE",
"220 740 LINE",
"260 754 OFFCURVE",
"279 780 OFFCURVE",
"279 821 CURVE SMOOTH",
"279 882 OFFCURVE",
"231 908 OFFCURVE",
"149 908 CURVE SMOOTH",
"111 908 OFFCURVE",
"81 902 OFFCURVE",
"61 895 CURVE",
"61 819 LINE",
"74 825 OFFCURVE",
"90 828 OFFCURVE",
"106 828 CURVE SMOOTH",
"133 828 OFFCURVE",
"144 818 OFFCURVE",
"144 798 CURVE SMOOTH",
"144 779 OFFCURVE",
"133 762 OFFCURVE",
"92 762 CURVE",
"92 698 LINE"
);
}
);
width = 325;
}
);
note = Ihookabove;
unicode = 1EC8;
},
{
glyphname = Imacron;
lastChange = "2015-07-31 16:52:58 +0000";
layers = (
{
layerId = "9C7BFC1E-BC2B-47ED-B7E7-0F1FF6E98B93";
name = Bold;
paths = (
{
closed = 1;
nodes = (
"304 0 LINE",
"304 101 LINE",
"280 101 LINE SMOOTH",
"252 101 OFFCURVE",
"241 114 OFFCURVE",
"241 138 CURVE SMOOTH",
"241 509 LINE SMOOTH",
"241 533 OFFCURVE",
"252 546 OFFCURVE",
"280 546 CURVE SMOOTH",
"304 546 LINE",
"304 647 LINE",
"21 647 LINE",
"21 546 LINE",
"44 546 LINE SMOOTH",
"73 546 OFFCURVE",
"84 533 OFFCURVE",
"84 509 CURVE SMOOTH",
"84 140 LINE SMOOTH",
"84 113 OFFCURVE",
"73 101 OFFCURVE",
"44 101 CURVE SMOOTH",
"21 101 LINE",
"21 0 LINE"
);
},
{
closed = 1;
nodes = (
"316 719 LINE",
"316 811 LINE",
"9 811 LINE",
"9 719 LINE"
);
}
);
width = 325;
}
);
note = Imacron;
unicode = 012A;
},
{
glyphname = Iogonek;
lastChange = "2015-07-31 16:52:59 +0000";
layers = (
{
layerId = "9C7BFC1E-BC2B-47ED-B7E7-0F1FF6E98B93";
name = Bold;
paths = (
{
closed = 1;
nodes = (
"304 0 LINE",
"304 101 LINE",
"280 101 LINE SMOOTH",
"252 101 OFFCURVE",
"241 114 OFFCURVE",
"241 138 CURVE SMOOTH",
"241 509 LINE SMOOTH",
"241 533 OFFCURVE",
"252 546 OFFCURVE",
"280 546 CURVE SMOOTH",
"304 546 LINE",
"304 647 LINE",
"21 647 LINE",
"21 546 LINE",
"44 546 LINE SMOOTH",
"73 546 OFFCURVE",
"84 533 OFFCURVE",
"84 509 CURVE SMOOTH",
"84 140 LINE SMOOTH",
"84 113 OFFCURVE",
"73 101 OFFCURVE",
"44 101 CURVE SMOOTH",
"21 101 LINE",
"21 0 LINE"
);
},
{
closed = 1;
nodes = (
"207 -217 OFFCURVE",
"235 -210 OFFCURVE",
"260 -191 CURVE",
"260 -105 LINE",
"249 -110 OFFCURVE",
"236 -113 OFFCURVE",
"225 -113 CURVE SMOOTH",
"204 -113 OFFCURVE",
"194 -98 OFFCURVE",
"194 -76 CURVE SMOOTH",
"194 -46 OFFCURVE",
"209 -25 OFFCURVE",
"242 0 CURVE",
"113 0 LINE",
"81 -25 OFFCURVE",
"60 -70 OFFCURVE",
"60 -115 CURVE SMOOTH",
"60 -188 OFFCURVE",
"110 -217 OFFCURVE",
"168 -217 CURVE SMOOTH"
);
}
);
width = 325;
}
);
note = Iogonek;
unicode = 012E;
},
{
glyphname = Itilde;
lastChange = "2015-07-31 16:52:59 +0000";
layers = (
{
layerId = "9C7BFC1E-BC2B-47ED-B7E7-0F1FF6E98B93";
name = Bold;
paths = (
{
closed = 1;
nodes = (
"304 0 LINE",
"304 101 LINE",
"280 101 LINE SMOOTH",
"252 101 OFFCURVE",
"241 114 OFFCURVE",
"241 138 CURVE SMOOTH",
"241 509 LINE SMOOTH",
"241 533 OFFCURVE",
"252 546 OFFCURVE",
"280 546 CURVE SMOOTH",
"304 546 LINE",
"304 647 LINE",
"21 647 LINE",
"21 546 LINE",
"44 546 LINE SMOOTH",
"73 546 OFFCURVE",
"84 533 OFFCURVE",
"84 509 CURVE SMOOTH",
"84 140 LINE SMOOTH",
"84 113 OFFCURVE",
"73 101 OFFCURVE",
"44 101 CURVE SMOOTH",
"21 101 LINE",
"21 0 LINE"
);
},
{
closed = 1;
nodes = (
"57 699 LINE",
"57 732 OFFCURVE",
"73 747 OFFCURVE",
"101 747 CURVE SMOOTH",
"146 747 OFFCURVE",
"179 699 OFFCURVE",
"255 699 CURVE SMOOTH",
"343 699 OFFCURVE",
"377 751 OFFCURVE",
"377 867 CURVE",
"269 867 LINE",
"269 834 OFFCURVE",
"255 818 OFFCURVE",
"225 818 CURVE SMOOTH",
"180 818 OFFCURVE",
"148 867 OFFCURVE",
"74 867 CURVE SMOOTH",
"-15 867 OFFCURVE",
"-52 812 OFFCURVE",
"-52 699 CURVE"
);
}
);
width = 325;
}
);
note = Itilde;
unicode = 0128;
},
{
glyphname = J;
lastChange = "2015-08-01 07:19:48 +0000";
layers = (
{
layerId = "9C7BFC1E-BC2B-47ED-B7E7-0F1FF6E98B93";
name = Bold;
paths = (
{
closed = 1;
nodes = (
"350 -15 OFFCURVE",
"425 61 OFFCURVE",
"425 187 CURVE SMOOTH",
"425 509 LINE SMOOTH",
"425 533 OFFCURVE",
"437 546 OFFCURVE",
"464 546 CURVE SMOOTH",
"488 546 LINE",
"488 647 LINE",
"204 647 LINE",
"204 546 LINE",
"228 546 LINE SMOOTH",
"256 546 OFFCURVE",
"267 533 OFFCURVE",
"267 509 CURVE SMOOTH",
"267 162 LINE SMOOTH",
"267 109 OFFCURVE",
"247 87 OFFCURVE",
"197 87 CURVE SMOOTH",
"171 87 OFFCURVE",
"147 96 OFFCURVE",
"131 112 CURVE",
"131 164 LINE",
"-9 164 LINE",
"-9 69 LINE",
"37 14 OFFCURVE",
"113 -15 OFFCURVE",
"207 -15 CURVE SMOOTH"
);
}
);
width = 509;
}
);
leftKerningGroup = J;
note = J;
rightKerningGroup = J;
unicode = 004A;
},
{
glyphname = Jcircumflex;
lastChange = "2015-08-01 07:19:48 +0000";
layers = (
{
layerId = "9C7BFC1E-BC2B-47ED-B7E7-0F1FF6E98B93";
name = Bold;
paths = (
{
closed = 1;
nodes = (
"350 -15 OFFCURVE",
"425 61 OFFCURVE",
"425 187 CURVE SMOOTH",
"425 509 LINE SMOOTH",
"425 533 OFFCURVE",
"437 546 OFFCURVE",
"464 546 CURVE SMOOTH",
"488 546 LINE",
"488 647 LINE",
"204 647 LINE",
"204 546 LINE",
"228 546 LINE SMOOTH",
"256 546 OFFCURVE",
"267 533 OFFCURVE",
"267 509 CURVE SMOOTH",
"267 162 LINE SMOOTH",
"267 109 OFFCURVE",
"247 87 OFFCURVE",
"197 87 CURVE SMOOTH",
"171 87 OFFCURVE",
"147 96 OFFCURVE",
"131 112 CURVE",
"131 164 LINE",
"-9 164 LINE",
"-9 69 LINE",
"37 14 OFFCURVE",
"113 -15 OFFCURVE",
"207 -15 CURVE SMOOTH"
);
},
{
closed = 1;
nodes = (
"273 698 LINE",
"337 812 LINE",
"400 698 LINE",
"541 698 LINE",
"406 896 LINE",
"270 896 LINE",
"134 698 LINE"
);
}
);
width = 530;
}
);
leftKerningGroup = J;
note = Jcircumflex;
rightKerningGroup = J;
unicode = 0134;
},
{
glyphname = K;
lastChange = "2015-08-01 07:19:47 +0000";
layers = (
{
layerId = "9C7BFC1E-BC2B-47ED-B7E7-0F1FF6E98B93";
name = Bold;
paths = (
{
closed = 1;
nodes = (
"287 0 LINE",
"287 101 LINE",
"274 101 LINE SMOOTH",
"250 101 OFFCURVE",
"242 117 OFFCURVE",
"242 138 CURVE SMOOTH",
"242 203 LINE",
"311 277 LINE",
"425 101 LINE",
"372 101 LINE",
"372 0 LINE",
"641 0 LINE",
"641 101 LINE",
"610 101 LINE SMOOTH",
"586 101 OFFCURVE",
"572 108 OFFCURVE",
"561 125 CURVE SMOOTH",
"401 369 LINE",
"546 523 LINE SMOOTH",
"559 537 OFFCURVE",
"569 546 OFFCURVE",
"598 546 CURVE SMOOTH",
"633 546 LINE",
"633 647 LINE",
"379 647 LINE",
"379 550 LINE",
"422 550 LINE",
"242 355 LINE",
"242 509 LINE SMOOTH",
"242 530 OFFCURVE",
"252 545 OFFCURVE",
"275 545 CURVE SMOOTH",
"287 545 LINE",
"287 647 LINE",
"21 647 LINE",
"21 546 LINE",
"45 546 LINE SMOOTH",
"73 546 OFFCURVE",
"84 533 OFFCURVE",
"84 509 CURVE SMOOTH",
"84 138 LINE SMOOTH",
"84 115 OFFCURVE",
"73 101 OFFCURVE",
"45 101 CURVE SMOOTH",
"21 101 LINE",
"21 0 LINE"
);
}
);
width = 662;
}
);
note = K;
rightKerningGroup = K;
unicode = 004B;
},
{
glyphname = Kcommaaccent;
lastChange = "2015-08-01 07:19:48 +0000";
layers = (
{
layerId = "9C7BFC1E-BC2B-47ED-B7E7-0F1FF6E98B93";
name = Bold;
paths = (
{
closed = 1;
nodes = (
"287 0 LINE",
"287 101 LINE",
"274 101 LINE SMOOTH",
"250 101 OFFCURVE",
"242 117 OFFCURVE",
"242 138 CURVE SMOOTH",
"242 203 LINE",
"311 277 LINE",
"425 101 LINE",
"372 101 LINE",
"372 0 LINE",
"641 0 LINE",
"641 101 LINE",
"610 101 LINE SMOOTH",
"586 101 OFFCURVE",
"572 108 OFFCURVE",
"561 125 CURVE SMOOTH",
"401 369 LINE",
"546 523 LINE SMOOTH",
"559 537 OFFCURVE",
"569 546 OFFCURVE",
"598 546 CURVE SMOOTH",
"633 546 LINE",
"633 647 LINE",
"379 647 LINE",
"379 550 LINE",
"422 550 LINE",
"242 355 LINE",
"242 509 LINE SMOOTH",
"242 530 OFFCURVE",
"252 545 OFFCURVE",
"275 545 CURVE SMOOTH",
"287 545 LINE",
"287 647 LINE",
"21 647 LINE",
"21 546 LINE",
"45 546 LINE SMOOTH",
"73 546 OFFCURVE",
"84 533 OFFCURVE",
"84 509 CURVE SMOOTH",
"84 138 LINE SMOOTH",
"84 115 OFFCURVE",
"73 101 OFFCURVE",
"45 101 CURVE SMOOTH",
"21 101 LINE",
"21 0 LINE"
);
},
{
closed = 1;
nodes = (
"353 -272 LINE",
"421 -49 LINE",
"257 -49 LINE",
"223 -272 LINE"
);
}
);
width = 662;
}
);
note = Kcommaaccent;
rightKerningGroup = K;
unicode = 0136;
},
{
glyphname = L;
lastChange = "2015-08-01 07:19:49 +0000";
layers = (
{
layerId = "9C7BFC1E-BC2B-47ED-B7E7-0F1FF6E98B93";
name = Bold;
paths = (
{
closed = 1;
nodes = (
"526 0 LINE",
"526 179 LINE",
"383 179 LINE",
"383 140 LINE SMOOTH",
"383 113 OFFCURVE",
"370 101 OFFCURVE",
"343 101 CURVE SMOOTH",
"242 101 LINE",
"242 509 LINE SMOOTH",
"242 533 OFFCURVE",
"254 546 OFFCURVE",
"282 546 CURVE SMOOTH",
"305 546 LINE",
"305 647 LINE",
"21 647 LINE",
"21 546 LINE",
"45 546 LINE SMOOTH",
"73 546 OFFCURVE",
"85 533 OFFCURVE",
"85 509 CURVE SMOOTH",
"85 140 LINE SMOOTH",
"85 113 OFFCURVE",
"73 101 OFFCURVE",
"44 101 CURVE SMOOTH",
"21 101 LINE",
"21 0 LINE"
);
}
);
width = 517;
}
);
note = L;
rightKerningGroup = L;
unicode = 004C;
},
{
glyphname = Lacute;
lastChange = "2015-08-01 07:19:49 +0000";
layers = (
{
layerId = "9C7BFC1E-BC2B-47ED-B7E7-0F1FF6E98B93";
name = Bold;
paths = (
{
closed = 1;
nodes = (
"526 0 LINE",
"526 179 LINE",
"383 179 LINE",
"383 140 LINE SMOOTH",
"383 113 OFFCURVE",
"370 101 OFFCURVE",
"343 101 CURVE SMOOTH",
"242 101 LINE",
"242 509 LINE SMOOTH",
"242 533 OFFCURVE",
"254 546 OFFCURVE",
"282 546 CURVE SMOOTH",
"305 546 LINE",
"305 647 LINE",
"21 647 LINE",
"21 546 LINE",
"45 546 LINE SMOOTH",
"73 546 OFFCURVE",
"85 533 OFFCURVE",
"85 509 CURVE SMOOTH",
"85 140 LINE SMOOTH",
"85 113 OFFCURVE",
"73 101 OFFCURVE",
"44 101 CURVE SMOOTH",
"21 101 LINE",
"21 0 LINE"
);
},
{
closed = 1;
nodes = (
"192 699 LINE",
"305 879 LINE",
"134 879 LINE",
"59 699 LINE"
);
}
);
width = 517;
}
);
note = Lacute;
rightKerningGroup = L;
unicode = 0139;
},
{
glyphname = Lcaron;
lastChange = "2015-08-01 07:19:48 +0000";
layers = (
{
layerId = "9C7BFC1E-BC2B-47ED-B7E7-0F1FF6E98B93";
name = Bold;
paths = (
{
closed = 1;
nodes = (
"526 0 LINE",
"526 179 LINE",
"383 179 LINE",
"383 140 LINE SMOOTH",
"383 113 OFFCURVE",
"370 101 OFFCURVE",
"343 101 CURVE SMOOTH",
"242 101 LINE",
"242 509 LINE SMOOTH",
"242 533 OFFCURVE",
"254 546 OFFCURVE",
"282 546 CURVE SMOOTH",
"305 546 LINE",
"305 647 LINE",
"21 647 LINE",
"21 546 LINE",
"45 546 LINE SMOOTH",
"73 546 OFFCURVE",
"85 533 OFFCURVE",
"85 509 CURVE SMOOTH",
"85 140 LINE SMOOTH",
"85 113 OFFCURVE",
"73 101 OFFCURVE",
"44 101 CURVE SMOOTH",
"21 101 LINE",
"21 0 LINE"
);
},
{
closed = 1;
nodes = (
"518 491 LINE",
"586 714 LINE",
"422 714 LINE",
"388 491 LINE"
);
}
);
width = 542;
}
);
note = Lcaron;
rightKerningGroup = L;
unicode = 013D;
},
{
glyphname = Lcommaaccent;
lastChange = "2015-08-01 07:19:48 +0000";
layers = (
{
layerId = "9C7BFC1E-BC2B-47ED-B7E7-0F1FF6E98B93";
name = Bold;
paths = (
{
closed = 1;
nodes = (
"526 0 LINE",
"526 179 LINE",
"383 179 LINE",
"383 140 LINE SMOOTH",
"383 113 OFFCURVE",
"370 101 OFFCURVE",
"343 101 CURVE SMOOTH",
"242 101 LINE",
"242 509 LINE SMOOTH",
"242 533 OFFCURVE",
"254 546 OFFCURVE",
"282 546 CURVE SMOOTH",
"305 546 LINE",
"305 647 LINE",
"21 647 LINE",
"21 546 LINE",
"45 546 LINE SMOOTH",
"73 546 OFFCURVE",
"85 533 OFFCURVE",
"85 509 CURVE SMOOTH",
"85 140 LINE SMOOTH",
"85 113 OFFCURVE",
"73 101 OFFCURVE",
"44 101 CURVE SMOOTH",
"21 101 LINE",
"21 0 LINE"
);
},
{
closed = 1;
nodes = (
"335 -272 LINE",
"403 -49 LINE",
"239 -49 LINE",
"205 -272 LINE"
);
}
);
width = 517;
}
);
note = Lcommaaccent;
rightKerningGroup = L;
unicode = 013B;
},
{
glyphname = Ldot;
lastChange = "2015-08-01 07:19:48 +0000";
layers = (
{
layerId = "9C7BFC1E-BC2B-47ED-B7E7-0F1FF6E98B93";
name = Bold;
paths = (
{
closed = 1;
nodes = (
"526 0 LINE",
"526 179 LINE",
"383 179 LINE",
"383 140 LINE SMOOTH",
"383 113 OFFCURVE",
"370 101 OFFCURVE",
"343 101 CURVE SMOOTH",
"242 101 LINE",
"242 509 LINE SMOOTH",
"242 533 OFFCURVE",
"254 546 OFFCURVE",
"282 546 CURVE SMOOTH",
"305 546 LINE",
"305 647 LINE",
"21 647 LINE",
"21 546 LINE",
"45 546 LINE SMOOTH",
"73 546 OFFCURVE",
"85 533 OFFCURVE",
"85 509 CURVE SMOOTH",
"85 140 LINE SMOOTH",
"85 113 OFFCURVE",
"73 101 OFFCURVE",
"44 101 CURVE SMOOTH",
"21 101 LINE",
"21 0 LINE"
);
},
{
closed = 1;
nodes = (
"437 302 LINE",
"437 425 LINE",
"320 425 LINE",
"320 302 LINE"
);
}
);
width = 517;
}
);
note = Ldot;
rightKerningGroup = L;
unicode = 013F;
},
{
glyphname = Ldotbelow;
lastChange = "2015-08-01 07:19:49 +0000";
layers = (
{
layerId = "9C7BFC1E-BC2B-47ED-B7E7-0F1FF6E98B93";
name = Bold;
paths = (
{
closed = 1;
nodes = (
"526 0 LINE",
"526 179 LINE",
"383 179 LINE",
"383 140 LINE SMOOTH",
"383 113 OFFCURVE",
"370 101 OFFCURVE",
"343 101 CURVE SMOOTH",
"242 101 LINE",
"242 509 LINE SMOOTH",
"242 533 OFFCURVE",
"254 546 OFFCURVE",
"282 546 CURVE SMOOTH",
"305 546 LINE",
"305 647 LINE",
"21 647 LINE",
"21 546 LINE",
"45 546 LINE SMOOTH",
"73 546 OFFCURVE",
"85 533 OFFCURVE",
"85 509 CURVE SMOOTH",
"85 140 LINE SMOOTH",
"85 113 OFFCURVE",
"73 101 OFFCURVE",
"44 101 CURVE SMOOTH",
"21 101 LINE",
"21 0 LINE"
);
},
{
closed = 1;
nodes = (
"315 -183 LINE",
"315 -61 LINE",
"199 -61 LINE",
"199 -183 LINE"
);
}
);
width = 517;
}
);
note = Ldotbelow;
rightKerningGroup = L;
unicode = 1E36;
},
{
glyphname = Ldotbelowmacron;
lastChange = "2015-08-01 07:19:48 +0000";
layers = (
{
layerId = "9C7BFC1E-BC2B-47ED-B7E7-0F1FF6E98B93";
name = Bold;
paths = (
{
closed = 1;
nodes = (
"548 0 LINE",
"548 179 LINE",
"405 179 LINE",
"405 140 LINE SMOOTH",
"405 113 OFFCURVE",
"392 101 OFFCURVE",
"365 101 CURVE SMOOTH",
"264 101 LINE",
"264 509 LINE SMOOTH",
"264 533 OFFCURVE",
"276 546 OFFCURVE",
"304 546 CURVE SMOOTH",
"327 546 LINE",
"327 647 LINE",
"43 647 LINE",
"43 546 LINE",
"67 546 LINE SMOOTH",
"95 546 OFFCURVE",
"107 533 OFFCURVE",
"107 509 CURVE SMOOTH",
"107 140 LINE SMOOTH",
"107 113 OFFCURVE",
"95 101 OFFCURVE",
"66 101 CURVE SMOOTH",
"43 101 LINE",
"43 0 LINE"
);
},
{
closed = 1;
nodes = (
"345 -183 LINE",
"345 -61 LINE",
"229 -61 LINE",
"229 -183 LINE"
);
},
{
closed = 1;
nodes = (
"330 706 LINE",
"330 798 LINE",
"23 798 LINE",
"23 706 LINE"
);
}
);
width = 538;
}
);
note = Ldotbelowmacron;
rightKerningGroup = L;
unicode = 1E38;
},
{
glyphname = Llinebelow;
lastChange = "2015-08-01 07:19:48 +0000";
layers = (
{
layerId = "9C7BFC1E-BC2B-47ED-B7E7-0F1FF6E98B93";
name = Bold;
paths = (
{
closed = 1;
nodes = (
"526 0 LINE",
"526 179 LINE",
"383 179 LINE",
"383 140 LINE SMOOTH",
"383 113 OFFCURVE",
"370 101 OFFCURVE",
"343 101 CURVE SMOOTH",
"242 101 LINE",
"242 509 LINE SMOOTH",
"242 533 OFFCURVE",
"254 546 OFFCURVE",
"282 546 CURVE SMOOTH",
"305 546 LINE",
"305 647 LINE",
"21 647 LINE",
"21 546 LINE",
"45 546 LINE SMOOTH",
"73 546 OFFCURVE",
"85 533 OFFCURVE",
"85 509 CURVE SMOOTH",
"85 140 LINE SMOOTH",
"85 113 OFFCURVE",
"73 101 OFFCURVE",
"44 101 CURVE SMOOTH",
"21 101 LINE",
"21 0 LINE"
);
},
{
closed = 1;
nodes = (
"415 -143 LINE",
"415 -51 LINE",
"108 -51 LINE",
"108 -143 LINE"
);
}
);
width = 517;
}
);
note = Llinebelow;
rightKerningGroup = L;
unicode = 1E3A;
},
{
glyphname = Lslash;
lastChange = "2015-08-01 07:19:47 +0000";
layers = (
{
layerId = "9C7BFC1E-BC2B-47ED-B7E7-0F1FF6E98B93";
name = Bold;
paths = (
{
closed = 1;
nodes = (
"527 0 LINE",
"527 179 LINE",
"384 179 LINE",
"384 140 LINE SMOOTH",
"384 113 OFFCURVE",
"371 101 OFFCURVE",
"344 101 CURVE SMOOTH",
"243 101 LINE",
"243 509 LINE SMOOTH",
"243 533 OFFCURVE",
"255 546 OFFCURVE",
"283 546 CURVE SMOOTH",
"306 546 LINE",
"306 647 LINE",
"22 647 LINE",
"22 546 LINE",
"46 546 LINE SMOOTH",
"74 546 OFFCURVE",
"86 533 OFFCURVE",
"86 509 CURVE SMOOTH",
"86 140 LINE SMOOTH",
"86 113 OFFCURVE",
"74 101 OFFCURVE",
"45 101 CURVE SMOOTH",
"22 101 LINE",
"22 0 LINE"
);
},
{
closed = 1;
nodes = (
"333 360 LINE",
"333 482 LINE",
"21 302 LINE",
"21 180 LINE"
);
}
);
width = 518;
}
);
note = Lslash;
rightKerningGroup = L;
unicode = 0141;
},
{
glyphname = M;
lastChange = "2015-07-31 16:52:57 +0000";
layers = (
{
layerId = "9C7BFC1E-BC2B-47ED-B7E7-0F1FF6E98B93";
name = Bold;
paths = (
{
closed = 1;
nodes = (
"303 0 LINE",
"303 101 LINE",
"279 101 LINE SMOOTH",
"251 101 OFFCURVE",
"239 114 OFFCURVE",
"239 138 CURVE SMOOTH",
"239 406 LINE",
"338 177 LINE",
"436 177 LINE",
"534 406 LINE",
"534 138 LINE SMOOTH",
"534 114 OFFCURVE",
"522 101 OFFCURVE",
"495 101 CURVE SMOOTH",
"471 101 LINE",
"471 0 LINE",
"752 0 LINE",
"752 101 LINE",
"728 101 LINE SMOOTH",
"701 101 OFFCURVE",
"690 113 OFFCURVE",
"690 140 CURVE SMOOTH",
"690 507 LINE SMOOTH",
"690 534 OFFCURVE",
"701 546 OFFCURVE",
"728 546 CURVE SMOOTH",
"752 546 LINE",
"752 647 LINE",
"533 647 LINE",
"388 310 LINE",
"241 647 LINE",
"21 647 LINE",
"21 546 LINE",
"45 546 LINE SMOOTH",
"73 546 OFFCURVE",
"85 534 OFFCURVE",
"85 507 CURVE SMOOTH",
"85 140 LINE SMOOTH",
"85 113 OFFCURVE",
"73 101 OFFCURVE",
"45 101 CURVE SMOOTH",
"21 101 LINE",
"21 0 LINE"
);
}
);
width = 774;
}
);
note = M;
unicode = 004D;
},
{
glyphname = Mdotbelow;
lastChange = "2015-07-31 16:52:59 +0000";
layers = (
{
layerId = "9C7BFC1E-BC2B-47ED-B7E7-0F1FF6E98B93";
name = Bold;
paths = (
{
closed = 1;
nodes = (
"303 0 LINE",
"303 101 LINE",
"279 101 LINE SMOOTH",
"251 101 OFFCURVE",
"239 114 OFFCURVE",
"239 138 CURVE SMOOTH",
"239 406 LINE",
"338 177 LINE",
"436 177 LINE",
"534 406 LINE",
"534 138 LINE SMOOTH",
"534 114 OFFCURVE",
"522 101 OFFCURVE",
"495 101 CURVE SMOOTH",
"471 101 LINE",
"471 0 LINE",
"752 0 LINE",
"752 101 LINE",
"728 101 LINE SMOOTH",
"701 101 OFFCURVE",
"690 113 OFFCURVE",
"690 140 CURVE SMOOTH",
"690 507 LINE SMOOTH",
"690 534 OFFCURVE",
"701 546 OFFCURVE",
"728 546 CURVE SMOOTH",
"752 546 LINE",
"752 647 LINE",
"533 647 LINE",
"388 310 LINE",
"241 647 LINE",
"21 647 LINE",
"21 546 LINE",
"45 546 LINE SMOOTH",
"73 546 OFFCURVE",
"85 534 OFFCURVE",
"85 507 CURVE SMOOTH",
"85 140 LINE SMOOTH",
"85 113 OFFCURVE",
"73 101 OFFCURVE",
"45 101 CURVE SMOOTH",
"21 101 LINE",
"21 0 LINE"
);
},
{
closed = 1;
nodes = (
"446 -183 LINE",
"446 -61 LINE",
"330 -61 LINE",
"330 -183 LINE"
);
}
);
width = 774;
}
);
note = Mdotbelow;
unicode = 1E42;
},
{
glyphname = N;
lastChange = "2015-07-31 16:52:57 +0000";
layers = (
{
layerId = "9C7BFC1E-BC2B-47ED-B7E7-0F1FF6E98B93";
name = Bold;
paths = (
{
closed = 1;
nodes = (
"304 0 LINE",
"304 101 LINE",
"280 101 LINE SMOOTH",
"253 101 OFFCURVE",
"241 115 OFFCURVE",
"241 138 CURVE SMOOTH",
"241 392 LINE",
"494 0 LINE",
"611 0 LINE",
"611 509 LINE SMOOTH",
"611 533 OFFCURVE",
"623 546 OFFCURVE",
"650 546 CURVE SMOOTH",
"674 546 LINE",
"674 647 LINE",
"391 647 LINE",
"391 546 LINE",
"415 546 LINE SMOOTH",
"443 546 OFFCURVE",
"455 533 OFFCURVE",
"455 509 CURVE SMOOTH",
"455 252 LINE",
"201 647 LINE",
"21 647 LINE",
"21 546 LINE",
"45 546 LINE SMOOTH",
"73 546 OFFCURVE",
"84 533 OFFCURVE",
"84 509 CURVE SMOOTH",
"84 138 LINE SMOOTH",
"84 115 OFFCURVE",
"73 101 OFFCURVE",
"45 101 CURVE SMOOTH",
"21 101 LINE",
"21 0 LINE"
);
}
);
width = 695;
}
);
note = N;
unicode = 004E;
},
{
glyphname = Nacute;
lastChange = "2015-07-31 16:52:59 +0000";
layers = (
{
layerId = "9C7BFC1E-BC2B-47ED-B7E7-0F1FF6E98B93";
name = Bold;
paths = (
{
closed = 1;
nodes = (
"304 0 LINE",
"304 101 LINE",
"280 101 LINE SMOOTH",
"253 101 OFFCURVE",
"241 115 OFFCURVE",
"241 138 CURVE SMOOTH",
"241 392 LINE",
"494 0 LINE",
"611 0 LINE",
"611 509 LINE SMOOTH",
"611 533 OFFCURVE",
"623 546 OFFCURVE",
"650 546 CURVE SMOOTH",
"674 546 LINE",
"674 647 LINE",
"391 647 LINE",
"391 546 LINE",
"415 546 LINE SMOOTH",
"443 546 OFFCURVE",
"455 533 OFFCURVE",
"455 509 CURVE SMOOTH",
"455 252 LINE",
"201 647 LINE",
"21 647 LINE",
"21 546 LINE",
"45 546 LINE SMOOTH",
"73 546 OFFCURVE",
"84 533 OFFCURVE",
"84 509 CURVE SMOOTH",
"84 138 LINE SMOOTH",
"84 115 OFFCURVE",
"73 101 OFFCURVE",
"45 101 CURVE SMOOTH",
"21 101 LINE",
"21 0 LINE"
);
},
{
closed = 1;
nodes = (
"387 699 LINE",
"500 879 LINE",
"329 879 LINE",
"254 699 LINE"
);
}
);
width = 695;
}
);
note = Nacute;
unicode = 0143;
},
{
glyphname = Ncaron;
lastChange = "2015-07-31 16:52:58 +0000";
layers = (
{
layerId = "9C7BFC1E-BC2B-47ED-B7E7-0F1FF6E98B93";
name = Bold;
paths = (
{
closed = 1;
nodes = (
"304 0 LINE",
"304 101 LINE",
"280 101 LINE SMOOTH",
"253 101 OFFCURVE",
"241 115 OFFCURVE",
"241 138 CURVE SMOOTH",
"241 392 LINE",
"494 0 LINE",
"611 0 LINE",
"611 509 LINE SMOOTH",
"611 533 OFFCURVE",
"623 546 OFFCURVE",
"650 546 CURVE SMOOTH",
"674 546 LINE",
"674 647 LINE",
"391 647 LINE",
"391 546 LINE",
"415 546 LINE SMOOTH",
"443 546 OFFCURVE",
"455 533 OFFCURVE",
"455 509 CURVE SMOOTH",
"455 252 LINE",
"201 647 LINE",
"21 647 LINE",
"21 546 LINE",
"45 546 LINE SMOOTH",
"73 546 OFFCURVE",
"84 533 OFFCURVE",
"84 509 CURVE SMOOTH",
"84 138 LINE SMOOTH",
"84 115 OFFCURVE",
"73 101 OFFCURVE",
"45 101 CURVE SMOOTH",
"21 101 LINE",
"21 0 LINE"
);
},
{
closed = 1;
nodes = (
"400 698 LINE",
"535 896 LINE",
"394 896 LINE",
"331 782 LINE",
"267 896 LINE",
"128 896 LINE",
"264 698 LINE"
);
}
);
width = 695;
}
);
note = Ncaron;
unicode = 0147;
},
{
glyphname = Ncommaaccent;
lastChange = "2015-07-31 16:52:59 +0000";
layers = (
{
layerId = "9C7BFC1E-BC2B-47ED-B7E7-0F1FF6E98B93";
name = Bold;
paths = (
{
closed = 1;
nodes = (
"304 0 LINE",
"304 101 LINE",
"280 101 LINE SMOOTH",
"253 101 OFFCURVE",
"241 115 OFFCURVE",
"241 138 CURVE SMOOTH",
"241 392 LINE",
"494 0 LINE",
"611 0 LINE",
"611 509 LINE SMOOTH",
"611 533 OFFCURVE",
"623 546 OFFCURVE",
"650 546 CURVE SMOOTH",
"674 546 LINE",
"674 647 LINE",
"391 647 LINE",
"391 546 LINE",
"415 546 LINE SMOOTH",
"443 546 OFFCURVE",
"455 533 OFFCURVE",
"455 509 CURVE SMOOTH",
"455 252 LINE",
"201 647 LINE",
"21 647 LINE",
"21 546 LINE",
"45 546 LINE SMOOTH",
"73 546 OFFCURVE",
"84 533 OFFCURVE",
"84 509 CURVE SMOOTH",
"84 138 LINE SMOOTH",
"84 115 OFFCURVE",
"73 101 OFFCURVE",
"45 101 CURVE SMOOTH",
"21 101 LINE",
"21 0 LINE"
);
},
{
closed = 1;
nodes = (
"405 -272 LINE",
"473 -49 LINE",
"309 -49 LINE",
"275 -272 LINE"
);
}
);
width = 695;
}
);
note = Ncommaaccent;
unicode = 0145;
},
{
glyphname = Ndotaccent;
lastChange = "2015-07-31 16:52:59 +0000";
layers = (
{
layerId = "9C7BFC1E-BC2B-47ED-B7E7-0F1FF6E98B93";
name = Bold;
paths = (
{
closed = 1;
nodes = (
"304 0 LINE",
"304 101 LINE",
"280 101 LINE SMOOTH",
"253 101 OFFCURVE",
"241 115 OFFCURVE",
"241 138 CURVE SMOOTH",
"241 392 LINE",
"494 0 LINE",
"611 0 LINE",
"611 509 LINE SMOOTH",
"611 533 OFFCURVE",
"623 546 OFFCURVE",
"650 546 CURVE SMOOTH",
"674 546 LINE",
"674 647 LINE",
"391 647 LINE",
"391 546 LINE",
"415 546 LINE SMOOTH",
"443 546 OFFCURVE",
"455 533 OFFCURVE",
"455 509 CURVE SMOOTH",
"455 252 LINE",
"201 647 LINE",
"21 647 LINE",
"21 546 LINE",
"45 546 LINE SMOOTH",
"73 546 OFFCURVE",
"84 533 OFFCURVE",
"84 509 CURVE SMOOTH",
"84 138 LINE SMOOTH",
"84 115 OFFCURVE",
"73 101 OFFCURVE",
"45 101 CURVE SMOOTH",
"21 101 LINE",
"21 0 LINE"
);
},
{
closed = 1;
nodes = (
"395 718 LINE",
"395 840 LINE",
"279 840 LINE",
"279 718 LINE"
);
}
);
width = 695;
}
);
note = Ndotaccent;
unicode = 1E44;
},
{
glyphname = Ndotbelow;
lastChange = "2015-07-31 16:52:58 +0000";
layers = (
{
layerId = "9C7BFC1E-BC2B-47ED-B7E7-0F1FF6E98B93";
name = Bold;
paths = (
{
closed = 1;
nodes = (
"304 0 LINE",
"304 101 LINE",
"280 101 LINE SMOOTH",
"253 101 OFFCURVE",
"241 115 OFFCURVE",
"241 138 CURVE SMOOTH",
"241 392 LINE",
"494 0 LINE",
"611 0 LINE",
"611 509 LINE SMOOTH",
"611 533 OFFCURVE",
"623 546 OFFCURVE",
"650 546 CURVE SMOOTH",
"674 546 LINE",
"674 647 LINE",
"391 647 LINE",
"391 546 LINE",
"415 546 LINE SMOOTH",
"443 546 OFFCURVE",
"455 533 OFFCURVE",
"455 509 CURVE SMOOTH",
"455 252 LINE",
"201 647 LINE",
"21 647 LINE",
"21 546 LINE",
"45 546 LINE SMOOTH",
"73 546 OFFCURVE",
"84 533 OFFCURVE",
"84 509 CURVE SMOOTH",
"84 138 LINE SMOOTH",
"84 115 OFFCURVE",
"73 101 OFFCURVE",
"45 101 CURVE SMOOTH",
"21 101 LINE",
"21 0 LINE"
);
},
{
closed = 1;
nodes = (
"405 -183 LINE",
"405 -61 LINE",
"289 -61 LINE",
"289 -183 LINE"
);
}
);
width = 695;
}
);
note = Ndotbelow;
unicode = 1E46;
},
{
glyphname = Eng;
lastChange = "2015-07-31 16:52:58 +0000";
layers = (
{
layerId = "9C7BFC1E-BC2B-47ED-B7E7-0F1FF6E98B93";
name = Bold;
paths = (
{
closed = 1;
nodes = (
"544 -285 OFFCURVE",
"611 -223 OFFCURVE",
"611 -110 CURVE SMOOTH",
"611 509 LINE SMOOTH",
"611 533 OFFCURVE",
"623 546 OFFCURVE",
"650 546 CURVE SMOOTH",
"674 546 LINE",
"674 647 LINE",
"391 647 LINE",
"391 546 LINE",
"415 546 LINE SMOOTH",
"443 546 OFFCURVE",
"455 533 OFFCURVE",
"455 509 CURVE SMOOTH",
"455 252 LINE",
"201 647 LINE",
"21 647 LINE",
"21 546 LINE",
"45 546 LINE SMOOTH",
"73 546 OFFCURVE",
"84 533 OFFCURVE",
"84 509 CURVE SMOOTH",
"84 138 LINE SMOOTH",
"84 115 OFFCURVE",
"73 101 OFFCURVE",
"45 101 CURVE SMOOTH",
"21 101 LINE",
"21 0 LINE",
"304 0 LINE",
"304 101 LINE",
"280 101 LINE SMOOTH",
"253 101 OFFCURVE",
"241 115 OFFCURVE",
"241 138 CURVE SMOOTH",
"241 392 LINE",
"453 63 LINE",
"453 -130 LINE SMOOTH",
"453 -172 OFFCURVE",
"431 -185 OFFCURVE",
"395 -185 CURVE SMOOTH",
"371 -185 OFFCURVE",
"355 -180 OFFCURVE",
"339 -167 CURVE",
"339 -126 LINE",
"212 -126 LINE",
"212 -227 LINE",
"255 -263 OFFCURVE",
"320 -285 OFFCURVE",
"403 -285 CURVE SMOOTH"
);
}
);
width = 695;
}
);
note = Eng;
unicode = 014A;
},
{
glyphname = Nlinebelow;
lastChange = "2015-07-31 16:52:58 +0000";
layers = (
{
layerId = "9C7BFC1E-BC2B-47ED-B7E7-0F1FF6E98B93";
name = Bold;
paths = (
{
closed = 1;
nodes = (
"304 0 LINE",
"304 101 LINE",
"280 101 LINE SMOOTH",
"253 101 OFFCURVE",
"241 115 OFFCURVE",
"241 138 CURVE SMOOTH",
"241 392 LINE",
"494 0 LINE",
"611 0 LINE",
"611 509 LINE SMOOTH",
"611 533 OFFCURVE",
"623 546 OFFCURVE",
"650 546 CURVE SMOOTH",
"674 546 LINE",
"674 647 LINE",
"391 647 LINE",
"391 546 LINE",
"415 546 LINE SMOOTH",
"443 546 OFFCURVE",
"455 533 OFFCURVE",
"455 509 CURVE SMOOTH",
"455 252 LINE",
"201 647 LINE",
"21 647 LINE",
"21 546 LINE",
"45 546 LINE SMOOTH",
"73 546 OFFCURVE",
"84 533 OFFCURVE",
"84 509 CURVE SMOOTH",
"84 138 LINE SMOOTH",
"84 115 OFFCURVE",
"73 101 OFFCURVE",
"45 101 CURVE SMOOTH",
"21 101 LINE",
"21 0 LINE"
);
},
{
closed = 1;
nodes = (
"487 -143 LINE",
"487 -51 LINE",
"180 -51 LINE",
"180 -143 LINE"
);
}
);
width = 695;
}
);
note = Nlinebelow;
unicode = 1E48;
},
{
glyphname = Ntilde;
lastChange = "2015-07-31 16:52:59 +0000";
layers = (
{
layerId = "9C7BFC1E-BC2B-47ED-B7E7-0F1FF6E98B93";
name = Bold;
paths = (
{
closed = 1;
nodes = (
"304 0 LINE",
"304 101 LINE",
"280 101 LINE SMOOTH",
"253 101 OFFCURVE",
"241 115 OFFCURVE",
"241 138 CURVE SMOOTH",
"241 392 LINE",
"494 0 LINE",
"611 0 LINE",
"611 509 LINE SMOOTH",
"611 533 OFFCURVE",
"623 546 OFFCURVE",
"650 546 CURVE SMOOTH",
"674 546 LINE",
"674 647 LINE",
"391 647 LINE",
"391 546 LINE",
"415 546 LINE SMOOTH",
"443 546 OFFCURVE",
"455 533 OFFCURVE",
"455 509 CURVE SMOOTH",
"455 252 LINE",
"201 647 LINE",
"21 647 LINE",
"21 546 LINE",
"45 546 LINE SMOOTH",
"73 546 OFFCURVE",
"84 533 OFFCURVE",
"84 509 CURVE SMOOTH",
"84 138 LINE SMOOTH",
"84 115 OFFCURVE",
"73 101 OFFCURVE",
"45 101 CURVE SMOOTH",
"21 101 LINE",
"21 0 LINE"
);
},
{
closed = 1;
nodes = (
"232 699 LINE",
"232 732 OFFCURVE",
"248 747 OFFCURVE",
"276 747 CURVE SMOOTH",
"321 747 OFFCURVE",
"354 699 OFFCURVE",
"430 699 CURVE SMOOTH",
"518 699 OFFCURVE",
"552 751 OFFCURVE",
"552 867 CURVE",
"444 867 LINE",
"444 834 OFFCURVE",
"430 818 OFFCURVE",
"400 818 CURVE SMOOTH",
"355 818 OFFCURVE",
"323 867 OFFCURVE",
"249 867 CURVE SMOOTH",
"160 867 OFFCURVE",
"123 812 OFFCURVE",
"123 699 CURVE"
);
}
);
width = 695;
}
);
note = Ntilde;
unicode = 00D1;
},
{
glyphname = O;
lastChange = "2015-08-01 07:19:49 +0000";
layers = (
{
layerId = "9C7BFC1E-BC2B-47ED-B7E7-0F1FF6E98B93";
name = Bold;
paths = (
{
closed = 1;
nodes = (
"544 -15 OFFCURVE",
"645 97 OFFCURVE",
"645 321 CURVE SMOOTH",
"645 545 OFFCURVE",
"552 662 OFFCURVE",
"333 662 CURVE SMOOTH",
"114 662 OFFCURVE",
"21 545 OFFCURVE",
"21 321 CURVE SMOOTH",
"21 97 OFFCURVE",
"122 -15 OFFCURVE",
"333 -15 CURVE SMOOTH"
);
},
{
closed = 1;
nodes = (
"223 87 OFFCURVE",
"177 150 OFFCURVE",
"177 321 CURVE SMOOTH",
"177 496 OFFCURVE",
"222 560 OFFCURVE",
"333 560 CURVE SMOOTH",
"444 560 OFFCURVE",
"490 496 OFFCURVE",
"490 321 CURVE SMOOTH",
"490 150 OFFCURVE",
"444 87 OFFCURVE",
"333 87 CURVE SMOOTH"
);
}
);
width = 666;
}
);
leftKerningGroup = O;
note = O;
rightKerningGroup = O;
unicode = 004F;
},
{
glyphname = Oacute;
lastChange = "2015-08-01 07:19:48 +0000";
layers = (
{
layerId = "9C7BFC1E-BC2B-47ED-B7E7-0F1FF6E98B93";
name = Bold;
paths = (
{
closed = 1;
nodes = (
"544 -15 OFFCURVE",
"645 97 OFFCURVE",
"645 321 CURVE SMOOTH",
"645 545 OFFCURVE",
"552 662 OFFCURVE",
"333 662 CURVE SMOOTH",
"114 662 OFFCURVE",
"21 545 OFFCURVE",
"21 321 CURVE SMOOTH",
"21 97 OFFCURVE",
"122 -15 OFFCURVE",
"333 -15 CURVE SMOOTH"
);
},
{
closed = 1;
nodes = (
"223 87 OFFCURVE",
"177 150 OFFCURVE",
"177 321 CURVE SMOOTH",
"177 496 OFFCURVE",
"222 560 OFFCURVE",
"333 560 CURVE SMOOTH",
"444 560 OFFCURVE",
"490 496 OFFCURVE",
"490 321 CURVE SMOOTH",
"490 150 OFFCURVE",
"444 87 OFFCURVE",
"333 87 CURVE SMOOTH"
);
},
{
closed = 1;
nodes = (
"389 699 LINE",
"502 879 LINE",
"331 879 LINE",
"256 699 LINE"
);
}
);
width = 666;
}
);
leftKerningGroup = O;
note = Oacute;
rightKerningGroup = O;
unicode = 00D3;
},
{
glyphname = Obreve;
lastChange = "2015-08-01 07:19:49 +0000";
layers = (
{
layerId = "9C7BFC1E-BC2B-47ED-B7E7-0F1FF6E98B93";
name = Bold;
paths = (
{
closed = 1;
nodes = (
"544 -15 OFFCURVE",
"645 97 OFFCURVE",
"645 321 CURVE SMOOTH",
"645 545 OFFCURVE",
"552 662 OFFCURVE",
"333 662 CURVE SMOOTH",
"114 662 OFFCURVE",
"21 545 OFFCURVE",
"21 321 CURVE SMOOTH",
"21 97 OFFCURVE",
"122 -15 OFFCURVE",
"333 -15 CURVE SMOOTH"
);
},
{
closed = 1;
nodes = (
"223 87 OFFCURVE",
"177 150 OFFCURVE",
"177 321 CURVE SMOOTH",
"177 496 OFFCURVE",
"222 560 OFFCURVE",
"333 560 CURVE SMOOTH",
"444 560 OFFCURVE",
"490 496 OFFCURVE",
"490 321 CURVE SMOOTH",
"490 150 OFFCURVE",
"444 87 OFFCURVE",
"333 87 CURVE SMOOTH"
);
},
{
closed = 1;
nodes = (
"449 698 OFFCURVE",
"513 760 OFFCURVE",
"513 854 CURVE",
"383 854 LINE",
"383 815 OFFCURVE",
"372 791 OFFCURVE",
"335 791 CURVE SMOOTH",
"302 791 OFFCURVE",
"287 815 OFFCURVE",
"287 854 CURVE",
"157 854 LINE",
"157 760 OFFCURVE",
"221 698 OFFCURVE",
"335 698 CURVE SMOOTH"
);
}
);
width = 666;
}
);
leftKerningGroup = O;
note = Obreve;
rightKerningGroup = O;
unicode = 014E;
},
{
glyphname = Ocaron;
lastChange = "2015-08-01 07:19:49 +0000";
layers = (
{
layerId = "9C7BFC1E-BC2B-47ED-B7E7-0F1FF6E98B93";
name = Bold;
paths = (
{
closed = 1;
nodes = (
"544 -15 OFFCURVE",
"645 97 OFFCURVE",
"645 321 CURVE SMOOTH",
"645 545 OFFCURVE",
"552 662 OFFCURVE",
"333 662 CURVE SMOOTH",
"114 662 OFFCURVE",
"21 545 OFFCURVE",
"21 321 CURVE SMOOTH",
"21 97 OFFCURVE",
"122 -15 OFFCURVE",
"333 -15 CURVE SMOOTH"
);
},
{
closed = 1;
nodes = (
"223 87 OFFCURVE",
"177 150 OFFCURVE",
"177 321 CURVE SMOOTH",
"177 496 OFFCURVE",
"222 560 OFFCURVE",
"333 560 CURVE SMOOTH",
"444 560 OFFCURVE",
"490 496 OFFCURVE",
"490 321 CURVE SMOOTH",
"490 150 OFFCURVE",
"444 87 OFFCURVE",
"333 87 CURVE SMOOTH"
);
},
{
closed = 1;
nodes = (
"401 698 LINE",
"536 896 LINE",
"395 896 LINE",
"332 782 LINE",
"268 896 LINE",
"129 896 LINE",
"265 698 LINE"
);
}
);
width = 666;
}
);
leftKerningGroup = O;
note = Ocaron;
rightKerningGroup = O;
unicode = 01D1;
},
{
glyphname = Ocircumflex;
lastChange = "2015-08-01 07:19:48 +0000";
layers = (
{
layerId = "9C7BFC1E-BC2B-47ED-B7E7-0F1FF6E98B93";
name = Bold;
paths = (
{
closed = 1;
nodes = (
"544 -15 OFFCURVE",
"645 97 OFFCURVE",
"645 321 CURVE SMOOTH",
"645 545 OFFCURVE",
"552 662 OFFCURVE",
"333 662 CURVE SMOOTH",
"114 662 OFFCURVE",
"21 545 OFFCURVE",
"21 321 CURVE SMOOTH",
"21 97 OFFCURVE",
"122 -15 OFFCURVE",
"333 -15 CURVE SMOOTH"
);
},
{
closed = 1;
nodes = (
"223 87 OFFCURVE",
"177 150 OFFCURVE",
"177 321 CURVE SMOOTH",
"177 496 OFFCURVE",
"222 560 OFFCURVE",
"333 560 CURVE SMOOTH",
"444 560 OFFCURVE",
"490 496 OFFCURVE",
"490 321 CURVE SMOOTH",
"490 150 OFFCURVE",
"444 87 OFFCURVE",
"333 87 CURVE SMOOTH"
);
},
{
closed = 1;
nodes = (
"269 698 LINE",
"333 812 LINE",
"396 698 LINE",
"537 698 LINE",
"402 896 LINE",
"266 896 LINE",
"130 698 LINE"
);
}
);
width = 666;
}
);
leftKerningGroup = O;
note = Ocircumflex;
rightKerningGroup = O;
unicode = 00D4;
},
{
glyphname = Ocircumflexacute;
lastChange = "2015-08-01 07:19:48 +0000";
layers = (
{
layerId = "9C7BFC1E-BC2B-47ED-B7E7-0F1FF6E98B93";
name = Bold;
paths = (
{
closed = 1;
nodes = (
"544 -15 OFFCURVE",
"645 97 OFFCURVE",
"645 321 CURVE SMOOTH",
"645 545 OFFCURVE",
"552 662 OFFCURVE",
"333 662 CURVE SMOOTH",
"114 662 OFFCURVE",
"21 545 OFFCURVE",
"21 321 CURVE SMOOTH",
"21 97 OFFCURVE",
"122 -15 OFFCURVE",
"333 -15 CURVE SMOOTH"
);
},
{
closed = 1;
nodes = (
"223 87 OFFCURVE",
"177 150 OFFCURVE",
"177 321 CURVE SMOOTH",
"177 496 OFFCURVE",
"222 560 OFFCURVE",
"333 560 CURVE SMOOTH",
"444 560 OFFCURVE",
"490 496 OFFCURVE",
"490 321 CURVE SMOOTH",
"490 150 OFFCURVE",
"444 87 OFFCURVE",
"333 87 CURVE SMOOTH"
);
},
{
closed = 1;
nodes = (
"278 699 LINE",
"330 770 LINE",
"378 699 LINE",
"509 699 LINE",
"395 840 LINE",
"264 840 LINE",
"150 699 LINE"
);
},
{
closed = 1;
nodes = (
"546 812 LINE",
"648 951 LINE",
"500 951 LINE",
"437 812 LINE"
);
}
);
width = 656;
}
);
leftKerningGroup = O;
note = Ocircumflexacute;
rightKerningGroup = O;
unicode = 1ED0;
},
{
glyphname = Ocircumflexdotbelow;
lastChange = "2015-08-01 07:19:49 +0000";
layers = (
{
layerId = "9C7BFC1E-BC2B-47ED-B7E7-0F1FF6E98B93";
name = Bold;
paths = (
{
closed = 1;
nodes = (
"544 -15 OFFCURVE",
"645 97 OFFCURVE",
"645 321 CURVE SMOOTH",
"645 545 OFFCURVE",
"552 662 OFFCURVE",
"333 662 CURVE SMOOTH",
"114 662 OFFCURVE",
"21 545 OFFCURVE",
"21 321 CURVE SMOOTH",
"21 97 OFFCURVE",
"122 -15 OFFCURVE",
"333 -15 CURVE SMOOTH"
);
},
{
closed = 1;
nodes = (
"392 -183 LINE",
"392 -61 LINE",
"276 -61 LINE",
"276 -183 LINE"
);
},
{
closed = 1;
nodes = (
"223 87 OFFCURVE",
"177 150 OFFCURVE",
"177 321 CURVE SMOOTH",
"177 496 OFFCURVE",
"222 560 OFFCURVE",
"333 560 CURVE SMOOTH",
"444 560 OFFCURVE",
"490 496 OFFCURVE",
"490 321 CURVE SMOOTH",
"490 150 OFFCURVE",
"444 87 OFFCURVE",
"333 87 CURVE SMOOTH"
);
},
{
closed = 1;
nodes = (
"270 698 LINE",
"334 812 LINE",
"397 698 LINE",
"538 698 LINE",
"403 896 LINE",
"267 896 LINE",
"131 698 LINE"
);
}
);
width = 666;
}
);
leftKerningGroup = O;
note = Ocircumflexdotbelow;
rightKerningGroup = O;
unicode = 1ED8;
},
{
glyphname = Ocircumflexgrave;
lastChange = "2015-08-01 07:19:49 +0000";
layers = (
{
layerId = "9C7BFC1E-BC2B-47ED-B7E7-0F1FF6E98B93";
name = Bold;
paths = (
{
closed = 1;
nodes = (
"561 -15 OFFCURVE",
"662 97 OFFCURVE",
"662 321 CURVE SMOOTH",
"662 545 OFFCURVE",
"569 662 OFFCURVE",
"350 662 CURVE SMOOTH",
"131 662 OFFCURVE",
"38 545 OFFCURVE",
"38 321 CURVE SMOOTH",
"38 97 OFFCURVE",
"139 -15 OFFCURVE",
"350 -15 CURVE SMOOTH"
);
},
{
closed = 1;
nodes = (
"240 87 OFFCURVE",
"194 150 OFFCURVE",
"194 321 CURVE SMOOTH",
"194 496 OFFCURVE",
"239 560 OFFCURVE",
"350 560 CURVE SMOOTH",
"461 560 OFFCURVE",
"507 496 OFFCURVE",
"507 321 CURVE SMOOTH",
"507 150 OFFCURVE",
"461 87 OFFCURVE",
"350 87 CURVE SMOOTH"
);
},
{
closed = 1;
nodes = (
"241 812 LINE",
"178 951 LINE",
"30 951 LINE",
"132 812 LINE"
);
},
{
closed = 1;
nodes = (
"300 699 LINE",
"348 770 LINE",
"400 699 LINE",
"528 699 LINE",
"414 840 LINE",
"283 840 LINE",
"169 699 LINE"
);
}
);
width = 683;
}
);
leftKerningGroup = O;
note = Ocircumflexgrave;
rightKerningGroup = O;
unicode = 1ED2;
},
{
glyphname = Ocircumflexhookabove;
lastChange = "2015-08-01 07:19:48 +0000";
layers = (
{
layerId = "9C7BFC1E-BC2B-47ED-B7E7-0F1FF6E98B93";
name = Bold;
paths = (
{
closed = 1;
nodes = (
"544 -15 OFFCURVE",
"645 97 OFFCURVE",
"645 321 CURVE SMOOTH",
"645 545 OFFCURVE",
"552 662 OFFCURVE",
"333 662 CURVE SMOOTH",
"114 662 OFFCURVE",
"21 545 OFFCURVE",
"21 321 CURVE SMOOTH",
"21 97 OFFCURVE",
"122 -15 OFFCURVE",
"333 -15 CURVE SMOOTH"
);
},
{
closed = 1;
nodes = (
"223 87 OFFCURVE",
"177 150 OFFCURVE",
"177 321 CURVE SMOOTH",
"177 496 OFFCURVE",
"222 560 OFFCURVE",
"333 560 CURVE SMOOTH",
"444 560 OFFCURVE",
"490 496 OFFCURVE",
"490 321 CURVE SMOOTH",
"490 150 OFFCURVE",
"444 87 OFFCURVE",
"333 87 CURVE SMOOTH"
);
},
{
closed = 1;
nodes = (
"281 699 LINE",
"329 770 LINE",
"381 699 LINE",
"509 699 LINE",
"395 840 LINE",
"264 840 LINE",
"151 699 LINE"
);
},
{
closed = 1;
nodes = (
"512 836 LINE",
"512 859 LINE",
"544 869 OFFCURVE",
"559 889 OFFCURVE",
"559 920 CURVE SMOOTH",
"559 966 OFFCURVE",
"526 988 OFFCURVE",
"462 988 CURVE SMOOTH",
"433 988 OFFCURVE",
"409 984 OFFCURVE",
"394 979 CURVE",
"394 919 LINE",
"404 923 OFFCURVE",
"416 926 OFFCURVE",
"429 926 CURVE SMOOTH",
"447 926 OFFCURVE",
"458 918 OFFCURVE",
"458 904 CURVE SMOOTH",
"458 887 OFFCURVE",
"448 877 OFFCURVE",
"414 877 CURVE",
"414 836 LINE"
);
}
);
width = 666;
}
);
leftKerningGroup = O;
note = Ocircumflexhookabove;
rightKerningGroup = O;
unicode = 1ED4;
},
{
glyphname = Ocircumflextilde;
lastChange = "2015-08-01 07:19:47 +0000";
layers = (
{
layerId = "9C7BFC1E-BC2B-47ED-B7E7-0F1FF6E98B93";
name = Bold;
paths = (
{
closed = 1;
nodes = (
"544 -15 OFFCURVE",
"645 97 OFFCURVE",
"645 321 CURVE SMOOTH",
"645 545 OFFCURVE",
"552 662 OFFCURVE",
"333 662 CURVE SMOOTH",
"114 662 OFFCURVE",
"21 545 OFFCURVE",
"21 321 CURVE SMOOTH",
"21 97 OFFCURVE",
"122 -15 OFFCURVE",
"333 -15 CURVE SMOOTH"
);
},
{
closed = 1;
nodes = (
"223 87 OFFCURVE",
"177 150 OFFCURVE",
"177 321 CURVE SMOOTH",
"177 496 OFFCURVE",
"222 560 OFFCURVE",
"333 560 CURVE SMOOTH",
"444 560 OFFCURVE",
"490 496 OFFCURVE",
"490 321 CURVE SMOOTH",
"490 150 OFFCURVE",
"444 87 OFFCURVE",
"333 87 CURVE SMOOTH"
);
},
{
closed = 1;
nodes = (
"437 698 OFFCURVE",
"522 758 OFFCURVE",
"522 866 CURVE",
"415 866 LINE",
"415 816 OFFCURVE",
"394 785 OFFCURVE",
"334 785 CURVE SMOOTH",
"278 785 OFFCURVE",
"255 816 OFFCURVE",
"255 866 CURVE",
"148 866 LINE",
"148 758 OFFCURVE",
"233 698 OFFCURVE",
"334 698 CURVE SMOOTH"
);
},
{
closed = 1;
nodes = (
"467 890 OFFCURVE",
"488 925 OFFCURVE",
"488 991 CURVE",
"418 991 LINE",
"418 970 OFFCURVE",
"410 960 OFFCURVE",
"387 960 CURVE SMOOTH",
"356 960 OFFCURVE",
"324 995 OFFCURVE",
"270 995 CURVE SMOOTH",
"207 995 OFFCURVE",
"181 962 OFFCURVE",
"181 893 CURVE",
"251 893 LINE",
"251 916 OFFCURVE",
"261 925 OFFCURVE",
"282 925 CURVE SMOOTH",
"313 925 OFFCURVE",
"358 890 OFFCURVE",
"404 890 CURVE SMOOTH"
);
}
);
width = 666;
}
);
leftKerningGroup = O;
note = Ocircumflextilde;
rightKerningGroup = O;
unicode = 1ED6;
},
{
glyphname = Odieresis;
lastChange = "2015-08-01 07:19:47 +0000";
layers = (
{
layerId = "9C7BFC1E-BC2B-47ED-B7E7-0F1FF6E98B93";
name = Bold;
paths = (
{
closed = 1;
nodes = (
"544 -15 OFFCURVE",
"645 97 OFFCURVE",
"645 321 CURVE SMOOTH",
"645 545 OFFCURVE",
"552 662 OFFCURVE",
"333 662 CURVE SMOOTH",
"114 662 OFFCURVE",
"21 545 OFFCURVE",
"21 321 CURVE SMOOTH",
"21 97 OFFCURVE",
"122 -15 OFFCURVE",
"333 -15 CURVE SMOOTH"
);
},
{
closed = 1;
nodes = (
"223 87 OFFCURVE",
"177 150 OFFCURVE",
"177 321 CURVE SMOOTH",
"177 496 OFFCURVE",
"222 560 OFFCURVE",
"333 560 CURVE SMOOTH",
"444 560 OFFCURVE",
"490 496 OFFCURVE",
"490 321 CURVE SMOOTH",
"490 150 OFFCURVE",
"444 87 OFFCURVE",
"333 87 CURVE SMOOTH"
);
},
{
closed = 1;
nodes = (
"271 718 LINE",
"271 840 LINE",
"155 840 LINE",
"155 718 LINE"
);
},
{
closed = 1;
nodes = (
"509 718 LINE",
"509 840 LINE",
"392 840 LINE",
"392 718 LINE"
);
}
);
width = 666;
}
);
leftKerningGroup = O;
note = Odieresis;
rightKerningGroup = O;
unicode = 00D6;
},
{
glyphname = Odotbelow;
lastChange = "2015-08-01 07:19:48 +0000";
layers = (
{
layerId = "9C7BFC1E-BC2B-47ED-B7E7-0F1FF6E98B93";
name = Bold;
paths = (
{
closed = 1;
nodes = (
"544 -15 OFFCURVE",
"645 97 OFFCURVE",
"645 321 CURVE SMOOTH",
"645 545 OFFCURVE",
"552 662 OFFCURVE",
"333 662 CURVE SMOOTH",
"114 662 OFFCURVE",
"21 545 OFFCURVE",
"21 321 CURVE SMOOTH",
"21 97 OFFCURVE",
"122 -15 OFFCURVE",
"333 -15 CURVE SMOOTH"
);
},
{
closed = 1;
nodes = (
"392 -183 LINE",
"392 -61 LINE",
"276 -61 LINE",
"276 -183 LINE"
);
},
{
closed = 1;
nodes = (
"223 87 OFFCURVE",
"177 150 OFFCURVE",
"177 321 CURVE SMOOTH",
"177 496 OFFCURVE",
"222 560 OFFCURVE",
"333 560 CURVE SMOOTH",
"444 560 OFFCURVE",
"490 496 OFFCURVE",
"490 321 CURVE SMOOTH",
"490 150 OFFCURVE",
"444 87 OFFCURVE",
"333 87 CURVE SMOOTH"
);
}
);
width = 666;
}
);
leftKerningGroup = O;
note = Odotbelow;
rightKerningGroup = O;
unicode = 1ECC;
},
{
glyphname = Ograve;
lastChange = "2015-08-01 07:19:47 +0000";
layers = (
{
layerId = "9C7BFC1E-BC2B-47ED-B7E7-0F1FF6E98B93";
name = Bold;
paths = (
{
closed = 1;
nodes = (
"544 -15 OFFCURVE",
"645 97 OFFCURVE",
"645 321 CURVE SMOOTH",
"645 545 OFFCURVE",
"552 662 OFFCURVE",
"333 662 CURVE SMOOTH",
"114 662 OFFCURVE",
"21 545 OFFCURVE",
"21 321 CURVE SMOOTH",
"21 97 OFFCURVE",
"122 -15 OFFCURVE",
"333 -15 CURVE SMOOTH"
);
},
{
closed = 1;
nodes = (
"223 87 OFFCURVE",
"177 150 OFFCURVE",
"177 321 CURVE SMOOTH",
"177 496 OFFCURVE",
"222 560 OFFCURVE",
"333 560 CURVE SMOOTH",
"444 560 OFFCURVE",
"490 496 OFFCURVE",
"490 321 CURVE SMOOTH",
"490 150 OFFCURVE",
"444 87 OFFCURVE",
"333 87 CURVE SMOOTH"
);
},
{
closed = 1;
nodes = (
"414 699 LINE",
"339 879 LINE",
"167 879 LINE",
"280 699 LINE"
);
}
);
width = 666;
}
);
leftKerningGroup = O;
note = Ograve;
rightKerningGroup = O;
unicode = 00D2;
},
{
glyphname = Ohookabove;
lastChange = "2015-08-01 07:19:48 +0000";
layers = (
{
layerId = "9C7BFC1E-BC2B-47ED-B7E7-0F1FF6E98B93";
name = Bold;
paths = (
{
closed = 1;
nodes = (
"544 -15 OFFCURVE",
"645 97 OFFCURVE",
"645 321 CURVE SMOOTH",
"645 545 OFFCURVE",
"552 662 OFFCURVE",
"333 662 CURVE SMOOTH",
"114 662 OFFCURVE",
"21 545 OFFCURVE",
"21 321 CURVE SMOOTH",
"21 97 OFFCURVE",
"122 -15 OFFCURVE",
"333 -15 CURVE SMOOTH"
);
},
{
closed = 1;
nodes = (
"223 87 OFFCURVE",
"177 150 OFFCURVE",
"177 321 CURVE SMOOTH",
"177 496 OFFCURVE",
"222 560 OFFCURVE",
"333 560 CURVE SMOOTH",
"444 560 OFFCURVE",
"490 496 OFFCURVE",
"490 321 CURVE SMOOTH",
"490 150 OFFCURVE",
"444 87 OFFCURVE",
"333 87 CURVE SMOOTH"
);
},
{
closed = 1;
nodes = (
"386 699 LINE",
"386 741 LINE",
"426 755 OFFCURVE",
"445 781 OFFCURVE",
"445 822 CURVE SMOOTH",
"445 883 OFFCURVE",
"397 909 OFFCURVE",
"315 909 CURVE SMOOTH",
"277 909 OFFCURVE",
"247 903 OFFCURVE",
"227 896 CURVE",
"227 820 LINE",
"240 826 OFFCURVE",
"256 829 OFFCURVE",
"272 829 CURVE SMOOTH",
"299 829 OFFCURVE",
"310 819 OFFCURVE",
"310 799 CURVE SMOOTH",
"310 780 OFFCURVE",
"299 763 OFFCURVE",
"258 763 CURVE",
"258 699 LINE"
);
}
);
width = 666;
}
);
leftKerningGroup = O;
note = Ohookabove;
rightKerningGroup = O;
unicode = 1ECE;
},
{
glyphname = Ohorn;
lastChange = "2015-08-01 07:19:47 +0000";
layers = (
{
layerId = "9C7BFC1E-BC2B-47ED-B7E7-0F1FF6E98B93";
name = Bold;
paths = (
{
closed = 1;
nodes = (
"544 -15 OFFCURVE",
"645 97 OFFCURVE",
"645 321 CURVE SMOOTH",
"645 389 OFFCURVE",
"636 446 OFFCURVE",
"618 494 CURVE",
"710 516 OFFCURVE",
"743 572 OFFCURVE",
"743 649 CURVE SMOOTH",
"743 689 LINE",
"592 689 LINE",
"592 650 LINE SMOOTH",
"592 618 OFFCURVE",
"586 600 OFFCURVE",
"557 588 CURVE",
"506 637 OFFCURVE",
"433 662 OFFCURVE",
"333 662 CURVE SMOOTH",
"114 662 OFFCURVE",
"21 545 OFFCURVE",
"21 321 CURVE SMOOTH",
"21 97 OFFCURVE",
"122 -15 OFFCURVE",
"333 -15 CURVE SMOOTH"
);
},
{
closed = 1;
nodes = (
"223 87 OFFCURVE",
"177 150 OFFCURVE",
"177 321 CURVE SMOOTH",
"177 496 OFFCURVE",
"222 560 OFFCURVE",
"333 560 CURVE SMOOTH",
"444 560 OFFCURVE",
"489 496 OFFCURVE",
"489 321 CURVE SMOOTH",
"489 150 OFFCURVE",
"444 87 OFFCURVE",
"333 87 CURVE SMOOTH"
);
}
);
width = 729;
}
);
leftKerningGroup = O;
note = Ohorn;
rightKerningGroup = O;
unicode = 01A0;
},
{
glyphname = Ohornacute;
lastChange = "2015-08-01 07:19:48 +0000";
layers = (
{
layerId = "9C7BFC1E-BC2B-47ED-B7E7-0F1FF6E98B93";
name = Bold;
paths = (
{
closed = 1;
nodes = (
"544 -15 OFFCURVE",
"645 97 OFFCURVE",
"645 321 CURVE SMOOTH",
"645 389 OFFCURVE",
"636 446 OFFCURVE",
"618 494 CURVE",
"710 516 OFFCURVE",
"743 572 OFFCURVE",
"743 649 CURVE SMOOTH",
"743 689 LINE",
"592 689 LINE",
"592 650 LINE SMOOTH",
"592 618 OFFCURVE",
"586 600 OFFCURVE",
"557 588 CURVE",
"506 637 OFFCURVE",
"433 662 OFFCURVE",
"333 662 CURVE SMOOTH",
"114 662 OFFCURVE",
"21 545 OFFCURVE",
"21 321 CURVE SMOOTH",
"21 97 OFFCURVE",
"122 -15 OFFCURVE",
"333 -15 CURVE SMOOTH"
);
},
{
closed = 1;
nodes = (
"223 87 OFFCURVE",
"177 150 OFFCURVE",
"177 321 CURVE SMOOTH",
"177 496 OFFCURVE",
"222 560 OFFCURVE",
"333 560 CURVE SMOOTH",
"444 560 OFFCURVE",
"489 496 OFFCURVE",
"489 321 CURVE SMOOTH",
"489 150 OFFCURVE",
"444 87 OFFCURVE",
"333 87 CURVE SMOOTH"
);
},
{
closed = 1;
nodes = (
"385 699 LINE",
"498 879 LINE",
"327 879 LINE",
"252 699 LINE"
);
}
);
width = 729;
}
);
leftKerningGroup = O;
note = Ohornacute;
rightKerningGroup = O;
unicode = 1EDA;
},
{
glyphname = Ohorndotbelow;
lastChange = "2015-08-01 07:19:49 +0000";
layers = (
{
layerId = "9C7BFC1E-BC2B-47ED-B7E7-0F1FF6E98B93";
name = Bold;
paths = (
{
closed = 1;
nodes = (
"544 -15 OFFCURVE",
"645 97 OFFCURVE",
"645 321 CURVE SMOOTH",
"645 389 OFFCURVE",
"636 446 OFFCURVE",
"618 494 CURVE",
"710 516 OFFCURVE",
"743 572 OFFCURVE",
"743 649 CURVE SMOOTH",
"743 689 LINE",
"592 689 LINE",
"592 650 LINE SMOOTH",
"592 618 OFFCURVE",
"586 600 OFFCURVE",
"557 588 CURVE",
"506 637 OFFCURVE",
"433 662 OFFCURVE",
"333 662 CURVE SMOOTH",
"114 662 OFFCURVE",
"21 545 OFFCURVE",
"21 321 CURVE SMOOTH",
"21 97 OFFCURVE",
"122 -15 OFFCURVE",
"333 -15 CURVE SMOOTH"
);
},
{
closed = 1;
nodes = (
"390 -183 LINE",
"390 -61 LINE",
"274 -61 LINE",
"274 -183 LINE"
);
},
{
closed = 1;
nodes = (
"223 87 OFFCURVE",
"177 150 OFFCURVE",
"177 321 CURVE SMOOTH",
"177 496 OFFCURVE",
"222 560 OFFCURVE",
"333 560 CURVE SMOOTH",
"444 560 OFFCURVE",
"489 496 OFFCURVE",
"489 321 CURVE SMOOTH",
"489 150 OFFCURVE",
"444 87 OFFCURVE",
"333 87 CURVE SMOOTH"
);
}
);
width = 729;
}
);
leftKerningGroup = O;
note = Ohorndotbelow;
rightKerningGroup = O;
unicode = 1EE2;
},
{
glyphname = Ohorngrave;
lastChange = "2015-08-01 07:19:48 +0000";
layers = (
{
layerId = "9C7BFC1E-BC2B-47ED-B7E7-0F1FF6E98B93";
name = Bold;
paths = (
{
closed = 1;
nodes = (
"544 -15 OFFCURVE",
"645 97 OFFCURVE",
"645 321 CURVE SMOOTH",
"645 389 OFFCURVE",
"636 446 OFFCURVE",
"618 494 CURVE",
"710 516 OFFCURVE",
"743 572 OFFCURVE",
"743 649 CURVE SMOOTH",
"743 689 LINE",
"592 689 LINE",
"592 650 LINE SMOOTH",
"592 618 OFFCURVE",
"586 600 OFFCURVE",
"557 588 CURVE",
"506 637 OFFCURVE",
"433 662 OFFCURVE",
"333 662 CURVE SMOOTH",
"114 662 OFFCURVE",
"21 545 OFFCURVE",
"21 321 CURVE SMOOTH",
"21 97 OFFCURVE",
"122 -15 OFFCURVE",
"333 -15 CURVE SMOOTH"
);
},
{
closed = 1;
nodes = (
"223 87 OFFCURVE",
"177 150 OFFCURVE",
"177 321 CURVE SMOOTH",
"177 496 OFFCURVE",
"222 560 OFFCURVE",
"333 560 CURVE SMOOTH",
"444 560 OFFCURVE",
"489 496 OFFCURVE",
"489 321 CURVE SMOOTH",
"489 150 OFFCURVE",
"444 87 OFFCURVE",
"333 87 CURVE SMOOTH"
);
},
{
closed = 1;
nodes = (
"394 699 LINE",
"319 879 LINE",
"147 879 LINE",
"260 699 LINE"
);
}
);
width = 729;
}
);
leftKerningGroup = O;
note = Ohorngrave;
rightKerningGroup = O;
unicode = 1EDC;
},
{
glyphname = Ohornhookabove;
lastChange = "2015-08-01 07:19:49 +0000";
layers = (
{
layerId = "9C7BFC1E-BC2B-47ED-B7E7-0F1FF6E98B93";
name = Bold;
paths = (
{
closed = 1;
nodes = (
"544 -15 OFFCURVE",
"645 97 OFFCURVE",
"645 321 CURVE SMOOTH",
"645 389 OFFCURVE",
"636 446 OFFCURVE",
"618 494 CURVE",
"710 516 OFFCURVE",
"743 572 OFFCURVE",
"743 649 CURVE SMOOTH",
"743 689 LINE",
"592 689 LINE",
"592 650 LINE SMOOTH",
"592 618 OFFCURVE",
"586 600 OFFCURVE",
"557 588 CURVE",
"506 637 OFFCURVE",
"433 662 OFFCURVE",
"333 662 CURVE SMOOTH",
"114 662 OFFCURVE",
"21 545 OFFCURVE",
"21 321 CURVE SMOOTH",
"21 97 OFFCURVE",
"122 -15 OFFCURVE",
"333 -15 CURVE SMOOTH"
);
},
{
closed = 1;
nodes = (
"223 87 OFFCURVE",
"177 150 OFFCURVE",
"177 321 CURVE SMOOTH",
"177 496 OFFCURVE",
"222 560 OFFCURVE",
"333 560 CURVE SMOOTH",
"444 560 OFFCURVE",
"489 496 OFFCURVE",
"489 321 CURVE SMOOTH",
"489 150 OFFCURVE",
"444 87 OFFCURVE",
"333 87 CURVE SMOOTH"
);
},
{
closed = 1;
nodes = (
"399 699 LINE",
"399 741 LINE",
"439 755 OFFCURVE",
"458 781 OFFCURVE",
"458 822 CURVE SMOOTH",
"458 883 OFFCURVE",
"410 909 OFFCURVE",
"328 909 CURVE SMOOTH",
"290 909 OFFCURVE",
"260 903 OFFCURVE",
"240 896 CURVE",
"240 820 LINE",
"253 826 OFFCURVE",
"269 829 OFFCURVE",
"285 829 CURVE SMOOTH",
"312 829 OFFCURVE",
"323 819 OFFCURVE",
"323 799 CURVE SMOOTH",
"323 780 OFFCURVE",
"312 763 OFFCURVE",
"271 763 CURVE",
"271 699 LINE"
);
}
);
width = 729;
}
);
leftKerningGroup = O;
note = Ohornhookabove;
rightKerningGroup = O;
unicode = 1EDE;
},
{
glyphname = Ohorntilde;
lastChange = "2015-08-01 07:19:48 +0000";
layers = (
{
layerId = "9C7BFC1E-BC2B-47ED-B7E7-0F1FF6E98B93";
name = Bold;
paths = (
{
closed = 1;
nodes = (
"544 -15 OFFCURVE",
"645 97 OFFCURVE",
"645 321 CURVE SMOOTH",
"645 389 OFFCURVE",
"636 446 OFFCURVE",
"618 494 CURVE",
"710 516 OFFCURVE",
"743 572 OFFCURVE",
"743 649 CURVE SMOOTH",
"743 689 LINE",
"592 689 LINE",
"592 650 LINE SMOOTH",
"592 618 OFFCURVE",
"586 600 OFFCURVE",
"557 588 CURVE",
"506 637 OFFCURVE",
"433 662 OFFCURVE",
"333 662 CURVE SMOOTH",
"114 662 OFFCURVE",
"21 545 OFFCURVE",
"21 321 CURVE SMOOTH",
"21 97 OFFCURVE",
"122 -15 OFFCURVE",
"333 -15 CURVE SMOOTH"
);
},
{
closed = 1;
nodes = (
"223 87 OFFCURVE",
"177 150 OFFCURVE",
"177 321 CURVE SMOOTH",
"177 496 OFFCURVE",
"222 560 OFFCURVE",
"333 560 CURVE SMOOTH",
"444 560 OFFCURVE",
"489 496 OFFCURVE",
"489 321 CURVE SMOOTH",
"489 150 OFFCURVE",
"444 87 OFFCURVE",
"333 87 CURVE SMOOTH"
);
},
{
closed = 1;
nodes = (
"231 699 LINE",
"231 732 OFFCURVE",
"247 747 OFFCURVE",
"275 747 CURVE SMOOTH",
"320 747 OFFCURVE",
"353 699 OFFCURVE",
"429 699 CURVE SMOOTH",
"517 699 OFFCURVE",
"551 751 OFFCURVE",
"551 867 CURVE",
"443 867 LINE",
"443 834 OFFCURVE",
"429 818 OFFCURVE",
"399 818 CURVE SMOOTH",
"354 818 OFFCURVE",
"322 867 OFFCURVE",
"248 867 CURVE SMOOTH",
"159 867 OFFCURVE",
"122 812 OFFCURVE",
"122 699 CURVE"
);
}
);
width = 729;
}
);
leftKerningGroup = O;
note = Ohorntilde;
rightKerningGroup = O;
unicode = 1EE0;
},
{
glyphname = Ohungarumlaut;
lastChange = "2015-08-01 07:19:48 +0000";
layers = (
{
layerId = "9C7BFC1E-BC2B-47ED-B7E7-0F1FF6E98B93";
name = Bold;
paths = (
{
closed = 1;
nodes = (
"544 -15 OFFCURVE",
"645 97 OFFCURVE",
"645 321 CURVE SMOOTH",
"645 545 OFFCURVE",
"552 662 OFFCURVE",
"333 662 CURVE SMOOTH",
"114 662 OFFCURVE",
"21 545 OFFCURVE",
"21 321 CURVE SMOOTH",
"21 97 OFFCURVE",
"122 -15 OFFCURVE",
"333 -15 CURVE SMOOTH"
);
},
{
closed = 1;
nodes = (
"223 87 OFFCURVE",
"177 150 OFFCURVE",
"177 321 CURVE SMOOTH",
"177 496 OFFCURVE",
"222 560 OFFCURVE",
"333 560 CURVE SMOOTH",
"444 560 OFFCURVE",
"490 496 OFFCURVE",
"490 321 CURVE SMOOTH",
"490 150 OFFCURVE",
"444 87 OFFCURVE",
"333 87 CURVE SMOOTH"
);
},
{
closed = 1;
nodes = (
"260 699 LINE",
"385 896 LINE",
"209 896 LINE",
"120 699 LINE"
);
},
{
closed = 1;
nodes = (
"492 699 LINE",
"618 896 LINE",
"441 896 LINE",
"353 699 LINE"
);
}
);
width = 666;
}
);
leftKerningGroup = O;
note = Ohungarumlaut;
rightKerningGroup = O;
unicode = 0150;
},
{
glyphname = Omacron;
lastChange = "2015-08-01 07:19:47 +0000";
layers = (
{
layerId = "9C7BFC1E-BC2B-47ED-B7E7-0F1FF6E98B93";
name = Bold;
paths = (
{
closed = 1;
nodes = (
"544 -15 OFFCURVE",
"645 97 OFFCURVE",
"645 321 CURVE SMOOTH",
"645 545 OFFCURVE",
"552 662 OFFCURVE",
"333 662 CURVE SMOOTH",
"114 662 OFFCURVE",
"21 545 OFFCURVE",
"21 321 CURVE SMOOTH",
"21 97 OFFCURVE",
"122 -15 OFFCURVE",
"333 -15 CURVE SMOOTH"
);
},
{
closed = 1;
nodes = (
"223 87 OFFCURVE",
"177 150 OFFCURVE",
"177 321 CURVE SMOOTH",
"177 496 OFFCURVE",
"222 560 OFFCURVE",
"333 560 CURVE SMOOTH",
"444 560 OFFCURVE",
"490 496 OFFCURVE",
"490 321 CURVE SMOOTH",
"490 150 OFFCURVE",
"444 87 OFFCURVE",
"333 87 CURVE SMOOTH"
);
},
{
closed = 1;
nodes = (
"489 719 LINE",
"489 811 LINE",
"182 811 LINE",
"182 719 LINE"
);
}
);
width = 666;
}
);
leftKerningGroup = O;
note = Omacron;
rightKerningGroup = O;
unicode = 014C;
},
{
glyphname = Oslash;
lastChange = "2015-08-01 07:19:47 +0000";
layers = (
{
layerId = "9C7BFC1E-BC2B-47ED-B7E7-0F1FF6E98B93";
name = Bold;
paths = (
{
closed = 1;
nodes = (
"217 -43 LINE",
"231 -4 LINE",
"261 -11 OFFCURVE",
"295 -15 OFFCURVE",
"333 -15 CURVE SMOOTH",
"544 -15 OFFCURVE",
"645 97 OFFCURVE",
"645 321 CURVE SMOOTH",
"645 491 OFFCURVE",
"591 599 OFFCURVE",
"470 641 CURVE",
"488 689 LINE",
"432 689 LINE",
"418 654 LINE",
"392 659 OFFCURVE",
"364 662 OFFCURVE",
"333 662 CURVE SMOOTH",
"114 662 OFFCURVE",
"21 545 OFFCURVE",
"21 321 CURVE SMOOTH",
"21 160 OFFCURVE",
"73 57 OFFCURVE",
"180 12 CURVE",
"160 -43 LINE"
);
},
{
closed = 1;
nodes = (
"191 165 OFFCURVE",
"177 226 OFFCURVE",
"177 321 CURVE SMOOTH",
"177 496 OFFCURVE",
"222 560 OFFCURVE",
"333 560 CURVE SMOOTH",
"352 560 OFFCURVE",
"368 558 OFFCURVE",
"382 554 CURVE",
"224 129 LINE"
);
},
{
closed = 1;
nodes = (
"308 87 OFFCURVE",
"287 90 OFFCURVE",
"269 97 CURVE",
"429 531 LINE",
"471 497 OFFCURVE",
"490 431 OFFCURVE",
"490 321 CURVE SMOOTH",
"490 150 OFFCURVE",
"444 87 OFFCURVE",
"333 87 CURVE SMOOTH"
);
}
);
width = 666;
}
);
leftKerningGroup = O;
note = Oslash;
rightKerningGroup = O;
unicode = 00D8;
},
{
glyphname = Oslashacute;
lastChange = "2015-08-01 07:19:47 +0000";
layers = (
{
layerId = "9C7BFC1E-BC2B-47ED-B7E7-0F1FF6E98B93";
name = Bold;
paths = (
{
closed = 1;
nodes = (
"217 -43 LINE",
"231 -4 LINE",
"261 -11 OFFCURVE",
"295 -15 OFFCURVE",
"333 -15 CURVE SMOOTH",
"544 -15 OFFCURVE",
"645 97 OFFCURVE",
"645 321 CURVE SMOOTH",
"645 491 OFFCURVE",
"591 599 OFFCURVE",
"470 641 CURVE",
"488 689 LINE",
"432 689 LINE",
"418 654 LINE",
"392 659 OFFCURVE",
"364 662 OFFCURVE",
"333 662 CURVE SMOOTH",
"114 662 OFFCURVE",
"21 545 OFFCURVE",
"21 321 CURVE SMOOTH",
"21 160 OFFCURVE",
"73 57 OFFCURVE",
"180 12 CURVE",
"160 -43 LINE"
);
},
{
closed = 1;
nodes = (
"191 165 OFFCURVE",
"177 226 OFFCURVE",
"177 321 CURVE SMOOTH",
"177 496 OFFCURVE",
"222 560 OFFCURVE",
"333 560 CURVE SMOOTH",
"352 560 OFFCURVE",
"368 558 OFFCURVE",
"382 554 CURVE",
"224 129 LINE"
);
},
{
closed = 1;
nodes = (
"308 87 OFFCURVE",
"287 90 OFFCURVE",
"269 97 CURVE",
"429 531 LINE",
"471 497 OFFCURVE",
"490 431 OFFCURVE",
"490 321 CURVE SMOOTH",
"490 150 OFFCURVE",
"444 87 OFFCURVE",
"333 87 CURVE SMOOTH"
);
},
{
closed = 1;
nodes = (
"382 695 LINE",
"495 876 LINE",
"323 876 LINE",
"249 695 LINE"
);
}
);
width = 666;
}
);
leftKerningGroup = O;
note = Oslashacute;
rightKerningGroup = O;
unicode = 01FE;
},
{
glyphname = Otilde;
lastChange = "2015-08-01 07:19:47 +0000";
layers = (
{
layerId = "9C7BFC1E-BC2B-47ED-B7E7-0F1FF6E98B93";
name = Bold;
paths = (
{
closed = 1;
nodes = (
"544 -15 OFFCURVE",
"645 97 OFFCURVE",
"645 321 CURVE SMOOTH",
"645 545 OFFCURVE",
"552 662 OFFCURVE",
"333 662 CURVE SMOOTH",
"114 662 OFFCURVE",
"21 545 OFFCURVE",
"21 321 CURVE SMOOTH",
"21 97 OFFCURVE",
"122 -15 OFFCURVE",
"333 -15 CURVE SMOOTH"
);
},
{
closed = 1;
nodes = (
"223 87 OFFCURVE",
"177 150 OFFCURVE",
"177 321 CURVE SMOOTH",
"177 496 OFFCURVE",
"222 560 OFFCURVE",
"333 560 CURVE SMOOTH",
"444 560 OFFCURVE",
"490 496 OFFCURVE",
"490 321 CURVE SMOOTH",
"490 150 OFFCURVE",
"444 87 OFFCURVE",
"333 87 CURVE SMOOTH"
);
},
{
closed = 1;
nodes = (
"227 699 LINE",
"227 732 OFFCURVE",
"243 747 OFFCURVE",
"271 747 CURVE SMOOTH",
"316 747 OFFCURVE",
"349 699 OFFCURVE",
"425 699 CURVE SMOOTH",
"513 699 OFFCURVE",
"547 751 OFFCURVE",
"547 867 CURVE",
"439 867 LINE",
"439 834 OFFCURVE",
"425 818 OFFCURVE",
"395 818 CURVE SMOOTH",
"350 818 OFFCURVE",
"318 867 OFFCURVE",
"244 867 CURVE SMOOTH",
"155 867 OFFCURVE",
"118 812 OFFCURVE",
"118 699 CURVE"
);
}
);
width = 666;
}
);
leftKerningGroup = O;
note = Otilde;
rightKerningGroup = O;
unicode = 00D5;
},
{
glyphname = OE;
lastChange = "2015-08-01 07:19:49 +0000";
layers = (
{
layerId = "9C7BFC1E-BC2B-47ED-B7E7-0F1FF6E98B93";
name = Bold;
paths = (
{
closed = 1;
nodes = (
"780 0 LINE",
"780 155 LINE",
"637 155 LINE",
"637 140 LINE SMOOTH",
"637 113 OFFCURVE",
"625 101 OFFCURVE",
"597 101 CURVE SMOOTH",
"502 101 LINE",
"502 273 LINE",
"632 273 LINE",
"632 374 LINE",
"502 374 LINE",
"502 546 LINE",
"597 546 LINE SMOOTH",
"625 546 OFFCURVE",
"637 534 OFFCURVE",
"637 508 CURVE SMOOTH",
"637 493 LINE",
"780 493 LINE",
"780 647 LINE",
"355 647 LINE SMOOTH",
"134 647 OFFCURVE",
"21 546 OFFCURVE",
"21 321 CURVE SMOOTH",
"21 96 OFFCURVE",
"141 0 OFFCURVE",
"355 0 CURVE SMOOTH"
);
},
{
closed = 1;
nodes = (
"209 103 OFFCURVE",
"177 195 OFFCURVE",
"177 321 CURVE SMOOTH",
"177 454 OFFCURVE",
"220 547 OFFCURVE",
"351 547 CURVE",
"351 99 LINE"
);
}
);
width = 802;
}
);
leftKerningGroup = C;
note = OE;
unicode = 0152;
},
{
glyphname = P;
lastChange = "2015-07-31 16:52:59 +0000";
layers = (
{
layerId = "9C7BFC1E-BC2B-47ED-B7E7-0F1FF6E98B93";
name = Bold;
paths = (
{
closed = 1;
nodes = (
"304 0 LINE",
"304 101 LINE",
"280 101 LINE SMOOTH",
"251 101 OFFCURVE",
"240 115 OFFCURVE",
"240 138 CURVE SMOOTH",
"240 227 LINE",
"374 227 LINE SMOOTH",
"517 227 OFFCURVE",
"608 305 OFFCURVE",
"608 441 CURVE SMOOTH",
"608 578 OFFCURVE",
"517 647 OFFCURVE",
"375 647 CURVE SMOOTH",
"21 647 LINE",
"21 546 LINE",
"44 546 LINE SMOOTH",
"73 546 OFFCURVE",
"84 532 OFFCURVE",
"84 509 CURVE SMOOTH",
"84 138 LINE SMOOTH",
"84 115 OFFCURVE",
"73 101 OFFCURVE",
"44 101 CURVE SMOOTH",
"21 101 LINE",
"21 0 LINE"
);
},
{
closed = 1;
nodes = (
"240 546 LINE",
"353 546 LINE SMOOTH",
"422 546 OFFCURVE",
"453 519 OFFCURVE",
"453 441 CURVE SMOOTH",
"453 364 OFFCURVE",
"422 329 OFFCURVE",
"353 329 CURVE SMOOTH",
"240 329 LINE"
);
}
);
width = 629;
}
);
note = P;
unicode = 0050;
},
{
glyphname = Thorn;
lastChange = "2015-07-31 16:52:59 +0000";
layers = (
{
layerId = "9C7BFC1E-BC2B-47ED-B7E7-0F1FF6E98B93";
name = Bold;
paths = (
{
closed = 1;
nodes = (
"304 0 LINE",
"304 101 LINE",
"280 101 LINE SMOOTH",
"251 101 OFFCURVE",
"240 113 OFFCURVE",
"240 136 CURVE",
"293 147 LINE",
"320 147 OFFCURVE",
"347 147 OFFCURVE",
"374 147 CURVE SMOOTH",
"517 147 OFFCURVE",
"608 225 OFFCURVE",
"608 361 CURVE SMOOTH",
"608 499 OFFCURVE",
"517 567 OFFCURVE",
"375 567 CURVE SMOOTH",
"240 567 LINE",
"240 647 LINE",
"21 647 LINE",
"21 546 LINE",
"44 546 LINE SMOOTH",
"73 546 OFFCURVE",
"84 532 OFFCURVE",
"84 509 CURVE SMOOTH",
"84 138 LINE SMOOTH",
"84 115 OFFCURVE",
"73 101 OFFCURVE",
"44 101 CURVE SMOOTH",
"21 101 LINE",
"21 0 LINE"
);
},
{
closed = 1;
nodes = (
"240 466 LINE",
"353 466 LINE SMOOTH",
"422 466 OFFCURVE",
"453 440 OFFCURVE",
"453 361 CURVE SMOOTH",
"453 284 OFFCURVE",
"422 249 OFFCURVE",
"353 249 CURVE SMOOTH",
"240 249 LINE"
);
}
);
width = 629;
}
);
note = Thorn;
unicode = 00DE;
},
{
glyphname = Q;
lastChange = "2015-08-01 07:19:49 +0000";
layers = (
{
layerId = "9C7BFC1E-BC2B-47ED-B7E7-0F1FF6E98B93";
name = Bold;
paths = (
{
closed = 1;
nodes = (
"536 -145 OFFCURVE",
"595 -119 OFFCURVE",
"628 -77 CURVE",
"628 -14 LINE",
"515 -14 LINE",
"515 -38 LINE",
"504 -47 OFFCURVE",
"488 -53 OFFCURVE",
"460 -53 CURVE SMOOTH",
"431 -53 OFFCURVE",
"403 -43 OFFCURVE",
"390 -13 CURVE",
"562 7 OFFCURVE",
"645 122 OFFCURVE",
"645 321 CURVE SMOOTH",
"645 539 OFFCURVE",
"552 661 OFFCURVE",
"333 661 CURVE SMOOTH",
"114 661 OFFCURVE",
"21 539 OFFCURVE",
"21 321 CURVE SMOOTH",
"21 123 OFFCURVE",
"103 7 OFFCURVE",
"274 -13 CURVE",
"292 -89 OFFCURVE",
"345 -145 OFFCURVE",
"457 -145 CURVE SMOOTH"
);
},
{
closed = 1;
nodes = (
"223 87 OFFCURVE",
"177 156 OFFCURVE",
"177 321 CURVE SMOOTH",
"177 490 OFFCURVE",
"222 559 OFFCURVE",
"333 559 CURVE SMOOTH",
"444 559 OFFCURVE",
"490 490 OFFCURVE",
"490 321 CURVE SMOOTH",
"490 156 OFFCURVE",
"444 87 OFFCURVE",
"333 87 CURVE SMOOTH"
);
}
);
width = 666;
}
);
leftKerningGroup = O;
note = Q;
rightKerningGroup = O;
unicode = 0051;
},
{
glyphname = R;
lastChange = "2015-08-01 07:19:48 +0000";
layers = (
{
layerId = "9C7BFC1E-BC2B-47ED-B7E7-0F1FF6E98B93";
name = Bold;
paths = (
{
closed = 1;
nodes = (
"290 0 LINE",
"290 101 LINE",
"272 101 LINE SMOOTH",
"247 101 OFFCURVE",
"240 111 OFFCURVE",
"240 134 CURVE SMOOTH",
"240 234 LINE",
"329 234 LINE",
"403 101 LINE",
"367 101 LINE",
"367 0 LINE",
"614 0 LINE",
"614 101 LINE",
"594 101 LINE SMOOTH",
"565 101 OFFCURVE",
"550 109 OFFCURVE",
"538 130 CURVE SMOOTH",
"468 253 LINE",
"557 286 OFFCURVE",
"603 352 OFFCURVE",
"603 444 CURVE SMOOTH",
"603 580 OFFCURVE",
"513 647 OFFCURVE",
"369 647 CURVE SMOOTH",
"21 647 LINE",
"21 546 LINE",
"44 546 LINE SMOOTH",
"73 546 OFFCURVE",
"85 532 OFFCURVE",
"85 509 CURVE SMOOTH",
"85 138 LINE SMOOTH",
"85 115 OFFCURVE",
"73 101 OFFCURVE",
"44 101 CURVE SMOOTH",
"21 101 LINE",
"21 0 LINE"
);
},
{
closed = 1;
nodes = (
"240 546 LINE",
"346 546 LINE SMOOTH",
"418 546 OFFCURVE",
"448 518 OFFCURVE",
"448 444 CURVE SMOOTH",
"448 372 OFFCURVE",
"418 335 OFFCURVE",
"346 335 CURVE SMOOTH",
"240 335 LINE"
);
}
);
width = 635;
}
);
note = R;
rightKerningGroup = R;
unicode = 0052;
},
{
glyphname = Racute;
lastChange = "2015-08-01 07:19:49 +0000";
layers = (
{
layerId = "9C7BFC1E-BC2B-47ED-B7E7-0F1FF6E98B93";
name = Bold;
paths = (
{
closed = 1;
nodes = (
"290 0 LINE",
"290 101 LINE",
"272 101 LINE SMOOTH",
"247 101 OFFCURVE",
"240 111 OFFCURVE",
"240 134 CURVE SMOOTH",
"240 234 LINE",
"329 234 LINE",
"403 101 LINE",
"367 101 LINE",
"367 0 LINE",
"614 0 LINE",
"614 101 LINE",
"594 101 LINE SMOOTH",
"565 101 OFFCURVE",
"550 109 OFFCURVE",
"538 130 CURVE SMOOTH",
"468 253 LINE",
"557 286 OFFCURVE",
"603 352 OFFCURVE",
"603 444 CURVE SMOOTH",
"603 580 OFFCURVE",
"513 647 OFFCURVE",
"369 647 CURVE SMOOTH",
"21 647 LINE",
"21 546 LINE",
"44 546 LINE SMOOTH",
"73 546 OFFCURVE",
"85 532 OFFCURVE",
"85 509 CURVE SMOOTH",
"85 138 LINE SMOOTH",
"85 115 OFFCURVE",
"73 101 OFFCURVE",
"44 101 CURVE SMOOTH",
"21 101 LINE",
"21 0 LINE"
);
},
{
closed = 1;
nodes = (
"240 546 LINE",
"346 546 LINE SMOOTH",
"418 546 OFFCURVE",
"448 518 OFFCURVE",
"448 444 CURVE SMOOTH",
"448 372 OFFCURVE",
"418 335 OFFCURVE",
"346 335 CURVE SMOOTH",
"240 335 LINE"
);
},
{
closed = 1;
nodes = (
"339 699 LINE",
"452 879 LINE",
"281 879 LINE",
"206 699 LINE"
);
}
);
width = 635;
}
);
note = Racute;
rightKerningGroup = R;
unicode = 0154;
},
{
glyphname = Rcaron;
lastChange = "2015-08-01 07:19:49 +0000";
layers = (
{
layerId = "9C7BFC1E-BC2B-47ED-B7E7-0F1FF6E98B93";
name = Bold;
paths = (
{
closed = 1;
nodes = (
"290 0 LINE",
"290 101 LINE",
"272 101 LINE SMOOTH",
"247 101 OFFCURVE",
"240 111 OFFCURVE",
"240 134 CURVE SMOOTH",
"240 234 LINE",
"329 234 LINE",
"403 101 LINE",
"367 101 LINE",
"367 0 LINE",
"614 0 LINE",
"614 101 LINE",
"594 101 LINE SMOOTH",
"565 101 OFFCURVE",
"550 109 OFFCURVE",
"538 130 CURVE SMOOTH",
"468 253 LINE",
"557 286 OFFCURVE",
"603 352 OFFCURVE",
"603 444 CURVE SMOOTH",
"603 580 OFFCURVE",
"513 647 OFFCURVE",
"369 647 CURVE SMOOTH",
"21 647 LINE",
"21 546 LINE",
"44 546 LINE SMOOTH",
"73 546 OFFCURVE",
"85 532 OFFCURVE",
"85 509 CURVE SMOOTH",
"85 138 LINE SMOOTH",
"85 115 OFFCURVE",
"73 101 OFFCURVE",
"44 101 CURVE SMOOTH",
"21 101 LINE",
"21 0 LINE"
);
},
{
closed = 1;
nodes = (
"240 546 LINE",
"346 546 LINE SMOOTH",
"418 546 OFFCURVE",
"448 518 OFFCURVE",
"448 444 CURVE SMOOTH",
"448 372 OFFCURVE",
"418 335 OFFCURVE",
"346 335 CURVE SMOOTH",
"240 335 LINE"
);
},
{
closed = 1;
nodes = (
"367 698 LINE",
"502 896 LINE",
"361 896 LINE",
"298 782 LINE",
"234 896 LINE",
"95 896 LINE",
"231 698 LINE"
);
}
);
width = 635;
}
);
note = Rcaron;
rightKerningGroup = R;
unicode = 0158;
},
{
glyphname = Rcommaaccent;
lastChange = "2015-08-01 07:19:48 +0000";
layers = (
{
layerId = "9C7BFC1E-BC2B-47ED-B7E7-0F1FF6E98B93";
name = Bold;
paths = (
{
closed = 1;
nodes = (
"290 0 LINE",
"290 101 LINE",
"272 101 LINE SMOOTH",
"247 101 OFFCURVE",
"240 111 OFFCURVE",
"240 134 CURVE SMOOTH",
"240 234 LINE",
"329 234 LINE",
"403 101 LINE",
"367 101 LINE",
"367 0 LINE",
"614 0 LINE",
"614 101 LINE",
"594 101 LINE SMOOTH",
"565 101 OFFCURVE",
"550 109 OFFCURVE",
"538 130 CURVE SMOOTH",
"468 253 LINE",
"557 286 OFFCURVE",
"603 352 OFFCURVE",
"603 444 CURVE SMOOTH",
"603 580 OFFCURVE",
"513 647 OFFCURVE",
"369 647 CURVE SMOOTH",
"21 647 LINE",
"21 546 LINE",
"44 546 LINE SMOOTH",
"73 546 OFFCURVE",
"85 532 OFFCURVE",
"85 509 CURVE SMOOTH",
"85 138 LINE SMOOTH",
"85 115 OFFCURVE",
"73 101 OFFCURVE",
"44 101 CURVE SMOOTH",
"21 101 LINE",
"21 0 LINE"
);
},
{
closed = 1;
nodes = (
"370 -272 LINE",
"438 -49 LINE",
"274 -49 LINE",
"240 -272 LINE"
);
},
{
closed = 1;
nodes = (
"240 546 LINE",
"346 546 LINE SMOOTH",
"418 546 OFFCURVE",
"448 518 OFFCURVE",
"448 444 CURVE SMOOTH",
"448 372 OFFCURVE",
"418 335 OFFCURVE",
"346 335 CURVE SMOOTH",
"240 335 LINE"
);
}
);
width = 635;
}
);
note = Rcommaaccent;
rightKerningGroup = R;
unicode = 0156;
},
{
glyphname = Rdotbelow;
lastChange = "2015-08-01 07:19:48 +0000";
layers = (
{
layerId = "9C7BFC1E-BC2B-47ED-B7E7-0F1FF6E98B93";
name = Bold;
paths = (
{
closed = 1;
nodes = (
"290 0 LINE",
"290 101 LINE",
"272 101 LINE SMOOTH",
"247 101 OFFCURVE",
"240 111 OFFCURVE",
"240 134 CURVE SMOOTH",
"240 234 LINE",
"329 234 LINE",
"403 101 LINE",
"367 101 LINE",
"367 0 LINE",
"614 0 LINE",
"614 101 LINE",
"594 101 LINE SMOOTH",
"565 101 OFFCURVE",
"550 109 OFFCURVE",
"538 130 CURVE SMOOTH",
"468 253 LINE",
"557 286 OFFCURVE",
"603 352 OFFCURVE",
"603 444 CURVE SMOOTH",
"603 580 OFFCURVE",
"513 647 OFFCURVE",
"369 647 CURVE SMOOTH",
"21 647 LINE",
"21 546 LINE",
"44 546 LINE SMOOTH",
"73 546 OFFCURVE",
"85 532 OFFCURVE",
"85 509 CURVE SMOOTH",
"85 138 LINE SMOOTH",
"85 115 OFFCURVE",
"73 101 OFFCURVE",
"44 101 CURVE SMOOTH",
"21 101 LINE",
"21 0 LINE"
);
},
{
closed = 1;
nodes = (
"352 -183 LINE",
"352 -61 LINE",
"236 -61 LINE",
"236 -183 LINE"
);
},
{
closed = 1;
nodes = (
"240 546 LINE",
"346 546 LINE SMOOTH",
"418 546 OFFCURVE",
"448 518 OFFCURVE",
"448 444 CURVE SMOOTH",
"448 372 OFFCURVE",
"418 335 OFFCURVE",
"346 335 CURVE SMOOTH",
"240 335 LINE"
);
}
);
width = 635;
}
);
note = Rdotbelow;
rightKerningGroup = R;
unicode = 1E5A;
},
{
glyphname = Rdotbelowmacron;
lastChange = "2015-08-01 07:19:48 +0000";
layers = (
{
layerId = "9C7BFC1E-BC2B-47ED-B7E7-0F1FF6E98B93";
name = Bold;
paths = (
{
closed = 1;
nodes = (
"290 0 LINE",
"290 101 LINE",
"272 101 LINE SMOOTH",
"247 101 OFFCURVE",
"240 111 OFFCURVE",
"240 134 CURVE SMOOTH",
"240 234 LINE",
"329 234 LINE",
"403 101 LINE",
"367 101 LINE",
"367 0 LINE",
"614 0 LINE",
"614 101 LINE",
"594 101 LINE SMOOTH",
"565 101 OFFCURVE",
"550 109 OFFCURVE",
"538 130 CURVE SMOOTH",
"468 253 LINE",
"557 286 OFFCURVE",
"603 352 OFFCURVE",
"603 444 CURVE SMOOTH",
"603 580 OFFCURVE",
"513 647 OFFCURVE",
"369 647 CURVE SMOOTH",
"21 647 LINE",
"21 546 LINE",
"44 546 LINE SMOOTH",
"73 546 OFFCURVE",
"85 532 OFFCURVE",
"85 509 CURVE SMOOTH",
"85 138 LINE SMOOTH",
"85 115 OFFCURVE",
"73 101 OFFCURVE",
"44 101 CURVE SMOOTH",
"21 101 LINE",
"21 0 LINE"
);
},
{
closed = 1;
nodes = (
"353 -183 LINE",
"353 -61 LINE",
"237 -61 LINE",
"237 -183 LINE"
);
},
{
closed = 1;
nodes = (
"240 546 LINE",
"346 546 LINE SMOOTH",
"418 546 OFFCURVE",
"448 518 OFFCURVE",
"448 444 CURVE SMOOTH",
"448 372 OFFCURVE",
"418 335 OFFCURVE",
"346 335 CURVE SMOOTH",
"240 335 LINE"
);
},
{
closed = 1;
nodes = (
"442 719 LINE",
"442 811 LINE",
"135 811 LINE",
"135 719 LINE"
);
}
);
width = 635;
}
);
note = Rdotbelowmacron;
rightKerningGroup = R;
unicode = 1E5C;
},
{
glyphname = Rlinebelow;
lastChange = "2015-08-01 07:19:47 +0000";
layers = (
{
layerId = "9C7BFC1E-BC2B-47ED-B7E7-0F1FF6E98B93";
name = Bold;
paths = (
{
closed = 1;
nodes = (
"290 0 LINE",
"290 101 LINE",
"272 101 LINE SMOOTH",
"247 101 OFFCURVE",
"240 111 OFFCURVE",
"240 134 CURVE SMOOTH",
"240 234 LINE",
"329 234 LINE",
"403 101 LINE",
"367 101 LINE",
"367 0 LINE",
"614 0 LINE",
"614 101 LINE",
"594 101 LINE SMOOTH",
"565 101 OFFCURVE",
"550 109 OFFCURVE",
"538 130 CURVE SMOOTH",
"468 253 LINE",
"557 286 OFFCURVE",
"603 352 OFFCURVE",
"603 444 CURVE SMOOTH",
"603 580 OFFCURVE",
"513 647 OFFCURVE",
"369 647 CURVE SMOOTH",
"21 647 LINE",
"21 546 LINE",
"44 546 LINE SMOOTH",
"73 546 OFFCURVE",
"85 532 OFFCURVE",
"85 509 CURVE SMOOTH",
"85 138 LINE SMOOTH",
"85 115 OFFCURVE",
"73 101 OFFCURVE",
"44 101 CURVE SMOOTH",
"21 101 LINE",
"21 0 LINE"
);
},
{
closed = 1;
nodes = (
"445 -143 LINE",
"445 -51 LINE",
"138 -51 LINE",
"138 -143 LINE"
);
},
{
closed = 1;
nodes = (
"240 546 LINE",
"346 546 LINE SMOOTH",
"418 546 OFFCURVE",
"448 518 OFFCURVE",
"448 444 CURVE SMOOTH",
"448 372 OFFCURVE",
"418 335 OFFCURVE",
"346 335 CURVE SMOOTH",
"240 335 LINE"
);
}
);
width = 635;
}
);
note = Rlinebelow;
rightKerningGroup = R;
unicode = 1E5E;
},
{
glyphname = S;
lastChange = "2015-08-01 07:19:48 +0000";
layers = (
{
layerId = "9C7BFC1E-BC2B-47ED-B7E7-0F1FF6E98B93";
name = Bold;
paths = (
{
closed = 1;
nodes = (
"442 -15 OFFCURVE",
"527 65 OFFCURVE",
"527 169 CURVE SMOOTH",
"527 288 OFFCURVE",
"455 320 OFFCURVE",
"313 378 CURVE SMOOTH",
"253 402 OFFCURVE",
"182 428 OFFCURVE",
"182 488 CURVE SMOOTH",
"182 541 OFFCURVE",
"219 560 OFFCURVE",
"272 560 CURVE SMOOTH",
"305 560 OFFCURVE",
"333 554 OFFCURVE",
"357 540 CURVE",
"357 474 LINE",
"516 474 LINE",
"516 579 LINE",
"464 624 OFFCURVE",
"393 662 OFFCURVE",
"280 662 CURVE SMOOTH",
"142 662 OFFCURVE",
"26 606 OFFCURVE",
"26 482 CURVE SMOOTH",
"26 375 OFFCURVE",
"104 326 OFFCURVE",
"237 270 CURVE SMOOTH",
"324 233 OFFCURVE",
"372 214 OFFCURVE",
"372 161 CURVE SMOOTH",
"372 110 OFFCURVE",
"341 87 OFFCURVE",
"282 87 CURVE SMOOTH",
"241 87 OFFCURVE",
"207 95 OFFCURVE",
"180 110 CURVE",
"180 183 LINE",
"21 183 LINE",
"21 67 LINE",
"83 17 OFFCURVE",
"171 -15 OFFCURVE",
"281 -15 CURVE SMOOTH"
);
}
);
width = 549;
}
);
leftKerningGroup = dollar;
note = S;
rightKerningGroup = dollar;
unicode = 0053;
},
{
glyphname = Sacute;
lastChange = "2015-08-01 07:19:48 +0000";
layers = (
{
layerId = "9C7BFC1E-BC2B-47ED-B7E7-0F1FF6E98B93";
name = Bold;
paths = (
{
closed = 1;
nodes = (
"442 -15 OFFCURVE",
"527 65 OFFCURVE",
"527 169 CURVE SMOOTH",
"527 288 OFFCURVE",
"455 320 OFFCURVE",
"313 378 CURVE SMOOTH",
"253 402 OFFCURVE",
"182 428 OFFCURVE",
"182 488 CURVE SMOOTH",
"182 541 OFFCURVE",
"219 560 OFFCURVE",
"272 560 CURVE SMOOTH",
"305 560 OFFCURVE",
"333 554 OFFCURVE",
"357 540 CURVE",
"357 474 LINE",
"516 474 LINE",
"516 579 LINE",
"464 624 OFFCURVE",
"393 662 OFFCURVE",
"280 662 CURVE SMOOTH",
"142 662 OFFCURVE",
"26 606 OFFCURVE",
"26 482 CURVE SMOOTH",
"26 375 OFFCURVE",
"104 326 OFFCURVE",
"237 270 CURVE SMOOTH",
"324 233 OFFCURVE",
"372 214 OFFCURVE",
"372 161 CURVE SMOOTH",
"372 110 OFFCURVE",
"341 87 OFFCURVE",
"282 87 CURVE SMOOTH",
"241 87 OFFCURVE",
"207 95 OFFCURVE",
"180 110 CURVE",
"180 183 LINE",
"21 183 LINE",
"21 67 LINE",
"83 17 OFFCURVE",
"171 -15 OFFCURVE",
"281 -15 CURVE SMOOTH"
);
},
{
closed = 1;
nodes = (
"329 699 LINE",
"442 879 LINE",
"271 879 LINE",
"196 699 LINE"
);
}
);
width = 549;
}
);
leftKerningGroup = dollar;
note = Sacute;
rightKerningGroup = dollar;
unicode = 015A;
},
{
glyphname = Scaron;
lastChange = "2015-08-01 07:19:47 +0000";
layers = (
{
layerId = "9C7BFC1E-BC2B-47ED-B7E7-0F1FF6E98B93";
name = Bold;
paths = (
{
closed = 1;
nodes = (
"442 -15 OFFCURVE",
"527 65 OFFCURVE",
"527 169 CURVE SMOOTH",
"527 288 OFFCURVE",
"455 320 OFFCURVE",
"313 378 CURVE SMOOTH",
"253 402 OFFCURVE",
"182 428 OFFCURVE",
"182 488 CURVE SMOOTH",
"182 541 OFFCURVE",
"219 560 OFFCURVE",
"272 560 CURVE SMOOTH",
"305 560 OFFCURVE",
"333 554 OFFCURVE",
"357 540 CURVE",
"357 474 LINE",
"516 474 LINE",
"516 579 LINE",
"464 624 OFFCURVE",
"393 662 OFFCURVE",
"280 662 CURVE SMOOTH",
"142 662 OFFCURVE",
"26 606 OFFCURVE",
"26 482 CURVE SMOOTH",
"26 375 OFFCURVE",
"104 326 OFFCURVE",
"237 270 CURVE SMOOTH",
"324 233 OFFCURVE",
"372 214 OFFCURVE",
"372 161 CURVE SMOOTH",
"372 110 OFFCURVE",
"341 87 OFFCURVE",
"282 87 CURVE SMOOTH",
"241 87 OFFCURVE",
"207 95 OFFCURVE",
"180 110 CURVE",
"180 183 LINE",
"21 183 LINE",
"21 67 LINE",
"83 17 OFFCURVE",
"171 -15 OFFCURVE",
"281 -15 CURVE SMOOTH"
);
},
{
closed = 1;
nodes = (
"346 698 LINE",
"481 896 LINE",
"340 896 LINE",
"277 782 LINE",
"213 896 LINE",
"74 896 LINE",
"210 698 LINE"
);
}
);
width = 549;
}
);
leftKerningGroup = dollar;
note = Scaron;
rightKerningGroup = dollar;
unicode = 0160;
},
{
glyphname = Scedilla;
lastChange = "2015-08-01 07:19:49 +0000";
layers = (
{
layerId = "9C7BFC1E-BC2B-47ED-B7E7-0F1FF6E98B93";
name = Bold;
paths = (
{
closed = 1;
nodes = (
"442 -15 OFFCURVE",
"527 65 OFFCURVE",
"527 169 CURVE SMOOTH",
"527 288 OFFCURVE",
"455 320 OFFCURVE",
"313 378 CURVE SMOOTH",
"253 402 OFFCURVE",
"182 428 OFFCURVE",
"182 488 CURVE SMOOTH",
"182 541 OFFCURVE",
"219 560 OFFCURVE",
"272 560 CURVE SMOOTH",
"305 560 OFFCURVE",
"333 554 OFFCURVE",
"357 540 CURVE",
"357 474 LINE",
"516 474 LINE",
"516 579 LINE",
"464 624 OFFCURVE",
"393 662 OFFCURVE",
"280 662 CURVE SMOOTH",
"142 662 OFFCURVE",
"26 606 OFFCURVE",
"26 482 CURVE SMOOTH",
"26 375 OFFCURVE",
"104 326 OFFCURVE",
"237 270 CURVE SMOOTH",
"324 233 OFFCURVE",
"372 214 OFFCURVE",
"372 161 CURVE SMOOTH",
"372 110 OFFCURVE",
"341 87 OFFCURVE",
"282 87 CURVE SMOOTH",
"241 87 OFFCURVE",
"207 95 OFFCURVE",
"180 110 CURVE",
"180 183 LINE",
"21 183 LINE",
"21 67 LINE",
"83 17 OFFCURVE",
"171 -15 OFFCURVE",
"281 -15 CURVE SMOOTH"
);
},
{
closed = 1;
nodes = (
"385 -228 OFFCURVE",
"431 -187 OFFCURVE",
"431 -123 CURVE SMOOTH",
"431 -75 OFFCURVE",
"407 -47 OFFCURVE",
"357 -36 CURVE",
"363 0 LINE",
"193 0 LINE",
"182 -77 LINE",
"256 -77 OFFCURVE",
"273 -90 OFFCURVE",
"273 -114 CURVE SMOOTH",
"273 -125 OFFCURVE",
"266 -133 OFFCURVE",
"242 -133 CURVE SMOOTH",
"222 -133 OFFCURVE",
"188 -129 OFFCURVE",
"158 -113 CURVE",
"158 -208 LINE",
"193 -224 OFFCURVE",
"223 -228 OFFCURVE",
"265 -228 CURVE SMOOTH"
);
}
);
width = 548;
}
);
leftKerningGroup = dollar;
note = Scedilla;
rightKerningGroup = dollar;
unicode = 015E;
},
{
glyphname = Scircumflex;
lastChange = "2015-08-01 07:19:47 +0000";
layers = (
{
layerId = "9C7BFC1E-BC2B-47ED-B7E7-0F1FF6E98B93";
name = Bold;
paths = (
{
closed = 1;
nodes = (
"442 -15 OFFCURVE",
"527 65 OFFCURVE",
"527 169 CURVE SMOOTH",
"527 288 OFFCURVE",
"455 320 OFFCURVE",
"313 378 CURVE SMOOTH",
"253 402 OFFCURVE",
"182 428 OFFCURVE",
"182 488 CURVE SMOOTH",
"182 541 OFFCURVE",
"219 560 OFFCURVE",
"272 560 CURVE SMOOTH",
"305 560 OFFCURVE",
"333 554 OFFCURVE",
"357 540 CURVE",
"357 474 LINE",
"516 474 LINE",
"516 579 LINE",
"464 624 OFFCURVE",
"393 662 OFFCURVE",
"280 662 CURVE SMOOTH",
"142 662 OFFCURVE",
"26 606 OFFCURVE",
"26 482 CURVE SMOOTH",
"26 375 OFFCURVE",
"104 326 OFFCURVE",
"237 270 CURVE SMOOTH",
"324 233 OFFCURVE",
"372 214 OFFCURVE",
"372 161 CURVE SMOOTH",
"372 110 OFFCURVE",
"341 87 OFFCURVE",
"282 87 CURVE SMOOTH",
"241 87 OFFCURVE",
"207 95 OFFCURVE",
"180 110 CURVE",
"180 183 LINE",
"21 183 LINE",
"21 67 LINE",
"83 17 OFFCURVE",
"171 -15 OFFCURVE",
"281 -15 CURVE SMOOTH"
);
},
{
closed = 1;
nodes = (
"211 698 LINE",
"275 812 LINE",
"338 698 LINE",
"479 698 LINE",
"344 896 LINE",
"208 896 LINE",
"72 698 LINE"
);
}
);
width = 549;
}
);
leftKerningGroup = dollar;
note = Scircumflex;
rightKerningGroup = dollar;
unicode = 015C;
},
{
glyphname = Scommaaccent;
lastChange = "2015-08-01 07:19:49 +0000";
layers = (
{
layerId = "9C7BFC1E-BC2B-47ED-B7E7-0F1FF6E98B93";
name = Bold;
paths = (
{
closed = 1;
nodes = (
"442 -15 OFFCURVE",
"527 65 OFFCURVE",
"527 169 CURVE SMOOTH",
"527 288 OFFCURVE",
"455 320 OFFCURVE",
"313 378 CURVE SMOOTH",
"253 402 OFFCURVE",
"182 428 OFFCURVE",
"182 488 CURVE SMOOTH",
"182 541 OFFCURVE",
"219 560 OFFCURVE",
"272 560 CURVE SMOOTH",
"305 560 OFFCURVE",
"333 554 OFFCURVE",
"357 540 CURVE",
"357 474 LINE",
"516 474 LINE",
"516 579 LINE",
"464 624 OFFCURVE",
"393 662 OFFCURVE",
"280 662 CURVE SMOOTH",
"142 662 OFFCURVE",
"26 606 OFFCURVE",
"26 482 CURVE SMOOTH",
"26 375 OFFCURVE",
"104 326 OFFCURVE",
"237 270 CURVE SMOOTH",
"324 233 OFFCURVE",
"372 214 OFFCURVE",
"372 161 CURVE SMOOTH",
"372 110 OFFCURVE",
"341 87 OFFCURVE",
"282 87 CURVE SMOOTH",
"241 87 OFFCURVE",
"207 95 OFFCURVE",
"180 110 CURVE",
"180 183 LINE",
"21 183 LINE",
"21 67 LINE",
"83 17 OFFCURVE",
"171 -15 OFFCURVE",
"281 -15 CURVE SMOOTH"
);
},
{
closed = 1;
nodes = (
"287 -261 LINE",
"391 -49 LINE",
"205 -49 LINE",
"139 -261 LINE"
);
}
);
width = 549;
}
);
leftKerningGroup = dollar;
note = Scommaaccent;
rightKerningGroup = dollar;
unicode = 0218;
},
{
glyphname = Sdotaccent;
lastChange = "2015-08-01 07:19:48 +0000";
layers = (
{
layerId = "9C7BFC1E-BC2B-47ED-B7E7-0F1FF6E98B93";
name = Bold;
paths = (
{
closed = 1;
nodes = (
"442 -15 OFFCURVE",
"527 65 OFFCURVE",
"527 169 CURVE SMOOTH",
"527 288 OFFCURVE",
"455 320 OFFCURVE",
"313 378 CURVE SMOOTH",
"253 402 OFFCURVE",
"182 428 OFFCURVE",
"182 488 CURVE SMOOTH",
"182 541 OFFCURVE",
"219 560 OFFCURVE",
"272 560 CURVE SMOOTH",
"305 560 OFFCURVE",
"333 554 OFFCURVE",
"357 540 CURVE",
"357 474 LINE",
"516 474 LINE",
"516 579 LINE",
"464 624 OFFCURVE",
"393 662 OFFCURVE",
"280 662 CURVE SMOOTH",
"142 662 OFFCURVE",
"26 606 OFFCURVE",
"26 482 CURVE SMOOTH",
"26 375 OFFCURVE",
"104 326 OFFCURVE",
"237 270 CURVE SMOOTH",
"324 233 OFFCURVE",
"372 214 OFFCURVE",
"372 161 CURVE SMOOTH",
"372 110 OFFCURVE",
"341 87 OFFCURVE",
"282 87 CURVE SMOOTH",
"241 87 OFFCURVE",
"207 95 OFFCURVE",
"180 110 CURVE",
"180 183 LINE",
"21 183 LINE",
"21 67 LINE",
"83 17 OFFCURVE",
"171 -15 OFFCURVE",
"281 -15 CURVE SMOOTH"
);
},
{
closed = 1;
nodes = (
"332 718 LINE",
"332 840 LINE",
"216 840 LINE",
"216 718 LINE"
);
}
);
width = 549;
}
);
leftKerningGroup = dollar;
note = Sdotaccent;
rightKerningGroup = dollar;
unicode = 1E60;
},
{
glyphname = Sdotbelow;
lastChange = "2015-08-01 07:19:49 +0000";
layers = (
{
layerId = "9C7BFC1E-BC2B-47ED-B7E7-0F1FF6E98B93";
name = Bold;
paths = (
{
closed = 1;
nodes = (
"442 -15 OFFCURVE",
"527 65 OFFCURVE",
"527 169 CURVE SMOOTH",
"527 288 OFFCURVE",
"455 320 OFFCURVE",
"313 378 CURVE SMOOTH",
"253 402 OFFCURVE",
"182 428 OFFCURVE",
"182 488 CURVE SMOOTH",
"182 541 OFFCURVE",
"219 560 OFFCURVE",
"272 560 CURVE SMOOTH",
"305 560 OFFCURVE",
"333 554 OFFCURVE",
"357 540 CURVE",
"357 474 LINE",
"516 474 LINE",
"516 579 LINE",
"464 624 OFFCURVE",
"393 662 OFFCURVE",
"280 662 CURVE SMOOTH",
"142 662 OFFCURVE",
"26 606 OFFCURVE",
"26 482 CURVE SMOOTH",
"26 375 OFFCURVE",
"104 326 OFFCURVE",
"237 270 CURVE SMOOTH",
"324 233 OFFCURVE",
"372 214 OFFCURVE",
"372 161 CURVE SMOOTH",
"372 110 OFFCURVE",
"341 87 OFFCURVE",
"282 87 CURVE SMOOTH",
"241 87 OFFCURVE",
"207 95 OFFCURVE",
"180 110 CURVE",
"180 183 LINE",
"21 183 LINE",
"21 67 LINE",
"83 17 OFFCURVE",
"171 -15 OFFCURVE",
"281 -15 CURVE SMOOTH"
);
},
{
closed = 1;
nodes = (
"323 -183 LINE",
"323 -61 LINE",
"207 -61 LINE",
"207 -183 LINE"
);
}
);
width = 549;
}
);
leftKerningGroup = dollar;
note = Sdotbelow;
rightKerningGroup = dollar;
unicode = 1E62;
},
{
glyphname = Germandbls;
lastChange = "2015-07-31 16:52:58 +0000";
layers = (
{
layerId = "9C7BFC1E-BC2B-47ED-B7E7-0F1FF6E98B93";
name = Bold;
paths = (
{
closed = 1;
nodes = (
"584 -15 OFFCURVE",
"650 71 OFFCURVE",
"650 191 CURVE SMOOTH",
"650 311 OFFCURVE",
"604 377 OFFCURVE",
"486 389 CURVE",
"590 513 LINE",
"590 601 OFFCURVE",
"511 690 OFFCURVE",
"347 690 CURVE SMOOTH",
"149 690 OFFCURVE",
"70 591 OFFCURVE",
"70 457 CURVE SMOOTH",
"70 148 LINE SMOOTH",
"70 116 OFFCURVE",
"65 101 OFFCURVE",
"36 101 CURVE SMOOTH",
"11 101 LINE",
"11 0 LINE",
"232 0 LINE",
"232 461 LINE SMOOTH",
"232 548 OFFCURVE",
"266 588 OFFCURVE",
"345 588 CURVE SMOOTH",
"401 588 OFFCURVE",
"434 563 OFFCURVE",
"434 534 CURVE",
"298 363 LINE",
"298 292 LINE",
"396 292 LINE SMOOTH",
"466 292 OFFCURVE",
"494 261 OFFCURVE",
"494 190 CURVE SMOOTH",
"494 113 OFFCURVE",
"470 82 OFFCURVE",
"420 82 CURVE SMOOTH",
"391 82 OFFCURVE",
"370 87 OFFCURVE",
"346 101 CURVE",
"297 19 LINE",
"336 -5 OFFCURVE",
"385 -15 OFFCURVE",
"433 -15 CURVE SMOOTH"
);
}
);
width = 671;
}
);
note = uni1E9E;
unicode = 1E9E;
},
{
glyphname = Schwa;
lastChange = "2015-07-31 16:52:59 +0000";
layers = (
{
layerId = "9C7BFC1E-BC2B-47ED-B7E7-0F1FF6E98B93";
name = Bold;
paths = (
{
closed = 1;
nodes = (
"555 -15 OFFCURVE",
"661 106 OFFCURVE",
"661 335 CURVE SMOOTH",
"661 563 OFFCURVE",
"519 662 OFFCURVE",
"331 662 CURVE SMOOTH",
"216 662 OFFCURVE",
"122 637 OFFCURVE",
"42 577 CURVE",
"42 468 LINE",
"203 468 LINE",
"203 539 LINE",
"234 552 OFFCURVE",
"276 560 OFFCURVE",
"331 560 CURVE SMOOTH",
"445 560 OFFCURVE",
"506 498 OFFCURVE",
"506 379 CURVE",
"21 379 LINE",
"21 302 LINE SMOOTH",
"21 123 OFFCURVE",
"122 -15 OFFCURVE",
"342 -15 CURVE SMOOTH"
);
},
{
closed = 1;
nodes = (
"238 87 OFFCURVE",
"184 157 OFFCURVE",
"184 275 CURVE",
"506 275 LINE",
"506 170 OFFCURVE",
"464 87 OFFCURVE",
"342 87 CURVE SMOOTH"
);
}
);
width = 682;
}
);
note = uni018F;
unicode = 018F;
},
{
glyphname = T;
lastChange = "2015-08-01 07:19:48 +0000";
layers = (
{
layerId = "9C7BFC1E-BC2B-47ED-B7E7-0F1FF6E98B93";
name = Bold;
paths = (
{
closed = 1;
nodes = (
"448 0 LINE",
"448 101 LINE",
"425 101 LINE SMOOTH",
"396 101 OFFCURVE",
"384 115 OFFCURVE",
"384 138 CURVE SMOOTH",
"384 545 LINE",
"450 545 LINE SMOOTH",
"478 545 OFFCURVE",
"490 533 OFFCURVE",
"490 507 CURVE SMOOTH",
"490 466 LINE",
"599 466 LINE",
"599 646 LINE",
"11 646 LINE",
"11 466 LINE",
"121 466 LINE",
"121 507 LINE SMOOTH",
"121 533 OFFCURVE",
"133 545 OFFCURVE",
"161 545 CURVE SMOOTH",
"227 545 LINE",
"227 138 LINE SMOOTH",
"227 115 OFFCURVE",
"216 101 OFFCURVE",
"187 101 CURVE SMOOTH",
"164 101 LINE",
"164 0 LINE"
);
}
);
width = 611;
}
);
leftKerningGroup = T;
note = T;
rightKerningGroup = T;
unicode = 0054;
},
{
glyphname = Tbar;
lastChange = "2015-08-01 07:19:47 +0000";
layers = (
{
layerId = "9C7BFC1E-BC2B-47ED-B7E7-0F1FF6E98B93";
name = Bold;
paths = (
{
closed = 1;
nodes = (
"448 0 LINE",
"448 101 LINE",
"425 101 LINE SMOOTH",
"396 101 OFFCURVE",
"384 115 OFFCURVE",
"384 138 CURVE SMOOTH",
"384 545 LINE",
"450 545 LINE SMOOTH",
"478 545 OFFCURVE",
"490 533 OFFCURVE",
"490 507 CURVE SMOOTH",
"490 466 LINE",
"599 466 LINE",
"599 646 LINE",
"11 646 LINE",
"11 466 LINE",
"121 466 LINE",
"121 507 LINE SMOOTH",
"121 533 OFFCURVE",
"133 545 OFFCURVE",
"161 545 CURVE SMOOTH",
"227 545 LINE",
"227 138 LINE SMOOTH",
"227 115 OFFCURVE",
"216 101 OFFCURVE",
"187 101 CURVE SMOOTH",
"164 101 LINE",
"164 0 LINE"
);
},
{
closed = 1;
nodes = (
"496 265 LINE",
"496 358 LINE",
"134 358 LINE",
"134 265 LINE"
);
}
);
width = 611;
}
);
leftKerningGroup = T;
note = Tbar;
rightKerningGroup = T;
unicode = 0166;
},
{
glyphname = Tcaron;
lastChange = "2015-08-01 07:19:49 +0000";
layers = (
{
layerId = "9C7BFC1E-BC2B-47ED-B7E7-0F1FF6E98B93";
name = Bold;
paths = (
{
closed = 1;
nodes = (
"448 0 LINE",
"448 101 LINE",
"425 101 LINE SMOOTH",
"396 101 OFFCURVE",
"384 115 OFFCURVE",
"384 138 CURVE SMOOTH",
"384 545 LINE",
"450 545 LINE SMOOTH",
"478 545 OFFCURVE",
"490 533 OFFCURVE",
"490 507 CURVE SMOOTH",
"490 466 LINE",
"599 466 LINE",
"599 646 LINE",
"11 646 LINE",
"11 466 LINE",
"121 466 LINE",
"121 507 LINE SMOOTH",
"121 533 OFFCURVE",
"133 545 OFFCURVE",
"161 545 CURVE SMOOTH",
"227 545 LINE",
"227 138 LINE SMOOTH",
"227 115 OFFCURVE",
"216 101 OFFCURVE",
"187 101 CURVE SMOOTH",
"164 101 LINE",
"164 0 LINE"
);
},
{
closed = 1;
nodes = (
"375 698 LINE",
"510 896 LINE",
"369 896 LINE",
"306 782 LINE",
"242 896 LINE",
"103 896 LINE",
"239 698 LINE"
);
}
);
width = 611;
}
);
leftKerningGroup = T;
note = Tcaron;
rightKerningGroup = T;
unicode = 0164;
},
{
glyphname = Tcedilla;
lastChange = "2015-08-01 07:19:49 +0000";
layers = (
{
layerId = "9C7BFC1E-BC2B-47ED-B7E7-0F1FF6E98B93";
name = Bold;
paths = (
{
closed = 1;
nodes = (
"448 0 LINE",
"448 101 LINE",
"425 101 LINE SMOOTH",
"396 101 OFFCURVE",
"384 115 OFFCURVE",
"384 138 CURVE SMOOTH",
"384 545 LINE",
"450 545 LINE SMOOTH",
"478 545 OFFCURVE",
"490 533 OFFCURVE",
"490 507 CURVE SMOOTH",
"490 466 LINE",
"599 466 LINE",
"599 646 LINE",
"11 646 LINE",
"11 466 LINE",
"121 466 LINE",
"121 507 LINE SMOOTH",
"121 533 OFFCURVE",
"133 545 OFFCURVE",
"161 545 CURVE SMOOTH",
"227 545 LINE",
"227 138 LINE SMOOTH",
"227 115 OFFCURVE",
"216 101 OFFCURVE",
"187 101 CURVE SMOOTH",
"164 101 LINE",
"164 0 LINE"
);
},
{
closed = 1;
nodes = (
"395 -228 OFFCURVE",
"441 -190 OFFCURVE",
"441 -127 CURVE SMOOTH",
"441 -79 OFFCURVE",
"418 -50 OFFCURVE",
"364 -40 CURVE",
"371 0 LINE",
"227 0 LINE",
"215 -79 LINE",
"290 -79 OFFCURVE",
"307 -93 OFFCURVE",
"307 -120 CURVE SMOOTH",
"307 -135 OFFCURVE",
"296 -144 OFFCURVE",
"267 -144 CURVE SMOOTH",
"246 -144 OFFCURVE",
"215 -140 OFFCURVE",
"189 -127 CURVE",
"189 -211 LINE",
"220 -224 OFFCURVE",
"248 -228 OFFCURVE",
"285 -228 CURVE SMOOTH"
);
}
);
width = 611;
}
);
leftKerningGroup = T;
note = Tcedilla;
rightKerningGroup = T;
unicode = 0162;
},
{
glyphname = Tcommaaccent;
lastChange = "2015-08-01 07:19:49 +0000";
layers = (
{
layerId = "9C7BFC1E-BC2B-47ED-B7E7-0F1FF6E98B93";
name = Bold;
paths = (
{
closed = 1;
nodes = (
"448 0 LINE",
"448 101 LINE",
"425 101 LINE SMOOTH",
"396 101 OFFCURVE",
"384 115 OFFCURVE",
"384 138 CURVE SMOOTH",
"384 545 LINE",
"450 545 LINE SMOOTH",
"478 545 OFFCURVE",
"490 533 OFFCURVE",
"490 507 CURVE SMOOTH",
"490 466 LINE",
"599 466 LINE",
"599 646 LINE",
"11 646 LINE",
"11 466 LINE",
"121 466 LINE",
"121 507 LINE SMOOTH",
"121 533 OFFCURVE",
"133 545 OFFCURVE",
"161 545 CURVE SMOOTH",
"227 545 LINE",
"227 138 LINE SMOOTH",
"227 115 OFFCURVE",
"216 101 OFFCURVE",
"187 101 CURVE SMOOTH",
"164 101 LINE",
"164 0 LINE"
);
},
{
closed = 1;
nodes = (
"330 -272 LINE",
"398 -49 LINE",
"234 -49 LINE",
"200 -272 LINE"
);
}
);
width = 611;
}
);
leftKerningGroup = T;
note = Tcommaaccent;
rightKerningGroup = T;
unicode = 021A;
},
{
glyphname = Tdotbelow;
lastChange = "2015-08-01 07:19:48 +0000";
layers = (
{
layerId = "9C7BFC1E-BC2B-47ED-B7E7-0F1FF6E98B93";
name = Bold;
paths = (
{
closed = 1;
nodes = (
"448 0 LINE",
"448 101 LINE",
"425 101 LINE SMOOTH",
"396 101 OFFCURVE",
"384 115 OFFCURVE",
"384 138 CURVE SMOOTH",
"384 545 LINE",
"450 545 LINE SMOOTH",
"478 545 OFFCURVE",
"490 533 OFFCURVE",
"490 507 CURVE SMOOTH",
"490 466 LINE",
"599 466 LINE",
"599 646 LINE",
"11 646 LINE",
"11 466 LINE",
"121 466 LINE",
"121 507 LINE SMOOTH",
"121 533 OFFCURVE",
"133 545 OFFCURVE",
"161 545 CURVE SMOOTH",
"227 545 LINE",
"227 138 LINE SMOOTH",
"227 115 OFFCURVE",
"216 101 OFFCURVE",
"187 101 CURVE SMOOTH",
"164 101 LINE",
"164 0 LINE"
);
},
{
closed = 1;
nodes = (
"358 -183 LINE",
"358 -61 LINE",
"242 -61 LINE",
"242 -183 LINE"
);
}
);
width = 611;
}
);
leftKerningGroup = T;
note = Tdotbelow;
rightKerningGroup = T;
unicode = 1E6C;
},
{
glyphname = Tlinebelow;
lastChange = "2015-08-01 07:19:49 +0000";
layers = (
{
layerId = "9C7BFC1E-BC2B-47ED-B7E7-0F1FF6E98B93";
name = Bold;
paths = (
{
closed = 1;
nodes = (
"448 0 LINE",
"448 101 LINE",
"425 101 LINE SMOOTH",
"396 101 OFFCURVE",
"384 115 OFFCURVE",
"384 138 CURVE SMOOTH",
"384 545 LINE",
"450 545 LINE SMOOTH",
"478 545 OFFCURVE",
"490 533 OFFCURVE",
"490 507 CURVE SMOOTH",
"490 466 LINE",
"599 466 LINE",
"599 646 LINE",
"11 646 LINE",
"11 466 LINE",
"121 466 LINE",
"121 507 LINE SMOOTH",
"121 533 OFFCURVE",
"133 545 OFFCURVE",
"161 545 CURVE SMOOTH",
"227 545 LINE",
"227 138 LINE SMOOTH",
"227 115 OFFCURVE",
"216 101 OFFCURVE",
"187 101 CURVE SMOOTH",
"164 101 LINE",
"164 0 LINE"
);
},
{
closed = 1;
nodes = (
"457 -143 LINE",
"457 -51 LINE",
"150 -51 LINE",
"150 -143 LINE"
);
}
);
width = 611;
}
);
leftKerningGroup = T;
note = Tlinebelow;
rightKerningGroup = T;
unicode = 1E6E;
},
{
glyphname = U;
lastChange = "2015-08-01 07:19:48 +0000";
layers = (
{
layerId = "9C7BFC1E-BC2B-47ED-B7E7-0F1FF6E98B93";
name = Bold;
paths = (
{
closed = 1;
nodes = (
"517 -15 OFFCURVE",
"601 66 OFFCURVE",
"601 187 CURVE SMOOTH",
"601 509 LINE SMOOTH",
"601 533 OFFCURVE",
"612 546 OFFCURVE",
"640 546 CURVE SMOOTH",
"661 546 LINE",
"661 647 LINE",
"389 647 LINE",
"389 546 LINE",
"406 546 LINE SMOOTH",
"434 546 OFFCURVE",
"445 533 OFFCURVE",
"445 508 CURVE SMOOTH",
"445 181 LINE SMOOTH",
"445 114 OFFCURVE",
"406 87 OFFCURVE",
"336 87 CURVE SMOOTH",
"266 87 OFFCURVE",
"227 114 OFFCURVE",
"227 181 CURVE SMOOTH",
"227 508 LINE SMOOTH",
"227 533 OFFCURVE",
"238 546 OFFCURVE",
"267 546 CURVE SMOOTH",
"283 546 LINE",
"283 647 LINE",
"11 647 LINE",
"11 546 LINE",
"32 546 LINE SMOOTH",
"61 546 OFFCURVE",
"72 533 OFFCURVE",
"72 509 CURVE SMOOTH",
"72 187 LINE SMOOTH",
"72 66 OFFCURVE",
"155 -15 OFFCURVE",
"336 -15 CURVE SMOOTH"
);
}
);
width = 673;
}
);
leftKerningGroup = U;
note = U;
rightKerningGroup = U;
unicode = 0055;
},
{
glyphname = Uacute;
lastChange = "2015-08-01 07:19:48 +0000";
layers = (
{
layerId = "9C7BFC1E-BC2B-47ED-B7E7-0F1FF6E98B93";
name = Bold;
paths = (
{
closed = 1;
nodes = (
"517 -15 OFFCURVE",
"601 66 OFFCURVE",
"601 187 CURVE SMOOTH",
"601 509 LINE SMOOTH",
"601 533 OFFCURVE",
"612 546 OFFCURVE",
"640 546 CURVE SMOOTH",
"661 546 LINE",
"661 647 LINE",
"389 647 LINE",
"389 546 LINE",
"406 546 LINE SMOOTH",
"434 546 OFFCURVE",
"445 533 OFFCURVE",
"445 508 CURVE SMOOTH",
"445 181 LINE SMOOTH",
"445 114 OFFCURVE",
"406 87 OFFCURVE",
"336 87 CURVE SMOOTH",
"266 87 OFFCURVE",
"227 114 OFFCURVE",
"227 181 CURVE SMOOTH",
"227 508 LINE SMOOTH",
"227 533 OFFCURVE",
"238 546 OFFCURVE",
"267 546 CURVE SMOOTH",
"283 546 LINE",
"283 647 LINE",
"11 647 LINE",
"11 546 LINE",
"32 546 LINE SMOOTH",
"61 546 OFFCURVE",
"72 533 OFFCURVE",
"72 509 CURVE SMOOTH",
"72 187 LINE SMOOTH",
"72 66 OFFCURVE",
"155 -15 OFFCURVE",
"336 -15 CURVE SMOOTH"
);
},
{
closed = 1;
nodes = (
"384 699 LINE",
"497 879 LINE",
"326 879 LINE",
"251 699 LINE"
);
}
);
width = 673;
}
);
leftKerningGroup = U;
note = Uacute;
rightKerningGroup = U;
unicode = 00DA;
},
{
glyphname = Ubreve;
lastChange = "2015-08-01 07:19:48 +0000";
layers = (
{
layerId = "9C7BFC1E-BC2B-47ED-B7E7-0F1FF6E98B93";
name = Bold;
paths = (
{
closed = 1;
nodes = (
"517 -15 OFFCURVE",
"601 66 OFFCURVE",
"601 187 CURVE SMOOTH",
"601 509 LINE SMOOTH",
"601 533 OFFCURVE",
"612 546 OFFCURVE",
"640 546 CURVE SMOOTH",
"661 546 LINE",
"661 647 LINE",
"389 647 LINE",
"389 546 LINE",
"406 546 LINE SMOOTH",
"434 546 OFFCURVE",
"445 533 OFFCURVE",
"445 508 CURVE SMOOTH",
"445 181 LINE SMOOTH",
"445 114 OFFCURVE",
"406 87 OFFCURVE",
"336 87 CURVE SMOOTH",
"266 87 OFFCURVE",
"227 114 OFFCURVE",
"227 181 CURVE SMOOTH",
"227 508 LINE SMOOTH",
"227 533 OFFCURVE",
"238 546 OFFCURVE",
"267 546 CURVE SMOOTH",
"283 546 LINE",
"283 647 LINE",
"11 647 LINE",
"11 546 LINE",
"32 546 LINE SMOOTH",
"61 546 OFFCURVE",
"72 533 OFFCURVE",
"72 509 CURVE SMOOTH",
"72 187 LINE SMOOTH",
"72 66 OFFCURVE",
"155 -15 OFFCURVE",
"336 -15 CURVE SMOOTH"
);
},
{
closed = 1;
nodes = (
"450 698 OFFCURVE",
"514 760 OFFCURVE",
"514 854 CURVE",
"384 854 LINE",
"384 815 OFFCURVE",
"373 791 OFFCURVE",
"336 791 CURVE SMOOTH",
"303 791 OFFCURVE",
"288 815 OFFCURVE",
"288 854 CURVE",
"158 854 LINE",
"158 760 OFFCURVE",
"222 698 OFFCURVE",
"336 698 CURVE SMOOTH"
);
}
);
width = 673;
}
);
leftKerningGroup = U;
note = Ubreve;
rightKerningGroup = U;
unicode = 016C;
},
{
glyphname = Ucaron;
lastChange = "2015-08-01 07:19:49 +0000";
layers = (
{
layerId = "9C7BFC1E-BC2B-47ED-B7E7-0F1FF6E98B93";
name = Bold;
paths = (
{
closed = 1;
nodes = (
"517 -15 OFFCURVE",
"601 66 OFFCURVE",
"601 187 CURVE SMOOTH",
"601 509 LINE SMOOTH",
"601 533 OFFCURVE",
"612 546 OFFCURVE",
"640 546 CURVE SMOOTH",
"661 546 LINE",
"661 647 LINE",
"389 647 LINE",
"389 546 LINE",
"406 546 LINE SMOOTH",
"434 546 OFFCURVE",
"445 533 OFFCURVE",
"445 508 CURVE SMOOTH",
"445 181 LINE SMOOTH",
"445 114 OFFCURVE",
"406 87 OFFCURVE",
"336 87 CURVE SMOOTH",
"266 87 OFFCURVE",
"227 114 OFFCURVE",
"227 181 CURVE SMOOTH",
"227 508 LINE SMOOTH",
"227 533 OFFCURVE",
"238 546 OFFCURVE",
"267 546 CURVE SMOOTH",
"283 546 LINE",
"283 647 LINE",
"11 647 LINE",
"11 546 LINE",
"32 546 LINE SMOOTH",
"61 546 OFFCURVE",
"72 533 OFFCURVE",
"72 509 CURVE SMOOTH",
"72 187 LINE SMOOTH",
"72 66 OFFCURVE",
"155 -15 OFFCURVE",
"336 -15 CURVE SMOOTH"
);
},
{
closed = 1;
nodes = (
"404 698 LINE",
"539 896 LINE",
"398 896 LINE",
"335 782 LINE",
"271 896 LINE",
"132 896 LINE",
"268 698 LINE"
);
}
);
width = 673;
}
);
leftKerningGroup = U;
note = Ucaron;
rightKerningGroup = U;
unicode = 01D3;
},
{
glyphname = Ucircumflex;
lastChange = "2015-08-01 07:19:49 +0000";
layers = (
{
layerId = "9C7BFC1E-BC2B-47ED-B7E7-0F1FF6E98B93";
name = Bold;
paths = (
{
closed = 1;
nodes = (
"517 -15 OFFCURVE",
"601 66 OFFCURVE",
"601 187 CURVE SMOOTH",
"601 509 LINE SMOOTH",
"601 533 OFFCURVE",
"612 546 OFFCURVE",
"640 546 CURVE SMOOTH",
"661 546 LINE",
"661 647 LINE",
"389 647 LINE",
"389 546 LINE",
"406 546 LINE SMOOTH",
"434 546 OFFCURVE",
"445 533 OFFCURVE",
"445 508 CURVE SMOOTH",
"445 181 LINE SMOOTH",
"445 114 OFFCURVE",
"406 87 OFFCURVE",
"336 87 CURVE SMOOTH",
"266 87 OFFCURVE",
"227 114 OFFCURVE",
"227 181 CURVE SMOOTH",
"227 508 LINE SMOOTH",
"227 533 OFFCURVE",
"238 546 OFFCURVE",
"267 546 CURVE SMOOTH",
"283 546 LINE",
"283 647 LINE",
"11 647 LINE",
"11 546 LINE",
"32 546 LINE SMOOTH",
"61 546 OFFCURVE",
"72 533 OFFCURVE",
"72 509 CURVE SMOOTH",
"72 187 LINE SMOOTH",
"72 66 OFFCURVE",
"155 -15 OFFCURVE",
"336 -15 CURVE SMOOTH"
);
},
{
closed = 1;
nodes = (
"272 698 LINE",
"336 812 LINE",
"399 698 LINE",
"540 698 LINE",
"405 896 LINE",
"269 896 LINE",
"133 698 LINE"
);
}
);
width = 673;
}
);
leftKerningGroup = U;
note = Ucircumflex;
rightKerningGroup = U;
unicode = 00DB;
},
{
glyphname = Udieresis;
lastChange = "2015-08-01 07:19:47 +0000";
layers = (
{
layerId = "9C7BFC1E-BC2B-47ED-B7E7-0F1FF6E98B93";
name = Bold;
paths = (
{
closed = 1;
nodes = (
"527 -15 OFFCURVE",
"611 66 OFFCURVE",
"611 187 CURVE SMOOTH",
"611 509 LINE SMOOTH",
"611 533 OFFCURVE",
"622 546 OFFCURVE",
"650 546 CURVE SMOOTH",
"671 546 LINE",
"671 647 LINE",
"399 647 LINE",
"399 546 LINE",
"416 546 LINE SMOOTH",
"444 546 OFFCURVE",
"455 533 OFFCURVE",
"455 508 CURVE SMOOTH",
"455 181 LINE SMOOTH",
"455 114 OFFCURVE",
"416 87 OFFCURVE",
"346 87 CURVE SMOOTH",
"276 87 OFFCURVE",
"237 114 OFFCURVE",
"237 181 CURVE SMOOTH",
"237 508 LINE SMOOTH",
"237 533 OFFCURVE",
"248 546 OFFCURVE",
"277 546 CURVE SMOOTH",
"293 546 LINE",
"293 647 LINE",
"21 647 LINE",
"21 546 LINE",
"42 546 LINE SMOOTH",
"71 546 OFFCURVE",
"82 533 OFFCURVE",
"82 509 CURVE SMOOTH",
"82 187 LINE SMOOTH",
"82 66 OFFCURVE",
"165 -15 OFFCURVE",
"346 -15 CURVE SMOOTH"
);
},
{
closed = 1;
nodes = (
"285 718 LINE",
"285 840 LINE",
"169 840 LINE",
"169 718 LINE"
);
},
{
closed = 1;
nodes = (
"523 718 LINE",
"523 840 LINE",
"406 840 LINE",
"406 718 LINE"
);
}
);
width = 693;
}
);
leftKerningGroup = U;
note = Udieresis;
rightKerningGroup = U;
unicode = 00DC;
},
{
glyphname = Udieresisacute;
lastChange = "2015-08-01 07:19:47 +0000";
layers = (
{
layerId = "9C7BFC1E-BC2B-47ED-B7E7-0F1FF6E98B93";
name = Bold;
paths = (
{
closed = 1;
nodes = (
"517 -15 OFFCURVE",
"601 66 OFFCURVE",
"601 187 CURVE SMOOTH",
"601 509 LINE SMOOTH",
"601 533 OFFCURVE",
"612 546 OFFCURVE",
"640 546 CURVE SMOOTH",
"661 546 LINE",
"661 647 LINE",
"389 647 LINE",
"389 546 LINE",
"406 546 LINE SMOOTH",
"434 546 OFFCURVE",
"445 533 OFFCURVE",
"445 508 CURVE SMOOTH",
"445 181 LINE SMOOTH",
"445 114 OFFCURVE",
"406 87 OFFCURVE",
"336 87 CURVE SMOOTH",
"266 87 OFFCURVE",
"227 114 OFFCURVE",
"227 181 CURVE SMOOTH",
"227 508 LINE SMOOTH",
"227 533 OFFCURVE",
"238 546 OFFCURVE",
"267 546 CURVE SMOOTH",
"283 546 LINE",
"283 647 LINE",
"11 647 LINE",
"11 546 LINE",
"32 546 LINE SMOOTH",
"61 546 OFFCURVE",
"72 533 OFFCURVE",
"72 509 CURVE SMOOTH",
"72 187 LINE SMOOTH",
"72 66 OFFCURVE",
"155 -15 OFFCURVE",
"336 -15 CURVE SMOOTH"
);
},
{
closed = 1;
nodes = (
"268 707 LINE",
"268 825 LINE",
"154 825 LINE",
"154 707 LINE"
);
},
{
closed = 1;
nodes = (
"508 707 LINE",
"508 825 LINE",
"392 825 LINE",
"392 707 LINE"
);
},
{
closed = 1;
nodes = (
"382 862 LINE",
"484 1008 LINE",
"335 1008 LINE",
"274 862 LINE"
);
}
);
width = 673;
}
);
leftKerningGroup = U;
note = Udieresisacute;
rightKerningGroup = U;
unicode = 01D7;
},
{
glyphname = Udieresiscaron;
lastChange = "2015-08-01 07:19:49 +0000";
layers = (
{
layerId = "9C7BFC1E-BC2B-47ED-B7E7-0F1FF6E98B93";
name = Bold;
paths = (
{
closed = 1;
nodes = (
"517 -15 OFFCURVE",
"601 66 OFFCURVE",
"601 187 CURVE SMOOTH",
"601 509 LINE SMOOTH",
"601 533 OFFCURVE",
"612 546 OFFCURVE",
"640 546 CURVE SMOOTH",
"661 546 LINE",
"661 647 LINE",
"389 647 LINE",
"389 546 LINE",
"406 546 LINE SMOOTH",
"434 546 OFFCURVE",
"445 533 OFFCURVE",
"445 508 CURVE SMOOTH",
"445 181 LINE SMOOTH",
"445 114 OFFCURVE",
"406 87 OFFCURVE",
"336 87 CURVE SMOOTH",
"266 87 OFFCURVE",
"227 114 OFFCURVE",
"227 181 CURVE SMOOTH",
"227 508 LINE SMOOTH",
"227 533 OFFCURVE",
"238 546 OFFCURVE",
"267 546 CURVE SMOOTH",
"283 546 LINE",
"283 647 LINE",
"11 647 LINE",
"11 546 LINE",
"32 546 LINE SMOOTH",
"61 546 OFFCURVE",
"72 533 OFFCURVE",
"72 509 CURVE SMOOTH",
"72 187 LINE SMOOTH",
"72 66 OFFCURVE",
"155 -15 OFFCURVE",
"336 -15 CURVE SMOOTH"
);
},
{
closed = 1;
nodes = (
"272 707 LINE",
"272 825 LINE",
"158 825 LINE",
"158 707 LINE"
);
},
{
closed = 1;
nodes = (
"512 707 LINE",
"512 825 LINE",
"396 825 LINE",
"396 707 LINE"
);
},
{
closed = 1;
nodes = (
"401 851 LINE",
"515 996 LINE",
"385 996 LINE",
"336 922 LINE",
"286 996 LINE",
"156 996 LINE",
"270 851 LINE"
);
}
);
width = 673;
}
);
leftKerningGroup = U;
note = Udieresiscaron;
rightKerningGroup = U;
unicode = 01D9;
},
{
glyphname = Udieresisgrave;
lastChange = "2015-08-01 07:19:47 +0000";
layers = (
{
layerId = "9C7BFC1E-BC2B-47ED-B7E7-0F1FF6E98B93";
name = Bold;
paths = (
{
closed = 1;
nodes = (
"517 -15 OFFCURVE",
"601 66 OFFCURVE",
"601 187 CURVE SMOOTH",
"601 509 LINE SMOOTH",
"601 533 OFFCURVE",
"612 546 OFFCURVE",
"640 546 CURVE SMOOTH",
"661 546 LINE",
"661 647 LINE",
"389 647 LINE",
"389 546 LINE",
"406 546 LINE SMOOTH",
"434 546 OFFCURVE",
"445 533 OFFCURVE",
"445 508 CURVE SMOOTH",
"445 181 LINE SMOOTH",
"445 114 OFFCURVE",
"406 87 OFFCURVE",
"336 87 CURVE SMOOTH",
"266 87 OFFCURVE",
"227 114 OFFCURVE",
"227 181 CURVE SMOOTH",
"227 508 LINE SMOOTH",
"227 533 OFFCURVE",
"238 546 OFFCURVE",
"267 546 CURVE SMOOTH",
"283 546 LINE",
"283 647 LINE",
"11 647 LINE",
"11 546 LINE",
"32 546 LINE SMOOTH",
"61 546 OFFCURVE",
"72 533 OFFCURVE",
"72 509 CURVE SMOOTH",
"72 187 LINE SMOOTH",
"72 66 OFFCURVE",
"155 -15 OFFCURVE",
"336 -15 CURVE SMOOTH"
);
},
{
closed = 1;
nodes = (
"274 707 LINE",
"274 825 LINE",
"160 825 LINE",
"160 707 LINE"
);
},
{
closed = 1;
nodes = (
"514 707 LINE",
"514 825 LINE",
"398 825 LINE",
"398 707 LINE"
);
},
{
closed = 1;
nodes = (
"393 862 LINE",
"332 1008 LINE",
"183 1008 LINE",
"285 862 LINE"
);
}
);
width = 673;
}
);
leftKerningGroup = U;
note = Udieresisgrave;
rightKerningGroup = U;
unicode = 01DB;
},
{
glyphname = Udieresismacron;
lastChange = "2015-08-01 07:19:49 +0000";
layers = (
{
layerId = "9C7BFC1E-BC2B-47ED-B7E7-0F1FF6E98B93";
name = Bold;
paths = (
{
closed = 1;
nodes = (
"517 -15 OFFCURVE",
"601 66 OFFCURVE",
"601 187 CURVE SMOOTH",
"601 509 LINE SMOOTH",
"601 533 OFFCURVE",
"612 546 OFFCURVE",
"640 546 CURVE SMOOTH",
"661 546 LINE",
"661 647 LINE",
"389 647 LINE",
"389 546 LINE",
"406 546 LINE SMOOTH",
"434 546 OFFCURVE",
"445 533 OFFCURVE",
"445 508 CURVE SMOOTH",
"445 181 LINE SMOOTH",
"445 114 OFFCURVE",
"406 87 OFFCURVE",
"336 87 CURVE SMOOTH",
"266 87 OFFCURVE",
"227 114 OFFCURVE",
"227 181 CURVE SMOOTH",
"227 508 LINE SMOOTH",
"227 533 OFFCURVE",
"238 546 OFFCURVE",
"267 546 CURVE SMOOTH",
"283 546 LINE",
"283 647 LINE",
"11 647 LINE",
"11 546 LINE",
"32 546 LINE SMOOTH",
"61 546 OFFCURVE",
"72 533 OFFCURVE",
"72 509 CURVE SMOOTH",
"72 187 LINE SMOOTH",
"72 66 OFFCURVE",
"155 -15 OFFCURVE",
"336 -15 CURVE SMOOTH"
);
},
{
closed = 1;
nodes = (
"275 702 LINE",
"275 824 LINE",
"159 824 LINE",
"159 702 LINE"
);
},
{
closed = 1;
nodes = (
"513 702 LINE",
"513 824 LINE",
"396 824 LINE",
"396 702 LINE"
);
},
{
closed = 1;
nodes = (
"490 872 LINE",
"490 964 LINE",
"183 964 LINE",
"183 872 LINE"
);
}
);
width = 673;
}
);
leftKerningGroup = U;
note = Udieresismacron;
rightKerningGroup = U;
unicode = 01D5;
},
{
glyphname = Udotbelow;
lastChange = "2015-08-01 07:19:48 +0000";
layers = (
{
layerId = "9C7BFC1E-BC2B-47ED-B7E7-0F1FF6E98B93";
name = Bold;
paths = (
{
closed = 1;
nodes = (
"517 -15 OFFCURVE",
"601 66 OFFCURVE",
"601 187 CURVE SMOOTH",
"601 509 LINE SMOOTH",
"601 533 OFFCURVE",
"612 546 OFFCURVE",
"640 546 CURVE SMOOTH",
"661 546 LINE",
"661 647 LINE",
"389 647 LINE",
"389 546 LINE",
"406 546 LINE SMOOTH",
"434 546 OFFCURVE",
"445 533 OFFCURVE",
"445 508 CURVE SMOOTH",
"445 181 LINE SMOOTH",
"445 114 OFFCURVE",
"406 87 OFFCURVE",
"336 87 CURVE SMOOTH",
"266 87 OFFCURVE",
"227 114 OFFCURVE",
"227 181 CURVE SMOOTH",
"227 508 LINE SMOOTH",
"227 533 OFFCURVE",
"238 546 OFFCURVE",
"267 546 CURVE SMOOTH",
"283 546 LINE",
"283 647 LINE",
"11 647 LINE",
"11 546 LINE",
"32 546 LINE SMOOTH",
"61 546 OFFCURVE",
"72 533 OFFCURVE",
"72 509 CURVE SMOOTH",
"72 187 LINE SMOOTH",
"72 66 OFFCURVE",
"155 -15 OFFCURVE",
"336 -15 CURVE SMOOTH"
);
},
{
closed = 1;
nodes = (
"392 -183 LINE",
"392 -61 LINE",
"276 -61 LINE",
"276 -183 LINE"
);
}
);
width = 673;
}
);
leftKerningGroup = U;
note = Udotbelow;
rightKerningGroup = U;
unicode = 1EE4;
},
{
glyphname = Ugrave;
lastChange = "2015-08-01 07:19:48 +0000";
layers = (
{
layerId = "9C7BFC1E-BC2B-47ED-B7E7-0F1FF6E98B93";
name = Bold;
paths = (
{
closed = 1;
nodes = (
"517 -15 OFFCURVE",
"601 66 OFFCURVE",
"601 187 CURVE SMOOTH",
"601 509 LINE SMOOTH",
"601 533 OFFCURVE",
"612 546 OFFCURVE",
"640 546 CURVE SMOOTH",
"661 546 LINE",
"661 647 LINE",
"389 647 LINE",
"389 546 LINE",
"406 546 LINE SMOOTH",
"434 546 OFFCURVE",
"445 533 OFFCURVE",
"445 508 CURVE SMOOTH",
"445 181 LINE SMOOTH",
"445 114 OFFCURVE",
"406 87 OFFCURVE",
"336 87 CURVE SMOOTH",
"266 87 OFFCURVE",
"227 114 OFFCURVE",
"227 181 CURVE SMOOTH",
"227 508 LINE SMOOTH",
"227 533 OFFCURVE",
"238 546 OFFCURVE",
"267 546 CURVE SMOOTH",
"283 546 LINE",
"283 647 LINE",
"11 647 LINE",
"11 546 LINE",
"32 546 LINE SMOOTH",
"61 546 OFFCURVE",
"72 533 OFFCURVE",
"72 509 CURVE SMOOTH",
"72 187 LINE SMOOTH",
"72 66 OFFCURVE",
"155 -15 OFFCURVE",
"336 -15 CURVE SMOOTH"
);
},
{
closed = 1;
nodes = (
"399 699 LINE",
"324 879 LINE",
"152 879 LINE",
"265 699 LINE"
);
}
);
width = 673;
}
);
leftKerningGroup = U;
note = Ugrave;
rightKerningGroup = U;
unicode = 00D9;
},
{
glyphname = Uhookabove;
lastChange = "2015-08-01 07:19:49 +0000";
layers = (
{
layerId = "9C7BFC1E-BC2B-47ED-B7E7-0F1FF6E98B93";
name = Bold;
paths = (
{
closed = 1;
nodes = (
"517 -15 OFFCURVE",
"601 66 OFFCURVE",
"601 187 CURVE SMOOTH",
"601 509 LINE SMOOTH",
"601 533 OFFCURVE",
"612 546 OFFCURVE",
"640 546 CURVE SMOOTH",
"661 546 LINE",
"661 647 LINE",
"389 647 LINE",
"389 546 LINE",
"406 546 LINE SMOOTH",
"434 546 OFFCURVE",
"445 533 OFFCURVE",
"445 508 CURVE SMOOTH",
"445 181 LINE SMOOTH",
"445 114 OFFCURVE",
"406 87 OFFCURVE",
"336 87 CURVE SMOOTH",
"266 87 OFFCURVE",
"227 114 OFFCURVE",
"227 181 CURVE SMOOTH",
"227 508 LINE SMOOTH",
"227 533 OFFCURVE",
"238 546 OFFCURVE",
"267 546 CURVE SMOOTH",
"283 546 LINE",
"283 647 LINE",
"11 647 LINE",
"11 546 LINE",
"32 546 LINE SMOOTH",
"61 546 OFFCURVE",
"72 533 OFFCURVE",
"72 509 CURVE SMOOTH",
"72 187 LINE SMOOTH",
"72 66 OFFCURVE",
"155 -15 OFFCURVE",
"336 -15 CURVE SMOOTH"
);
},
{
closed = 1;
nodes = (
"384 699 LINE",
"384 741 LINE",
"424 755 OFFCURVE",
"443 781 OFFCURVE",
"443 822 CURVE SMOOTH",
"443 883 OFFCURVE",
"395 909 OFFCURVE",
"313 909 CURVE SMOOTH",
"275 909 OFFCURVE",
"245 903 OFFCURVE",
"225 896 CURVE",
"225 820 LINE",
"238 826 OFFCURVE",
"254 829 OFFCURVE",
"270 829 CURVE SMOOTH",
"297 829 OFFCURVE",
"308 819 OFFCURVE",
"308 799 CURVE SMOOTH",
"308 780 OFFCURVE",
"297 763 OFFCURVE",
"256 763 CURVE",
"256 699 LINE"
);
}
);
width = 673;
}
);
leftKerningGroup = U;
note = Uhookabove;
rightKerningGroup = U;
unicode = 1EE6;
},
{
glyphname = Uhorn;
lastChange = "2015-07-31 16:52:58 +0000";
layers = (
{
layerId = "9C7BFC1E-BC2B-47ED-B7E7-0F1FF6E98B93";
name = Bold;
paths = (
{
closed = 1;
nodes = (
"517 -15 OFFCURVE",
"600 66 OFFCURVE",
"600 187 CURVE SMOOTH",
"600 483 LINE",
"742 493 OFFCURVE",
"790 556 OFFCURVE",
"790 649 CURVE SMOOTH",
"790 689 LINE",
"639 689 LINE",
"639 650 LINE SMOOTH",
"639 613 OFFCURVE",
"630 596 OFFCURVE",
"600 591 CURVE",
"600 647 LINE",
"389 647 LINE",
"389 546 LINE",
"406 546 LINE SMOOTH",
"434 546 OFFCURVE",
"445 533 OFFCURVE",
"445 508 CURVE SMOOTH",
"445 181 LINE SMOOTH",
"445 114 OFFCURVE",
"406 87 OFFCURVE",
"336 87 CURVE SMOOTH",
"266 87 OFFCURVE",
"227 114 OFFCURVE",
"227 181 CURVE SMOOTH",
"227 508 LINE SMOOTH",
"227 533 OFFCURVE",
"238 546 OFFCURVE",
"267 546 CURVE SMOOTH",
"283 546 LINE",
"283 647 LINE",
"11 647 LINE",
"11 546 LINE",
"32 546 LINE SMOOTH",
"61 546 OFFCURVE",
"72 533 OFFCURVE",
"72 509 CURVE SMOOTH",
"72 187 LINE SMOOTH",
"72 66 OFFCURVE",
"155 -15 OFFCURVE",
"336 -15 CURVE SMOOTH"
);
}
);
width = 776;
}
);
note = Uhorn;
unicode = 01AF;
},
{
glyphname = Uhornacute;
lastChange = "2015-08-01 07:19:48 +0000";
layers = (
{
layerId = "9C7BFC1E-BC2B-47ED-B7E7-0F1FF6E98B93";
name = Bold;
paths = (
{
closed = 1;
nodes = (
"517 -15 OFFCURVE",
"600 66 OFFCURVE",
"600 187 CURVE SMOOTH",
"600 483 LINE",
"742 493 OFFCURVE",
"790 556 OFFCURVE",
"790 649 CURVE SMOOTH",
"790 689 LINE",
"639 689 LINE",
"639 650 LINE SMOOTH",
"639 613 OFFCURVE",
"630 596 OFFCURVE",
"600 591 CURVE",
"600 647 LINE",
"389 647 LINE",
"389 546 LINE",
"406 546 LINE SMOOTH",
"434 546 OFFCURVE",
"445 533 OFFCURVE",
"445 508 CURVE SMOOTH",
"445 181 LINE SMOOTH",
"445 114 OFFCURVE",
"406 87 OFFCURVE",
"336 87 CURVE SMOOTH",
"266 87 OFFCURVE",
"227 114 OFFCURVE",
"227 181 CURVE SMOOTH",
"227 508 LINE SMOOTH",
"227 533 OFFCURVE",
"238 546 OFFCURVE",
"267 546 CURVE SMOOTH",
"283 546 LINE",
"283 647 LINE",
"11 647 LINE",
"11 546 LINE",
"32 546 LINE SMOOTH",
"61 546 OFFCURVE",
"72 533 OFFCURVE",
"72 509 CURVE SMOOTH",
"72 187 LINE SMOOTH",
"72 66 OFFCURVE",
"155 -15 OFFCURVE",
"336 -15 CURVE SMOOTH"
);
},
{
closed = 1;
nodes = (
"389 699 LINE",
"502 879 LINE",
"331 879 LINE",
"256 699 LINE"
);
}
);
width = 776;
}
);
leftKerningGroup = U;
note = Uhornacute;
rightKerningGroup = U;
unicode = 1EE8;
},
{
glyphname = Uhorndotbelow;
lastChange = "2015-08-01 07:19:48 +0000";
layers = (
{
layerId = "9C7BFC1E-BC2B-47ED-B7E7-0F1FF6E98B93";
name = Bold;
paths = (
{
closed = 1;
nodes = (
"517 -15 OFFCURVE",
"600 66 OFFCURVE",
"600 187 CURVE SMOOTH",
"600 483 LINE",
"742 493 OFFCURVE",
"790 556 OFFCURVE",
"790 649 CURVE SMOOTH",
"790 689 LINE",
"639 689 LINE",
"639 650 LINE SMOOTH",
"639 613 OFFCURVE",
"630 596 OFFCURVE",
"600 591 CURVE",
"600 647 LINE",
"389 647 LINE",
"389 546 LINE",
"406 546 LINE SMOOTH",
"434 546 OFFCURVE",
"445 533 OFFCURVE",
"445 508 CURVE SMOOTH",
"445 181 LINE SMOOTH",
"445 114 OFFCURVE",
"406 87 OFFCURVE",
"336 87 CURVE SMOOTH",
"266 87 OFFCURVE",
"227 114 OFFCURVE",
"227 181 CURVE SMOOTH",
"227 508 LINE SMOOTH",
"227 533 OFFCURVE",
"238 546 OFFCURVE",
"267 546 CURVE SMOOTH",
"283 546 LINE",
"283 647 LINE",
"11 647 LINE",
"11 546 LINE",
"32 546 LINE SMOOTH",
"61 546 OFFCURVE",
"72 533 OFFCURVE",
"72 509 CURVE SMOOTH",
"72 187 LINE SMOOTH",
"72 66 OFFCURVE",
"155 -15 OFFCURVE",
"336 -15 CURVE SMOOTH"
);
},
{
closed = 1;
nodes = (
"393 -183 LINE",
"393 -61 LINE",
"277 -61 LINE",
"277 -183 LINE"
);
}
);
width = 776;
}
);
leftKerningGroup = U;
note = Uhorndotbelow;
rightKerningGroup = U;
unicode = 1EF0;
},
{
glyphname = Uhorngrave;
lastChange = "2015-08-01 07:19:48 +0000";
layers = (
{
layerId = "9C7BFC1E-BC2B-47ED-B7E7-0F1FF6E98B93";
name = Bold;
paths = (
{
closed = 1;
nodes = (
"517 -15 OFFCURVE",
"600 66 OFFCURVE",
"600 187 CURVE SMOOTH",
"600 483 LINE",
"742 493 OFFCURVE",
"790 556 OFFCURVE",
"790 649 CURVE SMOOTH",
"790 689 LINE",
"639 689 LINE",
"639 650 LINE SMOOTH",
"639 613 OFFCURVE",
"630 596 OFFCURVE",
"600 591 CURVE",
"600 647 LINE",
"389 647 LINE",
"389 546 LINE",
"406 546 LINE SMOOTH",
"434 546 OFFCURVE",
"445 533 OFFCURVE",
"445 508 CURVE SMOOTH",
"445 181 LINE SMOOTH",
"445 114 OFFCURVE",
"406 87 OFFCURVE",
"336 87 CURVE SMOOTH",
"266 87 OFFCURVE",
"227 114 OFFCURVE",
"227 181 CURVE SMOOTH",
"227 508 LINE SMOOTH",
"227 533 OFFCURVE",
"238 546 OFFCURVE",
"267 546 CURVE SMOOTH",
"283 546 LINE",
"283 647 LINE",
"11 647 LINE",
"11 546 LINE",
"32 546 LINE SMOOTH",
"61 546 OFFCURVE",
"72 533 OFFCURVE",
"72 509 CURVE SMOOTH",
"72 187 LINE SMOOTH",
"72 66 OFFCURVE",
"155 -15 OFFCURVE",
"336 -15 CURVE SMOOTH"
);
},
{
closed = 1;
nodes = (
"396 699 LINE",
"321 879 LINE",
"149 879 LINE",
"262 699 LINE"
);
}
);
width = 776;
}
);
leftKerningGroup = U;
note = Uhorngrave;
rightKerningGroup = U;
unicode = 1EEA;
},
{
glyphname = Uhornhookabove;
lastChange = "2015-08-01 07:19:48 +0000";
layers = (
{
layerId = "9C7BFC1E-BC2B-47ED-B7E7-0F1FF6E98B93";
name = Bold;
paths = (
{
closed = 1;
nodes = (
"517 -15 OFFCURVE",
"600 66 OFFCURVE",
"600 187 CURVE SMOOTH",
"600 483 LINE",
"742 493 OFFCURVE",
"790 556 OFFCURVE",
"790 649 CURVE SMOOTH",
"790 689 LINE",
"639 689 LINE",
"639 650 LINE SMOOTH",
"639 613 OFFCURVE",
"630 596 OFFCURVE",
"600 591 CURVE",
"600 647 LINE",
"389 647 LINE",
"389 546 LINE",
"406 546 LINE SMOOTH",
"434 546 OFFCURVE",
"445 533 OFFCURVE",
"445 508 CURVE SMOOTH",
"445 181 LINE SMOOTH",
"445 114 OFFCURVE",
"406 87 OFFCURVE",
"336 87 CURVE SMOOTH",
"266 87 OFFCURVE",
"227 114 OFFCURVE",
"227 181 CURVE SMOOTH",
"227 508 LINE SMOOTH",
"227 533 OFFCURVE",
"238 546 OFFCURVE",
"267 546 CURVE SMOOTH",
"283 546 LINE",
"283 647 LINE",
"11 647 LINE",
"11 546 LINE",
"32 546 LINE SMOOTH",
"61 546 OFFCURVE",
"72 533 OFFCURVE",
"72 509 CURVE SMOOTH",
"72 187 LINE SMOOTH",
"72 66 OFFCURVE",
"155 -15 OFFCURVE",
"336 -15 CURVE SMOOTH"
);
},
{
closed = 1;
nodes = (
"396 699 LINE",
"396 741 LINE",
"436 755 OFFCURVE",
"455 781 OFFCURVE",
"455 822 CURVE SMOOTH",
"455 883 OFFCURVE",
"407 909 OFFCURVE",
"325 909 CURVE SMOOTH",
"287 909 OFFCURVE",
"257 903 OFFCURVE",
"237 896 CURVE",
"237 820 LINE",
"250 826 OFFCURVE",
"266 829 OFFCURVE",
"282 829 CURVE SMOOTH",
"309 829 OFFCURVE",
"320 819 OFFCURVE",
"320 799 CURVE SMOOTH",
"320 780 OFFCURVE",
"309 763 OFFCURVE",
"268 763 CURVE",
"268 699 LINE"
);
}
);
width = 776;
}
);
leftKerningGroup = U;
note = Uhornhookabove;
rightKerningGroup = U;
unicode = 1EEC;
},
{
glyphname = Uhorntilde;
lastChange = "2015-08-01 07:19:48 +0000";
layers = (
{
layerId = "9C7BFC1E-BC2B-47ED-B7E7-0F1FF6E98B93";
name = Bold;
paths = (
{
closed = 1;
nodes = (
"517 -15 OFFCURVE",
"600 66 OFFCURVE",
"600 187 CURVE SMOOTH",
"600 483 LINE",
"742 493 OFFCURVE",
"790 556 OFFCURVE",
"790 649 CURVE SMOOTH",
"790 689 LINE",
"639 689 LINE",
"639 650 LINE SMOOTH",
"639 613 OFFCURVE",
"630 596 OFFCURVE",
"600 591 CURVE",
"600 647 LINE",
"389 647 LINE",
"389 546 LINE",
"406 546 LINE SMOOTH",
"434 546 OFFCURVE",
"445 533 OFFCURVE",
"445 508 CURVE SMOOTH",
"445 181 LINE SMOOTH",
"445 114 OFFCURVE",
"406 87 OFFCURVE",
"336 87 CURVE SMOOTH",
"266 87 OFFCURVE",
"227 114 OFFCURVE",
"227 181 CURVE SMOOTH",
"227 508 LINE SMOOTH",
"227 533 OFFCURVE",
"238 546 OFFCURVE",
"267 546 CURVE SMOOTH",
"283 546 LINE",
"283 647 LINE",
"11 647 LINE",
"11 546 LINE",
"32 546 LINE SMOOTH",
"61 546 OFFCURVE",
"72 533 OFFCURVE",
"72 509 CURVE SMOOTH",
"72 187 LINE SMOOTH",
"72 66 OFFCURVE",
"155 -15 OFFCURVE",
"336 -15 CURVE SMOOTH"
);
},
{
closed = 1;
nodes = (
"234 699 LINE",
"234 732 OFFCURVE",
"250 747 OFFCURVE",
"278 747 CURVE SMOOTH",
"323 747 OFFCURVE",
"356 699 OFFCURVE",
"432 699 CURVE SMOOTH",
"520 699 OFFCURVE",
"554 751 OFFCURVE",
"554 867 CURVE",
"446 867 LINE",
"446 834 OFFCURVE",
"432 818 OFFCURVE",
"402 818 CURVE SMOOTH",
"357 818 OFFCURVE",
"325 867 OFFCURVE",
"251 867 CURVE SMOOTH",
"162 867 OFFCURVE",
"125 812 OFFCURVE",
"125 699 CURVE"
);
}
);
width = 776;
}
);
leftKerningGroup = U;
note = Uhorntilde;
rightKerningGroup = U;
unicode = 1EEE;
},
{
glyphname = Uhungarumlaut;
lastChange = "2015-08-01 07:19:48 +0000";
layers = (
{
layerId = "9C7BFC1E-BC2B-47ED-B7E7-0F1FF6E98B93";
name = Bold;
paths = (
{
closed = 1;
nodes = (
"517 -15 OFFCURVE",
"601 66 OFFCURVE",
"601 187 CURVE SMOOTH",
"601 509 LINE SMOOTH",
"601 533 OFFCURVE",
"612 546 OFFCURVE",
"640 546 CURVE SMOOTH",
"661 546 LINE",
"661 647 LINE",
"389 647 LINE",
"389 546 LINE",
"406 546 LINE SMOOTH",
"434 546 OFFCURVE",
"445 533 OFFCURVE",
"445 508 CURVE SMOOTH",
"445 181 LINE SMOOTH",
"445 114 OFFCURVE",
"406 87 OFFCURVE",
"336 87 CURVE SMOOTH",
"266 87 OFFCURVE",
"227 114 OFFCURVE",
"227 181 CURVE SMOOTH",
"227 508 LINE SMOOTH",
"227 533 OFFCURVE",
"238 546 OFFCURVE",
"267 546 CURVE SMOOTH",
"283 546 LINE",
"283 647 LINE",
"11 647 LINE",
"11 546 LINE",
"32 546 LINE SMOOTH",
"61 546 OFFCURVE",
"72 533 OFFCURVE",
"72 509 CURVE SMOOTH",
"72 187 LINE SMOOTH",
"72 66 OFFCURVE",
"155 -15 OFFCURVE",
"336 -15 CURVE SMOOTH"
);
},
{
closed = 1;
nodes = (
"260 699 LINE",
"385 896 LINE",
"209 896 LINE",
"120 699 LINE"
);
},
{
closed = 1;
nodes = (
"492 699 LINE",
"618 896 LINE",
"441 896 LINE",
"353 699 LINE"
);
}
);
width = 673;
}
);
leftKerningGroup = U;
note = Uhungarumlaut;
rightKerningGroup = U;
unicode = 0170;
},
{
glyphname = Umacron;
lastChange = "2015-08-01 07:19:48 +0000";
layers = (
{
layerId = "9C7BFC1E-BC2B-47ED-B7E7-0F1FF6E98B93";
name = Bold;
paths = (
{
closed = 1;
nodes = (
"517 -15 OFFCURVE",
"601 66 OFFCURVE",
"601 187 CURVE SMOOTH",
"601 509 LINE SMOOTH",
"601 533 OFFCURVE",
"612 546 OFFCURVE",
"640 546 CURVE SMOOTH",
"661 546 LINE",
"661 647 LINE",
"389 647 LINE",
"389 546 LINE",
"406 546 LINE SMOOTH",
"434 546 OFFCURVE",
"445 533 OFFCURVE",
"445 508 CURVE SMOOTH",
"445 181 LINE SMOOTH",
"445 114 OFFCURVE",
"406 87 OFFCURVE",
"336 87 CURVE SMOOTH",
"266 87 OFFCURVE",
"227 114 OFFCURVE",
"227 181 CURVE SMOOTH",
"227 508 LINE SMOOTH",
"227 533 OFFCURVE",
"238 546 OFFCURVE",
"267 546 CURVE SMOOTH",
"283 546 LINE",
"283 647 LINE",
"11 647 LINE",
"11 546 LINE",
"32 546 LINE SMOOTH",
"61 546 OFFCURVE",
"72 533 OFFCURVE",
"72 509 CURVE SMOOTH",
"72 187 LINE SMOOTH",
"72 66 OFFCURVE",
"155 -15 OFFCURVE",
"336 -15 CURVE SMOOTH"
);
},
{
closed = 1;
nodes = (
"481 719 LINE",
"481 811 LINE",
"174 811 LINE",
"174 719 LINE"
);
}
);
width = 673;
}
);
leftKerningGroup = U;
note = Umacron;
rightKerningGroup = U;
unicode = 016A;
},
{
glyphname = Uogonek;
lastChange = "2015-08-01 07:19:48 +0000";
layers = (
{
layerId = "9C7BFC1E-BC2B-47ED-B7E7-0F1FF6E98B93";
name = Bold;
paths = (
{
closed = 1;
nodes = (
"517 -15 OFFCURVE",
"601 66 OFFCURVE",
"601 187 CURVE SMOOTH",
"601 509 LINE SMOOTH",
"601 533 OFFCURVE",
"612 546 OFFCURVE",
"640 546 CURVE SMOOTH",
"661 546 LINE",
"661 647 LINE",
"389 647 LINE",
"389 546 LINE",
"406 546 LINE SMOOTH",
"434 546 OFFCURVE",
"445 533 OFFCURVE",
"445 508 CURVE SMOOTH",
"445 181 LINE SMOOTH",
"445 114 OFFCURVE",
"406 87 OFFCURVE",
"336 87 CURVE SMOOTH",
"266 87 OFFCURVE",
"227 114 OFFCURVE",
"227 181 CURVE SMOOTH",
"227 508 LINE SMOOTH",
"227 533 OFFCURVE",
"238 546 OFFCURVE",
"267 546 CURVE SMOOTH",
"283 546 LINE",
"283 647 LINE",
"11 647 LINE",
"11 546 LINE",
"32 546 LINE SMOOTH",
"61 546 OFFCURVE",
"72 533 OFFCURVE",
"72 509 CURVE SMOOTH",
"72 187 LINE SMOOTH",
"72 66 OFFCURVE",
"155 -15 OFFCURVE",
"336 -15 CURVE SMOOTH"
);
},
{
closed = 1;
nodes = (
"384 -221 OFFCURVE",
"414 -214 OFFCURVE",
"445 -190 CURVE",
"445 -92 LINE",
"436 -97 OFFCURVE",
"424 -100 OFFCURVE",
"413 -100 CURVE SMOOTH",
"394 -100 OFFCURVE",
"385 -86 OFFCURVE",
"385 -68 CURVE SMOOTH",
"385 -41 OFFCURVE",
"400 -23 OFFCURVE",
"433 0 CURVE",
"282 0 LINE",
"249 -23 OFFCURVE",
"227 -72 OFFCURVE",
"227 -118 CURVE SMOOTH",
"227 -192 OFFCURVE",
"281 -221 OFFCURVE",
"339 -221 CURVE SMOOTH"
);
}
);
width = 673;
}
);
leftKerningGroup = U;
note = Uogonek;
rightKerningGroup = U;
unicode = 0172;
},
